%TF.GenerationSoftware,KiCad,Pcbnew,5.1.5+dfsg1-2build2*%
%TF.CreationDate,2020-12-26T23:47:44-08:00*%
%TF.ProjectId,motorcontroller,6d6f746f-7263-46f6-9e74-726f6c6c6572,rev?*%
%TF.SameCoordinates,Original*%
%TF.FileFunction,Soldermask,Top*%
%TF.FilePolarity,Negative*%
%FSLAX46Y46*%
G04 Gerber Fmt 4.6, Leading zero omitted, Abs format (unit mm)*
G04 Created by KiCad (PCBNEW 5.1.5+dfsg1-2build2) date 2020-12-26 23:47:44*
%MOMM*%
%LPD*%
G04 APERTURE LIST*
%ADD10C,0.100000*%
G04 APERTURE END LIST*
D10*
G36*
X88876500Y-145956500D02*
G01*
X87123500Y-145956500D01*
X87123500Y-144203500D01*
X88876500Y-144203500D01*
X88876500Y-145956500D01*
G37*
G36*
X115866761Y-134940887D02*
G01*
X116496658Y-135066181D01*
X117258770Y-135381859D01*
X117424813Y-135450636D01*
X117430440Y-135452967D01*
X118270822Y-136014492D01*
X118985508Y-136729178D01*
X119547033Y-137569560D01*
X119933819Y-138503342D01*
X119933819Y-138503344D01*
X120131000Y-139494639D01*
X120131000Y-140505361D01*
X120077018Y-140776745D01*
X119933819Y-141496658D01*
X119547033Y-142430440D01*
X118985508Y-143270822D01*
X118270822Y-143985508D01*
X117430440Y-144547033D01*
X116496658Y-144933819D01*
X116001008Y-145032410D01*
X115505361Y-145131000D01*
X114494639Y-145131000D01*
X113998992Y-145032410D01*
X113503342Y-144933819D01*
X112569560Y-144547033D01*
X111729178Y-143985508D01*
X111014492Y-143270822D01*
X110452967Y-142430440D01*
X110066181Y-141496658D01*
X109922982Y-140776745D01*
X109869000Y-140505361D01*
X109869000Y-139494639D01*
X110066181Y-138503344D01*
X110066181Y-138503342D01*
X110452967Y-137569560D01*
X111014492Y-136729178D01*
X111729178Y-136014492D01*
X112569560Y-135452967D01*
X112575188Y-135450636D01*
X112741230Y-135381859D01*
X113503342Y-135066181D01*
X114133239Y-134940887D01*
X114494639Y-134869000D01*
X115505361Y-134869000D01*
X115866761Y-134940887D01*
G37*
G36*
X88118348Y-141669869D02*
G01*
X88255666Y-141697183D01*
X88288933Y-141710963D01*
X88415177Y-141763255D01*
X88558736Y-141859178D01*
X88680822Y-141981264D01*
X88776745Y-142124823D01*
X88842817Y-142284335D01*
X88876500Y-142453671D01*
X88876500Y-142626329D01*
X88842817Y-142795665D01*
X88776745Y-142955177D01*
X88680822Y-143098736D01*
X88558736Y-143220822D01*
X88415177Y-143316745D01*
X88321738Y-143355449D01*
X88255666Y-143382817D01*
X88170997Y-143399658D01*
X88086329Y-143416500D01*
X87913671Y-143416500D01*
X87829003Y-143399658D01*
X87744334Y-143382817D01*
X87678262Y-143355449D01*
X87584823Y-143316745D01*
X87441264Y-143220822D01*
X87319178Y-143098736D01*
X87223255Y-142955177D01*
X87157183Y-142795665D01*
X87123500Y-142626329D01*
X87123500Y-142453671D01*
X87157183Y-142284335D01*
X87223255Y-142124823D01*
X87319178Y-141981264D01*
X87441264Y-141859178D01*
X87584823Y-141763255D01*
X87711067Y-141710963D01*
X87744334Y-141697183D01*
X87881652Y-141669869D01*
X87913671Y-141663500D01*
X88086329Y-141663500D01*
X88118348Y-141669869D01*
G37*
G36*
X94876500Y-143416500D02*
G01*
X93123500Y-143416500D01*
X93123500Y-141663500D01*
X94876500Y-141663500D01*
X94876500Y-143416500D01*
G37*
G36*
X106372798Y-138278247D02*
G01*
X106408367Y-138289037D01*
X106441139Y-138306554D01*
X106469869Y-138330131D01*
X106493446Y-138358861D01*
X106510963Y-138391633D01*
X106521753Y-138427202D01*
X106526000Y-138470325D01*
X106526000Y-141529675D01*
X106521753Y-141572798D01*
X106510963Y-141608367D01*
X106493446Y-141641139D01*
X106469869Y-141669869D01*
X106441139Y-141693446D01*
X106408367Y-141710963D01*
X106372798Y-141721753D01*
X106329675Y-141726000D01*
X105270325Y-141726000D01*
X105227202Y-141721753D01*
X105191633Y-141710963D01*
X105158861Y-141693446D01*
X105130131Y-141669869D01*
X105106554Y-141641139D01*
X105089037Y-141608367D01*
X105078247Y-141572798D01*
X105074000Y-141529675D01*
X105074000Y-138470325D01*
X105078247Y-138427202D01*
X105089037Y-138391633D01*
X105106554Y-138358861D01*
X105130131Y-138330131D01*
X105158861Y-138306554D01*
X105191633Y-138289037D01*
X105227202Y-138278247D01*
X105270325Y-138274000D01*
X106329675Y-138274000D01*
X106372798Y-138278247D01*
G37*
G36*
X100572798Y-138278247D02*
G01*
X100608367Y-138289037D01*
X100641139Y-138306554D01*
X100669869Y-138330131D01*
X100693446Y-138358861D01*
X100710963Y-138391633D01*
X100721753Y-138427202D01*
X100726000Y-138470325D01*
X100726000Y-141529675D01*
X100721753Y-141572798D01*
X100710963Y-141608367D01*
X100693446Y-141641139D01*
X100669869Y-141669869D01*
X100641139Y-141693446D01*
X100608367Y-141710963D01*
X100572798Y-141721753D01*
X100529675Y-141726000D01*
X99470325Y-141726000D01*
X99427202Y-141721753D01*
X99391633Y-141710963D01*
X99358861Y-141693446D01*
X99330131Y-141669869D01*
X99306554Y-141641139D01*
X99289037Y-141608367D01*
X99278247Y-141572798D01*
X99274000Y-141529675D01*
X99274000Y-138470325D01*
X99278247Y-138427202D01*
X99289037Y-138391633D01*
X99306554Y-138358861D01*
X99330131Y-138330131D01*
X99358861Y-138306554D01*
X99391633Y-138289037D01*
X99427202Y-138278247D01*
X99470325Y-138274000D01*
X100529675Y-138274000D01*
X100572798Y-138278247D01*
G37*
G36*
X94170997Y-139140342D02*
G01*
X94255666Y-139157183D01*
X94321738Y-139184551D01*
X94415177Y-139223255D01*
X94558736Y-139319178D01*
X94680822Y-139441264D01*
X94776745Y-139584823D01*
X94842817Y-139744335D01*
X94876500Y-139913671D01*
X94876500Y-140086329D01*
X94842817Y-140255665D01*
X94776745Y-140415177D01*
X94680822Y-140558736D01*
X94558736Y-140680822D01*
X94415177Y-140776745D01*
X94321738Y-140815449D01*
X94255666Y-140842817D01*
X94170997Y-140859659D01*
X94086329Y-140876500D01*
X93913671Y-140876500D01*
X93829003Y-140859659D01*
X93744334Y-140842817D01*
X93678262Y-140815449D01*
X93584823Y-140776745D01*
X93441264Y-140680822D01*
X93319178Y-140558736D01*
X93223255Y-140415177D01*
X93157183Y-140255665D01*
X93123500Y-140086329D01*
X93123500Y-139913671D01*
X93157183Y-139744335D01*
X93223255Y-139584823D01*
X93319178Y-139441264D01*
X93441264Y-139319178D01*
X93584823Y-139223255D01*
X93678262Y-139184551D01*
X93744334Y-139157183D01*
X93829003Y-139140342D01*
X93913671Y-139123500D01*
X94086329Y-139123500D01*
X94170997Y-139140342D01*
G37*
G36*
X88170997Y-139140342D02*
G01*
X88255666Y-139157183D01*
X88321738Y-139184551D01*
X88415177Y-139223255D01*
X88558736Y-139319178D01*
X88680822Y-139441264D01*
X88776745Y-139584823D01*
X88842817Y-139744335D01*
X88876500Y-139913671D01*
X88876500Y-140086329D01*
X88842817Y-140255665D01*
X88776745Y-140415177D01*
X88680822Y-140558736D01*
X88558736Y-140680822D01*
X88415177Y-140776745D01*
X88321738Y-140815449D01*
X88255666Y-140842817D01*
X88170997Y-140859659D01*
X88086329Y-140876500D01*
X87913671Y-140876500D01*
X87829003Y-140859659D01*
X87744334Y-140842817D01*
X87678262Y-140815449D01*
X87584823Y-140776745D01*
X87441264Y-140680822D01*
X87319178Y-140558736D01*
X87223255Y-140415177D01*
X87157183Y-140255665D01*
X87123500Y-140086329D01*
X87123500Y-139913671D01*
X87157183Y-139744335D01*
X87223255Y-139584823D01*
X87319178Y-139441264D01*
X87441264Y-139319178D01*
X87584823Y-139223255D01*
X87678262Y-139184551D01*
X87744334Y-139157183D01*
X87829003Y-139140342D01*
X87913671Y-139123500D01*
X88086329Y-139123500D01*
X88170997Y-139140342D01*
G37*
G36*
X94170997Y-136600342D02*
G01*
X94255666Y-136617183D01*
X94321738Y-136644551D01*
X94415177Y-136683255D01*
X94558736Y-136779178D01*
X94680822Y-136901264D01*
X94776745Y-137044823D01*
X94842817Y-137204335D01*
X94876500Y-137373671D01*
X94876500Y-137546329D01*
X94842817Y-137715665D01*
X94776745Y-137875177D01*
X94680822Y-138018736D01*
X94558736Y-138140822D01*
X94415177Y-138236745D01*
X94325235Y-138274000D01*
X94255666Y-138302817D01*
X94172719Y-138319316D01*
X94086329Y-138336500D01*
X93913671Y-138336500D01*
X93827281Y-138319316D01*
X93744334Y-138302817D01*
X93674765Y-138274000D01*
X93584823Y-138236745D01*
X93441264Y-138140822D01*
X93319178Y-138018736D01*
X93223255Y-137875177D01*
X93157183Y-137715665D01*
X93123500Y-137546329D01*
X93123500Y-137373671D01*
X93157183Y-137204335D01*
X93223255Y-137044823D01*
X93319178Y-136901264D01*
X93441264Y-136779178D01*
X93584823Y-136683255D01*
X93678262Y-136644551D01*
X93744334Y-136617183D01*
X93829003Y-136600342D01*
X93913671Y-136583500D01*
X94086329Y-136583500D01*
X94170997Y-136600342D01*
G37*
G36*
X102180051Y-134226284D02*
G01*
X102196443Y-134231257D01*
X102211555Y-134239334D01*
X102224798Y-134250202D01*
X102235666Y-134263445D01*
X102243743Y-134278557D01*
X102248716Y-134294949D01*
X102251000Y-134318141D01*
X102251000Y-134731859D01*
X102248716Y-134755051D01*
X102243742Y-134771446D01*
X102233249Y-134791078D01*
X102223872Y-134813717D01*
X102219092Y-134837750D01*
X102219092Y-134862254D01*
X102223873Y-134886287D01*
X102233249Y-134908922D01*
X102243742Y-134928554D01*
X102248716Y-134944949D01*
X102251000Y-134968141D01*
X102251000Y-135381859D01*
X102248716Y-135405051D01*
X102243742Y-135421446D01*
X102233249Y-135441078D01*
X102223872Y-135463717D01*
X102219092Y-135487750D01*
X102219092Y-135512254D01*
X102223873Y-135536287D01*
X102233249Y-135558922D01*
X102243742Y-135578554D01*
X102248716Y-135594949D01*
X102251000Y-135618141D01*
X102251000Y-136031859D01*
X102248716Y-136055051D01*
X102243742Y-136071446D01*
X102233249Y-136091078D01*
X102223872Y-136113717D01*
X102219092Y-136137750D01*
X102219092Y-136162254D01*
X102223873Y-136186287D01*
X102233249Y-136208922D01*
X102243742Y-136228554D01*
X102248716Y-136244949D01*
X102251000Y-136268141D01*
X102251000Y-136681859D01*
X102248716Y-136705051D01*
X102243743Y-136721443D01*
X102235666Y-136736555D01*
X102224798Y-136749798D01*
X102211555Y-136760666D01*
X102196443Y-136768743D01*
X102180051Y-136773716D01*
X102156859Y-136776000D01*
X100618141Y-136776000D01*
X100594949Y-136773716D01*
X100578557Y-136768743D01*
X100563445Y-136760666D01*
X100550202Y-136749798D01*
X100539334Y-136736555D01*
X100531257Y-136721443D01*
X100526284Y-136705051D01*
X100524000Y-136681859D01*
X100524000Y-136268141D01*
X100526284Y-136244949D01*
X100531258Y-136228554D01*
X100541751Y-136208922D01*
X100551128Y-136186283D01*
X100555908Y-136162250D01*
X100555908Y-136137746D01*
X100551127Y-136113713D01*
X100541751Y-136091078D01*
X100531258Y-136071446D01*
X100526284Y-136055051D01*
X100524000Y-136031859D01*
X100524000Y-135618141D01*
X100526284Y-135594949D01*
X100531258Y-135578554D01*
X100541751Y-135558922D01*
X100551128Y-135536283D01*
X100555908Y-135512250D01*
X100555908Y-135487746D01*
X100551127Y-135463713D01*
X100541751Y-135441078D01*
X100531258Y-135421446D01*
X100526284Y-135405051D01*
X100524000Y-135381859D01*
X100524000Y-134968141D01*
X100526284Y-134944949D01*
X100531258Y-134928554D01*
X100541751Y-134908922D01*
X100551128Y-134886283D01*
X100555908Y-134862250D01*
X100555908Y-134837746D01*
X100551127Y-134813713D01*
X100541751Y-134791078D01*
X100531258Y-134771446D01*
X100526284Y-134755051D01*
X100524000Y-134731859D01*
X100524000Y-134318141D01*
X100526284Y-134294949D01*
X100531257Y-134278557D01*
X100539334Y-134263445D01*
X100550202Y-134250202D01*
X100563445Y-134239334D01*
X100578557Y-134231257D01*
X100594949Y-134226284D01*
X100618141Y-134224000D01*
X102156859Y-134224000D01*
X102180051Y-134226284D01*
G37*
G36*
X106405051Y-134226284D02*
G01*
X106421443Y-134231257D01*
X106436555Y-134239334D01*
X106449798Y-134250202D01*
X106460666Y-134263445D01*
X106468743Y-134278557D01*
X106473716Y-134294949D01*
X106476000Y-134318141D01*
X106476000Y-134731859D01*
X106473716Y-134755051D01*
X106468742Y-134771446D01*
X106458249Y-134791078D01*
X106448872Y-134813717D01*
X106444092Y-134837750D01*
X106444092Y-134862254D01*
X106448873Y-134886287D01*
X106458249Y-134908922D01*
X106468742Y-134928554D01*
X106473716Y-134944949D01*
X106476000Y-134968141D01*
X106476000Y-135381859D01*
X106473716Y-135405051D01*
X106468742Y-135421446D01*
X106458249Y-135441078D01*
X106448872Y-135463717D01*
X106444092Y-135487750D01*
X106444092Y-135512254D01*
X106448873Y-135536287D01*
X106458249Y-135558922D01*
X106468742Y-135578554D01*
X106473716Y-135594949D01*
X106476000Y-135618141D01*
X106476000Y-136031859D01*
X106473716Y-136055051D01*
X106468742Y-136071446D01*
X106458249Y-136091078D01*
X106448872Y-136113717D01*
X106444092Y-136137750D01*
X106444092Y-136162254D01*
X106448873Y-136186287D01*
X106458249Y-136208922D01*
X106468742Y-136228554D01*
X106473716Y-136244949D01*
X106476000Y-136268141D01*
X106476000Y-136681859D01*
X106473716Y-136705051D01*
X106468743Y-136721443D01*
X106460666Y-136736555D01*
X106449798Y-136749798D01*
X106436555Y-136760666D01*
X106421443Y-136768743D01*
X106405051Y-136773716D01*
X106381859Y-136776000D01*
X104843141Y-136776000D01*
X104819949Y-136773716D01*
X104803557Y-136768743D01*
X104788445Y-136760666D01*
X104775202Y-136749798D01*
X104764334Y-136736555D01*
X104756257Y-136721443D01*
X104751284Y-136705051D01*
X104749000Y-136681859D01*
X104749000Y-136268141D01*
X104751284Y-136244949D01*
X104756258Y-136228554D01*
X104766751Y-136208922D01*
X104776128Y-136186283D01*
X104780908Y-136162250D01*
X104780908Y-136137746D01*
X104776127Y-136113713D01*
X104766751Y-136091078D01*
X104756258Y-136071446D01*
X104751284Y-136055051D01*
X104749000Y-136031859D01*
X104749000Y-135618141D01*
X104751284Y-135594949D01*
X104756258Y-135578554D01*
X104766751Y-135558922D01*
X104776128Y-135536283D01*
X104780908Y-135512250D01*
X104780908Y-135487746D01*
X104776127Y-135463713D01*
X104766751Y-135441078D01*
X104756258Y-135421446D01*
X104751284Y-135405051D01*
X104749000Y-135381859D01*
X104749000Y-134968141D01*
X104751284Y-134944949D01*
X104756258Y-134928554D01*
X104766751Y-134908922D01*
X104776128Y-134886283D01*
X104780908Y-134862250D01*
X104780908Y-134837746D01*
X104776127Y-134813713D01*
X104766751Y-134791078D01*
X104756258Y-134771446D01*
X104751284Y-134755051D01*
X104749000Y-134731859D01*
X104749000Y-134318141D01*
X104751284Y-134294949D01*
X104756257Y-134278557D01*
X104764334Y-134263445D01*
X104775202Y-134250202D01*
X104788445Y-134239334D01*
X104803557Y-134231257D01*
X104819949Y-134226284D01*
X104843141Y-134224000D01*
X106381859Y-134224000D01*
X106405051Y-134226284D01*
G37*
G36*
X61001008Y-124967590D02*
G01*
X61496658Y-125066181D01*
X62430440Y-125452967D01*
X63270822Y-126014492D01*
X63985508Y-126729178D01*
X64547033Y-127569560D01*
X64933819Y-128503342D01*
X65131000Y-129494641D01*
X65131000Y-130505359D01*
X64933819Y-131496658D01*
X64547033Y-132430440D01*
X63985508Y-133270822D01*
X63270822Y-133985508D01*
X62430440Y-134547033D01*
X61496658Y-134933819D01*
X61040772Y-135024500D01*
X60505361Y-135131000D01*
X59494639Y-135131000D01*
X58959228Y-135024500D01*
X58503342Y-134933819D01*
X57569560Y-134547033D01*
X56729178Y-133985508D01*
X56014492Y-133270822D01*
X55452967Y-132430440D01*
X55066181Y-131496658D01*
X54869000Y-130505359D01*
X54869000Y-129494641D01*
X55066181Y-128503342D01*
X55452967Y-127569560D01*
X56014492Y-126729178D01*
X56729178Y-126014492D01*
X57569560Y-125452967D01*
X58503342Y-125066181D01*
X58998992Y-124967590D01*
X59494639Y-124869000D01*
X60505361Y-124869000D01*
X61001008Y-124967590D01*
G37*
G36*
X99364499Y-132928445D02*
G01*
X99401995Y-132939820D01*
X99436554Y-132958292D01*
X99466847Y-132983153D01*
X99491708Y-133013446D01*
X99510180Y-133048005D01*
X99521555Y-133085501D01*
X99526000Y-133130638D01*
X99526000Y-133869362D01*
X99521555Y-133914499D01*
X99510180Y-133951995D01*
X99491708Y-133986554D01*
X99466847Y-134016847D01*
X99436554Y-134041708D01*
X99401995Y-134060180D01*
X99364499Y-134071555D01*
X99319362Y-134076000D01*
X98680638Y-134076000D01*
X98635501Y-134071555D01*
X98598005Y-134060180D01*
X98563446Y-134041708D01*
X98533153Y-134016847D01*
X98508292Y-133986554D01*
X98489820Y-133951995D01*
X98478445Y-133914499D01*
X98474000Y-133869362D01*
X98474000Y-133130638D01*
X98478445Y-133085501D01*
X98489820Y-133048005D01*
X98508292Y-133013446D01*
X98533153Y-132983153D01*
X98563446Y-132958292D01*
X98598005Y-132939820D01*
X98635501Y-132928445D01*
X98680638Y-132924000D01*
X99319362Y-132924000D01*
X99364499Y-132928445D01*
G37*
G36*
X99364499Y-131178445D02*
G01*
X99401995Y-131189820D01*
X99436554Y-131208292D01*
X99466847Y-131233153D01*
X99491708Y-131263446D01*
X99510180Y-131298005D01*
X99521555Y-131335501D01*
X99526000Y-131380638D01*
X99526000Y-132119362D01*
X99521555Y-132164499D01*
X99510180Y-132201995D01*
X99491708Y-132236554D01*
X99466847Y-132266847D01*
X99436554Y-132291708D01*
X99401995Y-132310180D01*
X99364499Y-132321555D01*
X99319362Y-132326000D01*
X98680638Y-132326000D01*
X98635501Y-132321555D01*
X98598005Y-132310180D01*
X98563446Y-132291708D01*
X98533153Y-132266847D01*
X98508292Y-132236554D01*
X98489820Y-132201995D01*
X98478445Y-132164499D01*
X98474000Y-132119362D01*
X98474000Y-131380638D01*
X98478445Y-131335501D01*
X98489820Y-131298005D01*
X98508292Y-131263446D01*
X98533153Y-131233153D01*
X98563446Y-131208292D01*
X98598005Y-131189820D01*
X98635501Y-131178445D01*
X98680638Y-131174000D01*
X99319362Y-131174000D01*
X99364499Y-131178445D01*
G37*
G36*
X88876500Y-125956500D02*
G01*
X87123500Y-125956500D01*
X87123500Y-124203500D01*
X88876500Y-124203500D01*
X88876500Y-125956500D01*
G37*
G36*
X115866761Y-114940887D02*
G01*
X116496658Y-115066181D01*
X117258770Y-115381859D01*
X117424813Y-115450636D01*
X117430440Y-115452967D01*
X118270822Y-116014492D01*
X118985508Y-116729178D01*
X119547033Y-117569560D01*
X119933819Y-118503342D01*
X119933819Y-118503344D01*
X120131000Y-119494639D01*
X120131000Y-120505361D01*
X120077018Y-120776745D01*
X119933819Y-121496658D01*
X119547033Y-122430440D01*
X118985508Y-123270822D01*
X118270822Y-123985508D01*
X117430440Y-124547033D01*
X116496658Y-124933819D01*
X116001008Y-125032410D01*
X115505361Y-125131000D01*
X114494639Y-125131000D01*
X113998992Y-125032410D01*
X113503342Y-124933819D01*
X112569560Y-124547033D01*
X111729178Y-123985508D01*
X111014492Y-123270822D01*
X110452967Y-122430440D01*
X110066181Y-121496658D01*
X109922982Y-120776745D01*
X109869000Y-120505361D01*
X109869000Y-119494639D01*
X110066181Y-118503344D01*
X110066181Y-118503342D01*
X110452967Y-117569560D01*
X111014492Y-116729178D01*
X111729178Y-116014492D01*
X112569560Y-115452967D01*
X112575188Y-115450636D01*
X112741230Y-115381859D01*
X113503342Y-115066181D01*
X114133239Y-114940887D01*
X114494639Y-114869000D01*
X115505361Y-114869000D01*
X115866761Y-114940887D01*
G37*
G36*
X94876500Y-123416500D02*
G01*
X93123500Y-123416500D01*
X93123500Y-121663500D01*
X94876500Y-121663500D01*
X94876500Y-123416500D01*
G37*
G36*
X88118348Y-121669869D02*
G01*
X88255666Y-121697183D01*
X88288933Y-121710963D01*
X88415177Y-121763255D01*
X88558736Y-121859178D01*
X88680822Y-121981264D01*
X88776745Y-122124823D01*
X88842817Y-122284335D01*
X88876500Y-122453671D01*
X88876500Y-122626329D01*
X88842817Y-122795665D01*
X88776745Y-122955177D01*
X88680822Y-123098736D01*
X88558736Y-123220822D01*
X88415177Y-123316745D01*
X88321738Y-123355449D01*
X88255666Y-123382817D01*
X88170997Y-123399659D01*
X88086329Y-123416500D01*
X87913671Y-123416500D01*
X87829003Y-123399659D01*
X87744334Y-123382817D01*
X87678262Y-123355449D01*
X87584823Y-123316745D01*
X87441264Y-123220822D01*
X87319178Y-123098736D01*
X87223255Y-122955177D01*
X87157183Y-122795665D01*
X87123500Y-122626329D01*
X87123500Y-122453671D01*
X87157183Y-122284335D01*
X87223255Y-122124823D01*
X87319178Y-121981264D01*
X87441264Y-121859178D01*
X87584823Y-121763255D01*
X87711067Y-121710963D01*
X87744334Y-121697183D01*
X87881652Y-121669869D01*
X87913671Y-121663500D01*
X88086329Y-121663500D01*
X88118348Y-121669869D01*
G37*
G36*
X106372798Y-118278247D02*
G01*
X106408367Y-118289037D01*
X106441139Y-118306554D01*
X106469869Y-118330131D01*
X106493446Y-118358861D01*
X106510963Y-118391633D01*
X106521753Y-118427202D01*
X106526000Y-118470325D01*
X106526000Y-121529675D01*
X106521753Y-121572798D01*
X106510963Y-121608367D01*
X106493446Y-121641139D01*
X106469869Y-121669869D01*
X106441139Y-121693446D01*
X106408367Y-121710963D01*
X106372798Y-121721753D01*
X106329675Y-121726000D01*
X105270325Y-121726000D01*
X105227202Y-121721753D01*
X105191633Y-121710963D01*
X105158861Y-121693446D01*
X105130131Y-121669869D01*
X105106554Y-121641139D01*
X105089037Y-121608367D01*
X105078247Y-121572798D01*
X105074000Y-121529675D01*
X105074000Y-118470325D01*
X105078247Y-118427202D01*
X105089037Y-118391633D01*
X105106554Y-118358861D01*
X105130131Y-118330131D01*
X105158861Y-118306554D01*
X105191633Y-118289037D01*
X105227202Y-118278247D01*
X105270325Y-118274000D01*
X106329675Y-118274000D01*
X106372798Y-118278247D01*
G37*
G36*
X100572798Y-118278247D02*
G01*
X100608367Y-118289037D01*
X100641139Y-118306554D01*
X100669869Y-118330131D01*
X100693446Y-118358861D01*
X100710963Y-118391633D01*
X100721753Y-118427202D01*
X100726000Y-118470325D01*
X100726000Y-121529675D01*
X100721753Y-121572798D01*
X100710963Y-121608367D01*
X100693446Y-121641139D01*
X100669869Y-121669869D01*
X100641139Y-121693446D01*
X100608367Y-121710963D01*
X100572798Y-121721753D01*
X100529675Y-121726000D01*
X99470325Y-121726000D01*
X99427202Y-121721753D01*
X99391633Y-121710963D01*
X99358861Y-121693446D01*
X99330131Y-121669869D01*
X99306554Y-121641139D01*
X99289037Y-121608367D01*
X99278247Y-121572798D01*
X99274000Y-121529675D01*
X99274000Y-118470325D01*
X99278247Y-118427202D01*
X99289037Y-118391633D01*
X99306554Y-118358861D01*
X99330131Y-118330131D01*
X99358861Y-118306554D01*
X99391633Y-118289037D01*
X99427202Y-118278247D01*
X99470325Y-118274000D01*
X100529675Y-118274000D01*
X100572798Y-118278247D01*
G37*
G36*
X94170997Y-119140341D02*
G01*
X94255666Y-119157183D01*
X94321738Y-119184551D01*
X94415177Y-119223255D01*
X94558736Y-119319178D01*
X94680822Y-119441264D01*
X94776745Y-119584823D01*
X94842817Y-119744335D01*
X94876500Y-119913671D01*
X94876500Y-120086329D01*
X94842817Y-120255665D01*
X94776745Y-120415177D01*
X94680822Y-120558736D01*
X94558736Y-120680822D01*
X94415177Y-120776745D01*
X94321738Y-120815449D01*
X94255666Y-120842817D01*
X94170997Y-120859659D01*
X94086329Y-120876500D01*
X93913671Y-120876500D01*
X93829003Y-120859659D01*
X93744334Y-120842817D01*
X93678262Y-120815449D01*
X93584823Y-120776745D01*
X93441264Y-120680822D01*
X93319178Y-120558736D01*
X93223255Y-120415177D01*
X93157183Y-120255665D01*
X93123500Y-120086329D01*
X93123500Y-119913671D01*
X93157183Y-119744335D01*
X93223255Y-119584823D01*
X93319178Y-119441264D01*
X93441264Y-119319178D01*
X93584823Y-119223255D01*
X93678262Y-119184551D01*
X93744334Y-119157183D01*
X93829003Y-119140341D01*
X93913671Y-119123500D01*
X94086329Y-119123500D01*
X94170997Y-119140341D01*
G37*
G36*
X88170997Y-119140341D02*
G01*
X88255666Y-119157183D01*
X88321738Y-119184551D01*
X88415177Y-119223255D01*
X88558736Y-119319178D01*
X88680822Y-119441264D01*
X88776745Y-119584823D01*
X88842817Y-119744335D01*
X88876500Y-119913671D01*
X88876500Y-120086329D01*
X88842817Y-120255665D01*
X88776745Y-120415177D01*
X88680822Y-120558736D01*
X88558736Y-120680822D01*
X88415177Y-120776745D01*
X88321738Y-120815449D01*
X88255666Y-120842817D01*
X88170997Y-120859659D01*
X88086329Y-120876500D01*
X87913671Y-120876500D01*
X87829003Y-120859659D01*
X87744334Y-120842817D01*
X87678262Y-120815449D01*
X87584823Y-120776745D01*
X87441264Y-120680822D01*
X87319178Y-120558736D01*
X87223255Y-120415177D01*
X87157183Y-120255665D01*
X87123500Y-120086329D01*
X87123500Y-119913671D01*
X87157183Y-119744335D01*
X87223255Y-119584823D01*
X87319178Y-119441264D01*
X87441264Y-119319178D01*
X87584823Y-119223255D01*
X87678262Y-119184551D01*
X87744334Y-119157183D01*
X87829003Y-119140341D01*
X87913671Y-119123500D01*
X88086329Y-119123500D01*
X88170997Y-119140341D01*
G37*
G36*
X94170997Y-116600341D02*
G01*
X94255666Y-116617183D01*
X94321738Y-116644551D01*
X94415177Y-116683255D01*
X94558736Y-116779178D01*
X94680822Y-116901264D01*
X94776745Y-117044823D01*
X94842817Y-117204335D01*
X94876500Y-117373671D01*
X94876500Y-117546329D01*
X94842817Y-117715665D01*
X94776745Y-117875177D01*
X94680822Y-118018736D01*
X94558736Y-118140822D01*
X94415177Y-118236745D01*
X94325235Y-118274000D01*
X94255666Y-118302817D01*
X94172719Y-118319316D01*
X94086329Y-118336500D01*
X93913671Y-118336500D01*
X93827281Y-118319316D01*
X93744334Y-118302817D01*
X93674765Y-118274000D01*
X93584823Y-118236745D01*
X93441264Y-118140822D01*
X93319178Y-118018736D01*
X93223255Y-117875177D01*
X93157183Y-117715665D01*
X93123500Y-117546329D01*
X93123500Y-117373671D01*
X93157183Y-117204335D01*
X93223255Y-117044823D01*
X93319178Y-116901264D01*
X93441264Y-116779178D01*
X93584823Y-116683255D01*
X93678262Y-116644551D01*
X93744334Y-116617183D01*
X93829003Y-116600341D01*
X93913671Y-116583500D01*
X94086329Y-116583500D01*
X94170997Y-116600341D01*
G37*
G36*
X102292551Y-114226284D02*
G01*
X102308943Y-114231257D01*
X102324055Y-114239334D01*
X102337298Y-114250202D01*
X102348166Y-114263445D01*
X102356243Y-114278557D01*
X102361216Y-114294949D01*
X102363500Y-114318141D01*
X102363500Y-114731859D01*
X102361216Y-114755051D01*
X102356242Y-114771446D01*
X102345749Y-114791078D01*
X102336372Y-114813717D01*
X102331592Y-114837750D01*
X102331592Y-114862254D01*
X102336373Y-114886287D01*
X102345749Y-114908922D01*
X102356242Y-114928554D01*
X102361216Y-114944949D01*
X102363500Y-114968141D01*
X102363500Y-115381859D01*
X102361216Y-115405051D01*
X102356242Y-115421446D01*
X102345749Y-115441078D01*
X102336372Y-115463717D01*
X102331592Y-115487750D01*
X102331592Y-115512254D01*
X102336373Y-115536287D01*
X102345749Y-115558922D01*
X102356242Y-115578554D01*
X102361216Y-115594949D01*
X102363500Y-115618141D01*
X102363500Y-116031859D01*
X102361216Y-116055051D01*
X102356242Y-116071446D01*
X102345749Y-116091078D01*
X102336372Y-116113717D01*
X102331592Y-116137750D01*
X102331592Y-116162254D01*
X102336373Y-116186287D01*
X102345749Y-116208922D01*
X102356242Y-116228554D01*
X102361216Y-116244949D01*
X102363500Y-116268141D01*
X102363500Y-116681859D01*
X102361216Y-116705051D01*
X102356243Y-116721443D01*
X102348166Y-116736555D01*
X102337298Y-116749798D01*
X102324055Y-116760666D01*
X102308943Y-116768743D01*
X102292551Y-116773716D01*
X102269359Y-116776000D01*
X100730641Y-116776000D01*
X100707449Y-116773716D01*
X100691057Y-116768743D01*
X100675945Y-116760666D01*
X100662702Y-116749798D01*
X100651834Y-116736555D01*
X100643757Y-116721443D01*
X100638784Y-116705051D01*
X100636500Y-116681859D01*
X100636500Y-116268141D01*
X100638784Y-116244949D01*
X100643758Y-116228554D01*
X100654251Y-116208922D01*
X100663628Y-116186283D01*
X100668408Y-116162250D01*
X100668408Y-116137746D01*
X100663627Y-116113713D01*
X100654251Y-116091078D01*
X100643758Y-116071446D01*
X100638784Y-116055051D01*
X100636500Y-116031859D01*
X100636500Y-115618141D01*
X100638784Y-115594949D01*
X100643758Y-115578554D01*
X100654251Y-115558922D01*
X100663628Y-115536283D01*
X100668408Y-115512250D01*
X100668408Y-115487746D01*
X100663627Y-115463713D01*
X100654251Y-115441078D01*
X100643758Y-115421446D01*
X100638784Y-115405051D01*
X100636500Y-115381859D01*
X100636500Y-114968141D01*
X100638784Y-114944949D01*
X100643758Y-114928554D01*
X100654251Y-114908922D01*
X100663628Y-114886283D01*
X100668408Y-114862250D01*
X100668408Y-114837746D01*
X100663627Y-114813713D01*
X100654251Y-114791078D01*
X100643758Y-114771446D01*
X100638784Y-114755051D01*
X100636500Y-114731859D01*
X100636500Y-114318141D01*
X100638784Y-114294949D01*
X100643757Y-114278557D01*
X100651834Y-114263445D01*
X100662702Y-114250202D01*
X100675945Y-114239334D01*
X100691057Y-114231257D01*
X100707449Y-114226284D01*
X100730641Y-114224000D01*
X102269359Y-114224000D01*
X102292551Y-114226284D01*
G37*
G36*
X106517551Y-114226284D02*
G01*
X106533943Y-114231257D01*
X106549055Y-114239334D01*
X106562298Y-114250202D01*
X106573166Y-114263445D01*
X106581243Y-114278557D01*
X106586216Y-114294949D01*
X106588500Y-114318141D01*
X106588500Y-114731859D01*
X106586216Y-114755051D01*
X106581242Y-114771446D01*
X106570749Y-114791078D01*
X106561372Y-114813717D01*
X106556592Y-114837750D01*
X106556592Y-114862254D01*
X106561373Y-114886287D01*
X106570749Y-114908922D01*
X106581242Y-114928554D01*
X106586216Y-114944949D01*
X106588500Y-114968141D01*
X106588500Y-115381859D01*
X106586216Y-115405051D01*
X106581242Y-115421446D01*
X106570749Y-115441078D01*
X106561372Y-115463717D01*
X106556592Y-115487750D01*
X106556592Y-115512254D01*
X106561373Y-115536287D01*
X106570749Y-115558922D01*
X106581242Y-115578554D01*
X106586216Y-115594949D01*
X106588500Y-115618141D01*
X106588500Y-116031859D01*
X106586216Y-116055051D01*
X106581242Y-116071446D01*
X106570749Y-116091078D01*
X106561372Y-116113717D01*
X106556592Y-116137750D01*
X106556592Y-116162254D01*
X106561373Y-116186287D01*
X106570749Y-116208922D01*
X106581242Y-116228554D01*
X106586216Y-116244949D01*
X106588500Y-116268141D01*
X106588500Y-116681859D01*
X106586216Y-116705051D01*
X106581243Y-116721443D01*
X106573166Y-116736555D01*
X106562298Y-116749798D01*
X106549055Y-116760666D01*
X106533943Y-116768743D01*
X106517551Y-116773716D01*
X106494359Y-116776000D01*
X104955641Y-116776000D01*
X104932449Y-116773716D01*
X104916057Y-116768743D01*
X104900945Y-116760666D01*
X104887702Y-116749798D01*
X104876834Y-116736555D01*
X104868757Y-116721443D01*
X104863784Y-116705051D01*
X104861500Y-116681859D01*
X104861500Y-116268141D01*
X104863784Y-116244949D01*
X104868758Y-116228554D01*
X104879251Y-116208922D01*
X104888628Y-116186283D01*
X104893408Y-116162250D01*
X104893408Y-116137746D01*
X104888627Y-116113713D01*
X104879251Y-116091078D01*
X104868758Y-116071446D01*
X104863784Y-116055051D01*
X104861500Y-116031859D01*
X104861500Y-115618141D01*
X104863784Y-115594949D01*
X104868758Y-115578554D01*
X104879251Y-115558922D01*
X104888628Y-115536283D01*
X104893408Y-115512250D01*
X104893408Y-115487746D01*
X104888627Y-115463713D01*
X104879251Y-115441078D01*
X104868758Y-115421446D01*
X104863784Y-115405051D01*
X104861500Y-115381859D01*
X104861500Y-114968141D01*
X104863784Y-114944949D01*
X104868758Y-114928554D01*
X104879251Y-114908922D01*
X104888628Y-114886283D01*
X104893408Y-114862250D01*
X104893408Y-114837746D01*
X104888627Y-114813713D01*
X104879251Y-114791078D01*
X104868758Y-114771446D01*
X104863784Y-114755051D01*
X104861500Y-114731859D01*
X104861500Y-114318141D01*
X104863784Y-114294949D01*
X104868757Y-114278557D01*
X104876834Y-114263445D01*
X104887702Y-114250202D01*
X104900945Y-114239334D01*
X104916057Y-114231257D01*
X104932449Y-114226284D01*
X104955641Y-114224000D01*
X106494359Y-114224000D01*
X106517551Y-114226284D01*
G37*
G36*
X61001009Y-104967591D02*
G01*
X61496658Y-105066181D01*
X62430440Y-105452967D01*
X63270822Y-106014492D01*
X63985508Y-106729178D01*
X64547033Y-107569560D01*
X64933819Y-108503342D01*
X65131000Y-109494641D01*
X65131000Y-110505359D01*
X64933819Y-111496658D01*
X64547033Y-112430440D01*
X63985508Y-113270822D01*
X63270822Y-113985508D01*
X62430440Y-114547033D01*
X61496658Y-114933819D01*
X61040772Y-115024500D01*
X60505361Y-115131000D01*
X59494639Y-115131000D01*
X58959228Y-115024500D01*
X58503342Y-114933819D01*
X57569560Y-114547033D01*
X56729178Y-113985508D01*
X56014492Y-113270822D01*
X55452967Y-112430440D01*
X55066181Y-111496658D01*
X54869000Y-110505359D01*
X54869000Y-109494641D01*
X55066181Y-108503342D01*
X55452967Y-107569560D01*
X56014492Y-106729178D01*
X56729178Y-106014492D01*
X57569560Y-105452967D01*
X58503342Y-105066181D01*
X58998991Y-104967591D01*
X59494639Y-104869000D01*
X60505361Y-104869000D01*
X61001009Y-104967591D01*
G37*
G36*
X99364499Y-112928445D02*
G01*
X99401995Y-112939820D01*
X99436554Y-112958292D01*
X99466847Y-112983153D01*
X99491708Y-113013446D01*
X99510180Y-113048005D01*
X99521555Y-113085501D01*
X99526000Y-113130638D01*
X99526000Y-113869362D01*
X99521555Y-113914499D01*
X99510180Y-113951995D01*
X99491708Y-113986554D01*
X99466847Y-114016847D01*
X99436554Y-114041708D01*
X99401995Y-114060180D01*
X99364499Y-114071555D01*
X99319362Y-114076000D01*
X98680638Y-114076000D01*
X98635501Y-114071555D01*
X98598005Y-114060180D01*
X98563446Y-114041708D01*
X98533153Y-114016847D01*
X98508292Y-113986554D01*
X98489820Y-113951995D01*
X98478445Y-113914499D01*
X98474000Y-113869362D01*
X98474000Y-113130638D01*
X98478445Y-113085501D01*
X98489820Y-113048005D01*
X98508292Y-113013446D01*
X98533153Y-112983153D01*
X98563446Y-112958292D01*
X98598005Y-112939820D01*
X98635501Y-112928445D01*
X98680638Y-112924000D01*
X99319362Y-112924000D01*
X99364499Y-112928445D01*
G37*
G36*
X99364499Y-111178445D02*
G01*
X99401995Y-111189820D01*
X99436554Y-111208292D01*
X99466847Y-111233153D01*
X99491708Y-111263446D01*
X99510180Y-111298005D01*
X99521555Y-111335501D01*
X99526000Y-111380638D01*
X99526000Y-112119362D01*
X99521555Y-112164499D01*
X99510180Y-112201995D01*
X99491708Y-112236554D01*
X99466847Y-112266847D01*
X99436554Y-112291708D01*
X99401995Y-112310180D01*
X99364499Y-112321555D01*
X99319362Y-112326000D01*
X98680638Y-112326000D01*
X98635501Y-112321555D01*
X98598005Y-112310180D01*
X98563446Y-112291708D01*
X98533153Y-112266847D01*
X98508292Y-112236554D01*
X98489820Y-112201995D01*
X98478445Y-112164499D01*
X98474000Y-112119362D01*
X98474000Y-111380638D01*
X98478445Y-111335501D01*
X98489820Y-111298005D01*
X98508292Y-111263446D01*
X98533153Y-111233153D01*
X98563446Y-111208292D01*
X98598005Y-111189820D01*
X98635501Y-111178445D01*
X98680638Y-111174000D01*
X99319362Y-111174000D01*
X99364499Y-111178445D01*
G37*
G36*
X88876500Y-105956500D02*
G01*
X87123500Y-105956500D01*
X87123500Y-104203500D01*
X88876500Y-104203500D01*
X88876500Y-105956500D01*
G37*
G36*
X115981515Y-94963713D02*
G01*
X116496658Y-95066181D01*
X117198140Y-95356745D01*
X117425692Y-95451000D01*
X117430440Y-95452967D01*
X118270822Y-96014492D01*
X118985508Y-96729178D01*
X119547033Y-97569560D01*
X119933819Y-98503342D01*
X119933819Y-98503344D01*
X120131000Y-99494639D01*
X120131000Y-100505361D01*
X120077018Y-100776745D01*
X119933819Y-101496658D01*
X119547033Y-102430440D01*
X118985508Y-103270822D01*
X118270822Y-103985508D01*
X117430440Y-104547033D01*
X116496658Y-104933819D01*
X116001009Y-105032409D01*
X115505361Y-105131000D01*
X114494639Y-105131000D01*
X113998991Y-105032409D01*
X113503342Y-104933819D01*
X112569560Y-104547033D01*
X111729178Y-103985508D01*
X111014492Y-103270822D01*
X110452967Y-102430440D01*
X110066181Y-101496658D01*
X109922982Y-100776745D01*
X109869000Y-100505361D01*
X109869000Y-99494639D01*
X110066181Y-98503344D01*
X110066181Y-98503342D01*
X110452967Y-97569560D01*
X111014492Y-96729178D01*
X111729178Y-96014492D01*
X112569560Y-95452967D01*
X112574309Y-95451000D01*
X112801860Y-95356745D01*
X113503342Y-95066181D01*
X114018485Y-94963713D01*
X114494639Y-94869000D01*
X115505361Y-94869000D01*
X115981515Y-94963713D01*
G37*
G36*
X94876500Y-103416500D02*
G01*
X93123500Y-103416500D01*
X93123500Y-101663500D01*
X94876500Y-101663500D01*
X94876500Y-103416500D01*
G37*
G36*
X88118348Y-101669869D02*
G01*
X88255666Y-101697183D01*
X88288933Y-101710963D01*
X88415177Y-101763255D01*
X88558736Y-101859178D01*
X88680822Y-101981264D01*
X88776745Y-102124823D01*
X88842817Y-102284335D01*
X88876500Y-102453671D01*
X88876500Y-102626329D01*
X88842817Y-102795665D01*
X88776745Y-102955177D01*
X88680822Y-103098736D01*
X88558736Y-103220822D01*
X88415177Y-103316745D01*
X88321738Y-103355449D01*
X88255666Y-103382817D01*
X88170997Y-103399659D01*
X88086329Y-103416500D01*
X87913671Y-103416500D01*
X87829003Y-103399659D01*
X87744334Y-103382817D01*
X87678262Y-103355449D01*
X87584823Y-103316745D01*
X87441264Y-103220822D01*
X87319178Y-103098736D01*
X87223255Y-102955177D01*
X87157183Y-102795665D01*
X87123500Y-102626329D01*
X87123500Y-102453671D01*
X87157183Y-102284335D01*
X87223255Y-102124823D01*
X87319178Y-101981264D01*
X87441264Y-101859178D01*
X87584823Y-101763255D01*
X87711067Y-101710963D01*
X87744334Y-101697183D01*
X87881652Y-101669869D01*
X87913671Y-101663500D01*
X88086329Y-101663500D01*
X88118348Y-101669869D01*
G37*
G36*
X100572798Y-98278247D02*
G01*
X100608367Y-98289037D01*
X100641139Y-98306554D01*
X100669869Y-98330131D01*
X100693446Y-98358861D01*
X100710963Y-98391633D01*
X100721753Y-98427202D01*
X100726000Y-98470325D01*
X100726000Y-101529675D01*
X100721753Y-101572798D01*
X100710963Y-101608367D01*
X100693446Y-101641139D01*
X100669869Y-101669869D01*
X100641139Y-101693446D01*
X100608367Y-101710963D01*
X100572798Y-101721753D01*
X100529675Y-101726000D01*
X99470325Y-101726000D01*
X99427202Y-101721753D01*
X99391633Y-101710963D01*
X99358861Y-101693446D01*
X99330131Y-101669869D01*
X99306554Y-101641139D01*
X99289037Y-101608367D01*
X99278247Y-101572798D01*
X99274000Y-101529675D01*
X99274000Y-98470325D01*
X99278247Y-98427202D01*
X99289037Y-98391633D01*
X99306554Y-98358861D01*
X99330131Y-98330131D01*
X99358861Y-98306554D01*
X99391633Y-98289037D01*
X99427202Y-98278247D01*
X99470325Y-98274000D01*
X100529675Y-98274000D01*
X100572798Y-98278247D01*
G37*
G36*
X106372798Y-98278247D02*
G01*
X106408367Y-98289037D01*
X106441139Y-98306554D01*
X106469869Y-98330131D01*
X106493446Y-98358861D01*
X106510963Y-98391633D01*
X106521753Y-98427202D01*
X106526000Y-98470325D01*
X106526000Y-101529675D01*
X106521753Y-101572798D01*
X106510963Y-101608367D01*
X106493446Y-101641139D01*
X106469869Y-101669869D01*
X106441139Y-101693446D01*
X106408367Y-101710963D01*
X106372798Y-101721753D01*
X106329675Y-101726000D01*
X105270325Y-101726000D01*
X105227202Y-101721753D01*
X105191633Y-101710963D01*
X105158861Y-101693446D01*
X105130131Y-101669869D01*
X105106554Y-101641139D01*
X105089037Y-101608367D01*
X105078247Y-101572798D01*
X105074000Y-101529675D01*
X105074000Y-98470325D01*
X105078247Y-98427202D01*
X105089037Y-98391633D01*
X105106554Y-98358861D01*
X105130131Y-98330131D01*
X105158861Y-98306554D01*
X105191633Y-98289037D01*
X105227202Y-98278247D01*
X105270325Y-98274000D01*
X106329675Y-98274000D01*
X106372798Y-98278247D01*
G37*
G36*
X88170997Y-99140342D02*
G01*
X88255666Y-99157183D01*
X88321738Y-99184551D01*
X88415177Y-99223255D01*
X88558736Y-99319178D01*
X88680822Y-99441264D01*
X88776745Y-99584823D01*
X88842817Y-99744335D01*
X88876500Y-99913671D01*
X88876500Y-100086329D01*
X88842817Y-100255665D01*
X88776745Y-100415177D01*
X88680822Y-100558736D01*
X88558736Y-100680822D01*
X88415177Y-100776745D01*
X88321738Y-100815449D01*
X88255666Y-100842817D01*
X88170997Y-100859658D01*
X88086329Y-100876500D01*
X87913671Y-100876500D01*
X87829003Y-100859659D01*
X87744334Y-100842817D01*
X87678262Y-100815449D01*
X87584823Y-100776745D01*
X87441264Y-100680822D01*
X87319178Y-100558736D01*
X87223255Y-100415177D01*
X87157183Y-100255665D01*
X87123500Y-100086329D01*
X87123500Y-99913671D01*
X87157183Y-99744335D01*
X87223255Y-99584823D01*
X87319178Y-99441264D01*
X87441264Y-99319178D01*
X87584823Y-99223255D01*
X87678262Y-99184551D01*
X87744334Y-99157183D01*
X87829003Y-99140342D01*
X87913671Y-99123500D01*
X88086329Y-99123500D01*
X88170997Y-99140342D01*
G37*
G36*
X94170997Y-99140342D02*
G01*
X94255666Y-99157183D01*
X94321738Y-99184551D01*
X94415177Y-99223255D01*
X94558736Y-99319178D01*
X94680822Y-99441264D01*
X94776745Y-99584823D01*
X94842817Y-99744335D01*
X94876500Y-99913671D01*
X94876500Y-100086329D01*
X94842817Y-100255665D01*
X94776745Y-100415177D01*
X94680822Y-100558736D01*
X94558736Y-100680822D01*
X94415177Y-100776745D01*
X94321738Y-100815449D01*
X94255666Y-100842817D01*
X94170997Y-100859658D01*
X94086329Y-100876500D01*
X93913671Y-100876500D01*
X93829003Y-100859659D01*
X93744334Y-100842817D01*
X93678262Y-100815449D01*
X93584823Y-100776745D01*
X93441264Y-100680822D01*
X93319178Y-100558736D01*
X93223255Y-100415177D01*
X93157183Y-100255665D01*
X93123500Y-100086329D01*
X93123500Y-99913671D01*
X93157183Y-99744335D01*
X93223255Y-99584823D01*
X93319178Y-99441264D01*
X93441264Y-99319178D01*
X93584823Y-99223255D01*
X93678262Y-99184551D01*
X93744334Y-99157183D01*
X93829003Y-99140342D01*
X93913671Y-99123500D01*
X94086329Y-99123500D01*
X94170997Y-99140342D01*
G37*
G36*
X94170997Y-96600341D02*
G01*
X94255666Y-96617183D01*
X94321738Y-96644551D01*
X94415177Y-96683255D01*
X94558736Y-96779178D01*
X94680822Y-96901264D01*
X94776745Y-97044823D01*
X94842817Y-97204335D01*
X94876500Y-97373671D01*
X94876500Y-97546329D01*
X94842817Y-97715665D01*
X94776745Y-97875177D01*
X94680822Y-98018736D01*
X94558736Y-98140822D01*
X94415177Y-98236745D01*
X94325235Y-98274000D01*
X94255666Y-98302817D01*
X94172719Y-98319316D01*
X94086329Y-98336500D01*
X93913671Y-98336500D01*
X93827281Y-98319316D01*
X93744334Y-98302817D01*
X93674765Y-98274000D01*
X93584823Y-98236745D01*
X93441264Y-98140822D01*
X93319178Y-98018736D01*
X93223255Y-97875177D01*
X93157183Y-97715665D01*
X93123500Y-97546329D01*
X93123500Y-97373671D01*
X93157183Y-97204335D01*
X93223255Y-97044823D01*
X93319178Y-96901264D01*
X93441264Y-96779178D01*
X93584823Y-96683255D01*
X93678262Y-96644551D01*
X93744334Y-96617183D01*
X93829003Y-96600341D01*
X93913671Y-96583500D01*
X94086329Y-96583500D01*
X94170997Y-96600341D01*
G37*
G36*
X106155051Y-93726284D02*
G01*
X106171443Y-93731257D01*
X106186555Y-93739334D01*
X106199798Y-93750202D01*
X106210666Y-93763445D01*
X106218743Y-93778557D01*
X106223716Y-93794949D01*
X106226000Y-93818141D01*
X106226000Y-94231859D01*
X106223716Y-94255051D01*
X106218742Y-94271446D01*
X106208249Y-94291078D01*
X106198872Y-94313717D01*
X106194092Y-94337750D01*
X106194092Y-94362254D01*
X106198873Y-94386287D01*
X106208249Y-94408922D01*
X106218742Y-94428554D01*
X106223716Y-94444949D01*
X106226000Y-94468141D01*
X106226000Y-94881859D01*
X106223716Y-94905051D01*
X106218742Y-94921446D01*
X106208249Y-94941078D01*
X106198872Y-94963717D01*
X106194092Y-94987750D01*
X106194092Y-95012254D01*
X106198873Y-95036287D01*
X106208249Y-95058922D01*
X106218742Y-95078554D01*
X106223716Y-95094949D01*
X106226000Y-95118141D01*
X106226000Y-95531859D01*
X106223716Y-95555051D01*
X106218742Y-95571446D01*
X106208249Y-95591078D01*
X106198872Y-95613717D01*
X106194092Y-95637750D01*
X106194092Y-95662254D01*
X106198873Y-95686287D01*
X106208249Y-95708922D01*
X106218742Y-95728554D01*
X106223716Y-95744949D01*
X106226000Y-95768141D01*
X106226000Y-96181859D01*
X106223716Y-96205051D01*
X106218743Y-96221443D01*
X106210666Y-96236555D01*
X106199798Y-96249798D01*
X106186555Y-96260666D01*
X106171443Y-96268743D01*
X106155051Y-96273716D01*
X106131859Y-96276000D01*
X104593141Y-96276000D01*
X104569949Y-96273716D01*
X104553557Y-96268743D01*
X104538445Y-96260666D01*
X104525202Y-96249798D01*
X104514334Y-96236555D01*
X104506257Y-96221443D01*
X104501284Y-96205051D01*
X104499000Y-96181859D01*
X104499000Y-95768141D01*
X104501284Y-95744949D01*
X104506258Y-95728554D01*
X104516751Y-95708922D01*
X104526128Y-95686283D01*
X104530908Y-95662250D01*
X104530908Y-95637746D01*
X104526127Y-95613713D01*
X104516751Y-95591078D01*
X104506258Y-95571446D01*
X104501284Y-95555051D01*
X104499000Y-95531859D01*
X104499000Y-95118141D01*
X104501284Y-95094949D01*
X104506258Y-95078554D01*
X104516751Y-95058922D01*
X104526128Y-95036283D01*
X104530908Y-95012250D01*
X104530908Y-94987746D01*
X104526127Y-94963713D01*
X104516751Y-94941078D01*
X104506258Y-94921446D01*
X104501284Y-94905051D01*
X104499000Y-94881859D01*
X104499000Y-94468141D01*
X104501284Y-94444949D01*
X104506258Y-94428554D01*
X104516751Y-94408922D01*
X104526128Y-94386283D01*
X104530908Y-94362250D01*
X104530908Y-94337746D01*
X104526127Y-94313713D01*
X104516751Y-94291078D01*
X104506258Y-94271446D01*
X104501284Y-94255051D01*
X104499000Y-94231859D01*
X104499000Y-93818141D01*
X104501284Y-93794949D01*
X104506257Y-93778557D01*
X104514334Y-93763445D01*
X104525202Y-93750202D01*
X104538445Y-93739334D01*
X104553557Y-93731257D01*
X104569949Y-93726284D01*
X104593141Y-93724000D01*
X106131859Y-93724000D01*
X106155051Y-93726284D01*
G37*
G36*
X101930051Y-93726284D02*
G01*
X101946443Y-93731257D01*
X101961555Y-93739334D01*
X101974798Y-93750202D01*
X101985666Y-93763445D01*
X101993743Y-93778557D01*
X101998716Y-93794949D01*
X102001000Y-93818141D01*
X102001000Y-94231859D01*
X101998716Y-94255051D01*
X101993742Y-94271446D01*
X101983249Y-94291078D01*
X101973872Y-94313717D01*
X101969092Y-94337750D01*
X101969092Y-94362254D01*
X101973873Y-94386287D01*
X101983249Y-94408922D01*
X101993742Y-94428554D01*
X101998716Y-94444949D01*
X102001000Y-94468141D01*
X102001000Y-94881859D01*
X101998716Y-94905051D01*
X101993742Y-94921446D01*
X101983249Y-94941078D01*
X101973872Y-94963717D01*
X101969092Y-94987750D01*
X101969092Y-95012254D01*
X101973873Y-95036287D01*
X101983249Y-95058922D01*
X101993742Y-95078554D01*
X101998716Y-95094949D01*
X102001000Y-95118141D01*
X102001000Y-95531859D01*
X101998716Y-95555051D01*
X101993742Y-95571446D01*
X101983249Y-95591078D01*
X101973872Y-95613717D01*
X101969092Y-95637750D01*
X101969092Y-95662254D01*
X101973873Y-95686287D01*
X101983249Y-95708922D01*
X101993742Y-95728554D01*
X101998716Y-95744949D01*
X102001000Y-95768141D01*
X102001000Y-96181859D01*
X101998716Y-96205051D01*
X101993743Y-96221443D01*
X101985666Y-96236555D01*
X101974798Y-96249798D01*
X101961555Y-96260666D01*
X101946443Y-96268743D01*
X101930051Y-96273716D01*
X101906859Y-96276000D01*
X100368141Y-96276000D01*
X100344949Y-96273716D01*
X100328557Y-96268743D01*
X100313445Y-96260666D01*
X100300202Y-96249798D01*
X100289334Y-96236555D01*
X100281257Y-96221443D01*
X100276284Y-96205051D01*
X100274000Y-96181859D01*
X100274000Y-95768141D01*
X100276284Y-95744949D01*
X100281258Y-95728554D01*
X100291751Y-95708922D01*
X100301128Y-95686283D01*
X100305908Y-95662250D01*
X100305908Y-95637746D01*
X100301127Y-95613713D01*
X100291751Y-95591078D01*
X100281258Y-95571446D01*
X100276284Y-95555051D01*
X100274000Y-95531859D01*
X100274000Y-95118141D01*
X100276284Y-95094949D01*
X100281258Y-95078554D01*
X100291751Y-95058922D01*
X100301128Y-95036283D01*
X100305908Y-95012250D01*
X100305908Y-94987746D01*
X100301127Y-94963713D01*
X100291751Y-94941078D01*
X100281258Y-94921446D01*
X100276284Y-94905051D01*
X100274000Y-94881859D01*
X100274000Y-94468141D01*
X100276284Y-94444949D01*
X100281258Y-94428554D01*
X100291751Y-94408922D01*
X100301128Y-94386283D01*
X100305908Y-94362250D01*
X100305908Y-94337746D01*
X100301127Y-94313713D01*
X100291751Y-94291078D01*
X100281258Y-94271446D01*
X100276284Y-94255051D01*
X100274000Y-94231859D01*
X100274000Y-93818141D01*
X100276284Y-93794949D01*
X100281257Y-93778557D01*
X100289334Y-93763445D01*
X100300202Y-93750202D01*
X100313445Y-93739334D01*
X100328557Y-93731257D01*
X100344949Y-93726284D01*
X100368141Y-93724000D01*
X101906859Y-93724000D01*
X101930051Y-93726284D01*
G37*
G36*
X67670997Y-93720341D02*
G01*
X67755666Y-93737183D01*
X67785073Y-93749364D01*
X67915177Y-93803255D01*
X68058736Y-93899178D01*
X68180822Y-94021264D01*
X68276745Y-94164823D01*
X68293329Y-94204861D01*
X68342817Y-94324334D01*
X68357741Y-94399364D01*
X68376500Y-94493671D01*
X68376500Y-94666329D01*
X68342817Y-94835665D01*
X68276745Y-94995177D01*
X68180822Y-95138736D01*
X68058736Y-95260822D01*
X67915177Y-95356745D01*
X67830433Y-95391847D01*
X67755666Y-95422817D01*
X67714627Y-95430980D01*
X67586329Y-95456500D01*
X67413671Y-95456500D01*
X67285373Y-95430980D01*
X67244334Y-95422817D01*
X67169567Y-95391847D01*
X67084823Y-95356745D01*
X66941264Y-95260822D01*
X66819178Y-95138736D01*
X66723255Y-94995177D01*
X66657183Y-94835665D01*
X66623500Y-94666329D01*
X66623500Y-94493671D01*
X66642259Y-94399364D01*
X66657183Y-94324334D01*
X66706671Y-94204861D01*
X66723255Y-94164823D01*
X66819178Y-94021264D01*
X66941264Y-93899178D01*
X67084823Y-93803255D01*
X67214927Y-93749364D01*
X67244334Y-93737183D01*
X67329003Y-93720342D01*
X67413671Y-93703500D01*
X67586329Y-93703500D01*
X67670997Y-93720341D01*
G37*
G36*
X99114499Y-94303445D02*
G01*
X99151995Y-94314820D01*
X99186554Y-94333292D01*
X99216847Y-94358153D01*
X99241708Y-94388446D01*
X99260180Y-94423005D01*
X99271555Y-94460501D01*
X99276000Y-94505638D01*
X99276000Y-95244362D01*
X99271555Y-95289499D01*
X99260180Y-95326995D01*
X99241708Y-95361554D01*
X99216847Y-95391847D01*
X99186554Y-95416708D01*
X99151995Y-95435180D01*
X99114499Y-95446555D01*
X99069362Y-95451000D01*
X98430638Y-95451000D01*
X98385501Y-95446555D01*
X98348005Y-95435180D01*
X98313446Y-95416708D01*
X98283153Y-95391847D01*
X98258292Y-95361554D01*
X98239820Y-95326995D01*
X98228445Y-95289499D01*
X98224000Y-95244362D01*
X98224000Y-94505638D01*
X98228445Y-94460501D01*
X98239820Y-94423005D01*
X98258292Y-94388446D01*
X98283153Y-94358153D01*
X98313446Y-94333292D01*
X98348005Y-94314820D01*
X98385501Y-94303445D01*
X98430638Y-94299000D01*
X99069362Y-94299000D01*
X99114499Y-94303445D01*
G37*
G36*
X75376500Y-95376500D02*
G01*
X73623500Y-95376500D01*
X73623500Y-93623500D01*
X75376500Y-93623500D01*
X75376500Y-95376500D01*
G37*
G36*
X99114499Y-92553445D02*
G01*
X99151995Y-92564820D01*
X99186554Y-92583292D01*
X99216847Y-92608153D01*
X99241708Y-92638446D01*
X99260180Y-92673005D01*
X99271555Y-92710501D01*
X99276000Y-92755638D01*
X99276000Y-93494362D01*
X99271555Y-93539499D01*
X99260180Y-93576995D01*
X99241708Y-93611554D01*
X99216847Y-93641847D01*
X99186554Y-93666708D01*
X99151995Y-93685180D01*
X99114499Y-93696555D01*
X99069362Y-93701000D01*
X98430638Y-93701000D01*
X98385501Y-93696555D01*
X98348005Y-93685180D01*
X98313446Y-93666708D01*
X98283153Y-93641847D01*
X98258292Y-93611554D01*
X98239820Y-93576995D01*
X98228445Y-93539499D01*
X98224000Y-93494362D01*
X98224000Y-92755638D01*
X98228445Y-92710501D01*
X98239820Y-92673005D01*
X98258292Y-92638446D01*
X98283153Y-92608153D01*
X98313446Y-92583292D01*
X98348005Y-92564820D01*
X98385501Y-92553445D01*
X98430638Y-92549000D01*
X99069362Y-92549000D01*
X99114499Y-92553445D01*
G37*
G36*
X67670997Y-91180341D02*
G01*
X67755666Y-91197183D01*
X67821738Y-91224551D01*
X67915177Y-91263255D01*
X68058736Y-91359178D01*
X68180822Y-91481264D01*
X68276745Y-91624823D01*
X68342817Y-91784335D01*
X68376500Y-91953671D01*
X68376500Y-92126329D01*
X68342817Y-92295665D01*
X68276745Y-92455177D01*
X68180822Y-92598736D01*
X68058736Y-92720822D01*
X67915177Y-92816745D01*
X67821738Y-92855449D01*
X67755666Y-92882817D01*
X67670997Y-92899659D01*
X67586329Y-92916500D01*
X67413671Y-92916500D01*
X67329003Y-92899659D01*
X67244334Y-92882817D01*
X67178262Y-92855449D01*
X67084823Y-92816745D01*
X66941264Y-92720822D01*
X66819178Y-92598736D01*
X66723255Y-92455177D01*
X66657183Y-92295665D01*
X66623500Y-92126329D01*
X66623500Y-91953671D01*
X66657183Y-91784335D01*
X66723255Y-91624823D01*
X66819178Y-91481264D01*
X66941264Y-91359178D01*
X67084823Y-91263255D01*
X67178262Y-91224551D01*
X67244334Y-91197183D01*
X67329003Y-91180341D01*
X67413671Y-91163500D01*
X67586329Y-91163500D01*
X67670997Y-91180341D01*
G37*
G36*
X74670997Y-91100341D02*
G01*
X74755666Y-91117183D01*
X74821738Y-91144551D01*
X74915177Y-91183255D01*
X75058736Y-91279178D01*
X75180822Y-91401264D01*
X75276745Y-91544823D01*
X75342817Y-91704335D01*
X75376500Y-91873671D01*
X75376500Y-92046329D01*
X75342817Y-92215665D01*
X75276745Y-92375177D01*
X75180822Y-92518736D01*
X75058736Y-92640822D01*
X74915177Y-92736745D01*
X74869565Y-92755638D01*
X74755666Y-92802817D01*
X74709499Y-92812000D01*
X74586329Y-92836500D01*
X74413671Y-92836500D01*
X74290501Y-92812000D01*
X74244334Y-92802817D01*
X74130435Y-92755638D01*
X74084823Y-92736745D01*
X73941264Y-92640822D01*
X73819178Y-92518736D01*
X73723255Y-92375177D01*
X73657183Y-92215665D01*
X73623500Y-92046329D01*
X73623500Y-91873671D01*
X73657183Y-91704335D01*
X73723255Y-91544823D01*
X73819178Y-91401264D01*
X73941264Y-91279178D01*
X74084823Y-91183255D01*
X74178262Y-91144551D01*
X74244334Y-91117183D01*
X74329003Y-91100341D01*
X74413671Y-91083500D01*
X74586329Y-91083500D01*
X74670997Y-91100341D01*
G37*
G36*
X68376500Y-90376500D02*
G01*
X66623500Y-90376500D01*
X66623500Y-88623500D01*
X68376500Y-88623500D01*
X68376500Y-90376500D01*
G37*
G36*
X74670997Y-88560342D02*
G01*
X74755666Y-88577183D01*
X74821738Y-88604551D01*
X74915177Y-88643255D01*
X75058736Y-88739178D01*
X75180822Y-88861264D01*
X75276745Y-89004823D01*
X75342817Y-89164335D01*
X75376500Y-89333671D01*
X75376500Y-89506329D01*
X75342817Y-89675665D01*
X75276745Y-89835177D01*
X75180822Y-89978736D01*
X75058736Y-90100822D01*
X74915177Y-90196745D01*
X74821738Y-90235449D01*
X74755666Y-90262817D01*
X74670997Y-90279659D01*
X74586329Y-90296500D01*
X74413671Y-90296500D01*
X74329003Y-90279659D01*
X74244334Y-90262817D01*
X74178262Y-90235449D01*
X74084823Y-90196745D01*
X73941264Y-90100822D01*
X73819178Y-89978736D01*
X73723255Y-89835177D01*
X73657183Y-89675665D01*
X73623500Y-89506329D01*
X73623500Y-89333671D01*
X73657183Y-89164335D01*
X73723255Y-89004823D01*
X73819178Y-88861264D01*
X73941264Y-88739178D01*
X74084823Y-88643255D01*
X74178262Y-88604551D01*
X74244334Y-88577183D01*
X74329003Y-88560342D01*
X74413671Y-88543500D01*
X74586329Y-88543500D01*
X74670997Y-88560342D01*
G37*
G36*
X118655997Y-86803051D02*
G01*
X118689652Y-86813261D01*
X118720665Y-86829838D01*
X118747851Y-86852149D01*
X118770162Y-86879335D01*
X118786739Y-86910348D01*
X118796949Y-86944003D01*
X118801000Y-86985138D01*
X118801000Y-88314862D01*
X118796949Y-88355997D01*
X118786739Y-88389652D01*
X118770162Y-88420665D01*
X118747851Y-88447851D01*
X118720665Y-88470162D01*
X118689652Y-88486739D01*
X118655997Y-88496949D01*
X118614862Y-88501000D01*
X115885138Y-88501000D01*
X115844003Y-88496949D01*
X115810348Y-88486739D01*
X115779335Y-88470162D01*
X115752149Y-88447851D01*
X115729838Y-88420665D01*
X115713261Y-88389652D01*
X115703051Y-88355997D01*
X115699000Y-88314862D01*
X115699000Y-86985138D01*
X115703051Y-86944003D01*
X115713261Y-86910348D01*
X115729838Y-86879335D01*
X115752149Y-86852149D01*
X115779335Y-86829838D01*
X115810348Y-86813261D01*
X115844003Y-86803051D01*
X115885138Y-86799000D01*
X118614862Y-86799000D01*
X118655997Y-86803051D01*
G37*
G36*
X53442818Y-84107696D02*
G01*
X53556105Y-84142062D01*
X53660512Y-84197869D01*
X53752027Y-84272973D01*
X53827131Y-84364488D01*
X53882938Y-84468895D01*
X53917304Y-84582182D01*
X53926000Y-84670481D01*
X53926000Y-85429519D01*
X53917304Y-85517818D01*
X53882938Y-85631105D01*
X53827131Y-85735512D01*
X53827130Y-85735513D01*
X53752027Y-85827027D01*
X53676923Y-85888662D01*
X53660511Y-85902131D01*
X53556104Y-85957938D01*
X53442817Y-85992304D01*
X53325000Y-86003907D01*
X53207182Y-85992304D01*
X53093895Y-85957938D01*
X52989488Y-85902131D01*
X52975572Y-85890711D01*
X52897973Y-85827027D01*
X52822870Y-85735512D01*
X52814743Y-85720308D01*
X52767062Y-85631104D01*
X52732696Y-85517817D01*
X52724000Y-85429518D01*
X52724000Y-84670481D01*
X52732696Y-84582184D01*
X52752952Y-84515411D01*
X52767063Y-84468895D01*
X52822871Y-84364487D01*
X52897974Y-84272973D01*
X52989488Y-84197870D01*
X52989487Y-84197870D01*
X52989489Y-84197869D01*
X53093896Y-84142062D01*
X53207183Y-84107696D01*
X53325000Y-84096093D01*
X53442818Y-84107696D01*
G37*
G36*
X117629434Y-84703686D02*
G01*
X117669284Y-84715774D01*
X117705999Y-84735399D01*
X117738186Y-84761814D01*
X117764601Y-84794001D01*
X117784226Y-84830716D01*
X117796314Y-84870566D01*
X117801000Y-84918141D01*
X117801000Y-85581859D01*
X117796314Y-85629434D01*
X117784226Y-85669284D01*
X117764601Y-85705999D01*
X117738186Y-85738186D01*
X117705999Y-85764601D01*
X117669284Y-85784226D01*
X117629434Y-85796314D01*
X117581859Y-85801000D01*
X112418141Y-85801000D01*
X112370566Y-85796314D01*
X112330716Y-85784226D01*
X112294001Y-85764601D01*
X112261814Y-85738186D01*
X112235399Y-85705999D01*
X112215774Y-85669284D01*
X112203686Y-85629434D01*
X112199000Y-85581859D01*
X112199000Y-84918141D01*
X112203686Y-84870566D01*
X112215774Y-84830716D01*
X112235399Y-84794001D01*
X112261814Y-84761814D01*
X112294001Y-84735399D01*
X112330716Y-84715774D01*
X112370566Y-84703686D01*
X112418141Y-84699000D01*
X117581859Y-84699000D01*
X117629434Y-84703686D01*
G37*
G36*
X73051000Y-84211000D02*
G01*
X70549000Y-84211000D01*
X70549000Y-83369000D01*
X73051000Y-83369000D01*
X73051000Y-84211000D01*
G37*
G36*
X76951000Y-84211000D02*
G01*
X74449000Y-84211000D01*
X74449000Y-83369000D01*
X76951000Y-83369000D01*
X76951000Y-84211000D01*
G37*
G36*
X53876000Y-83826000D02*
G01*
X52274000Y-83826000D01*
X52274000Y-80674000D01*
X53876000Y-80674000D01*
X53876000Y-83826000D01*
G37*
G36*
X117629434Y-82703686D02*
G01*
X117669284Y-82715774D01*
X117705999Y-82735399D01*
X117738186Y-82761814D01*
X117764601Y-82794001D01*
X117784226Y-82830716D01*
X117796314Y-82870566D01*
X117801000Y-82918141D01*
X117801000Y-83581859D01*
X117796314Y-83629434D01*
X117784226Y-83669284D01*
X117764601Y-83705999D01*
X117738186Y-83738186D01*
X117705999Y-83764601D01*
X117669284Y-83784226D01*
X117629434Y-83796314D01*
X117581859Y-83801000D01*
X112418141Y-83801000D01*
X112370566Y-83796314D01*
X112330716Y-83784226D01*
X112294001Y-83764601D01*
X112261814Y-83738186D01*
X112235399Y-83705999D01*
X112215774Y-83669284D01*
X112203686Y-83629434D01*
X112199000Y-83581859D01*
X112199000Y-82918141D01*
X112203686Y-82870566D01*
X112215774Y-82830716D01*
X112235399Y-82794001D01*
X112261814Y-82761814D01*
X112294001Y-82735399D01*
X112330716Y-82715774D01*
X112370566Y-82703686D01*
X112418141Y-82699000D01*
X117581859Y-82699000D01*
X117629434Y-82703686D01*
G37*
G36*
X51292818Y-81107696D02*
G01*
X51406105Y-81142062D01*
X51510512Y-81197869D01*
X51602027Y-81272973D01*
X51677131Y-81364488D01*
X51732938Y-81468895D01*
X51767304Y-81582182D01*
X51776000Y-81670481D01*
X51776000Y-82829519D01*
X51767304Y-82917818D01*
X51732938Y-83031105D01*
X51677131Y-83135512D01*
X51677130Y-83135513D01*
X51602027Y-83227027D01*
X51544789Y-83274000D01*
X51510511Y-83302131D01*
X51406104Y-83357938D01*
X51292817Y-83392304D01*
X51175000Y-83403907D01*
X51057182Y-83392304D01*
X50943895Y-83357938D01*
X50839488Y-83302131D01*
X50825572Y-83290711D01*
X50747973Y-83227027D01*
X50672870Y-83135512D01*
X50672869Y-83135511D01*
X50617062Y-83031104D01*
X50582696Y-82917817D01*
X50574000Y-82829518D01*
X50574001Y-81670481D01*
X50582697Y-81582182D01*
X50617063Y-81468895D01*
X50672870Y-81364488D01*
X50747974Y-81272973D01*
X50839489Y-81197869D01*
X50943896Y-81142062D01*
X51057183Y-81107696D01*
X51175000Y-81096093D01*
X51292818Y-81107696D01*
G37*
G36*
X76951000Y-82941000D02*
G01*
X74449000Y-82941000D01*
X74449000Y-82099000D01*
X76951000Y-82099000D01*
X76951000Y-82941000D01*
G37*
G36*
X73051000Y-82941000D02*
G01*
X70549000Y-82941000D01*
X70549000Y-82099000D01*
X73051000Y-82099000D01*
X73051000Y-82941000D01*
G37*
G36*
X117629434Y-80703686D02*
G01*
X117669284Y-80715774D01*
X117705999Y-80735399D01*
X117738186Y-80761814D01*
X117764601Y-80794001D01*
X117784226Y-80830716D01*
X117796314Y-80870566D01*
X117801000Y-80918141D01*
X117801000Y-81581859D01*
X117796314Y-81629434D01*
X117784226Y-81669284D01*
X117764601Y-81705999D01*
X117738186Y-81738186D01*
X117705999Y-81764601D01*
X117669284Y-81784226D01*
X117629434Y-81796314D01*
X117581859Y-81801000D01*
X112418141Y-81801000D01*
X112370566Y-81796314D01*
X112330716Y-81784226D01*
X112294001Y-81764601D01*
X112261814Y-81738186D01*
X112235399Y-81705999D01*
X112215774Y-81669284D01*
X112203686Y-81629434D01*
X112199000Y-81581859D01*
X112199000Y-80918141D01*
X112203686Y-80870566D01*
X112215774Y-80830716D01*
X112235399Y-80794001D01*
X112261814Y-80761814D01*
X112294001Y-80735399D01*
X112330716Y-80715774D01*
X112370566Y-80703686D01*
X112418141Y-80699000D01*
X117581859Y-80699000D01*
X117629434Y-80703686D01*
G37*
G36*
X73051000Y-81671000D02*
G01*
X70549000Y-81671000D01*
X70549000Y-80829000D01*
X73051000Y-80829000D01*
X73051000Y-81671000D01*
G37*
G36*
X76951000Y-81671000D02*
G01*
X74449000Y-81671000D01*
X74449000Y-80829000D01*
X76951000Y-80829000D01*
X76951000Y-81671000D01*
G37*
G36*
X99789499Y-79728445D02*
G01*
X99826995Y-79739820D01*
X99861554Y-79758292D01*
X99891847Y-79783153D01*
X99916708Y-79813446D01*
X99935180Y-79848005D01*
X99946555Y-79885501D01*
X99951000Y-79930638D01*
X99951000Y-80569362D01*
X99946555Y-80614499D01*
X99935180Y-80651995D01*
X99916708Y-80686554D01*
X99891847Y-80716847D01*
X99861554Y-80741708D01*
X99826995Y-80760180D01*
X99789499Y-80771555D01*
X99744362Y-80776000D01*
X99005638Y-80776000D01*
X98960501Y-80771555D01*
X98923005Y-80760180D01*
X98888446Y-80741708D01*
X98858153Y-80716847D01*
X98833292Y-80686554D01*
X98814820Y-80651995D01*
X98803445Y-80614499D01*
X98799000Y-80569362D01*
X98799000Y-79930638D01*
X98803445Y-79885501D01*
X98814820Y-79848005D01*
X98833292Y-79813446D01*
X98858153Y-79783153D01*
X98888446Y-79758292D01*
X98923005Y-79739820D01*
X98960501Y-79728445D01*
X99005638Y-79724000D01*
X99744362Y-79724000D01*
X99789499Y-79728445D01*
G37*
G36*
X98039499Y-79728445D02*
G01*
X98076995Y-79739820D01*
X98111554Y-79758292D01*
X98141847Y-79783153D01*
X98166708Y-79813446D01*
X98185180Y-79848005D01*
X98196555Y-79885501D01*
X98201000Y-79930638D01*
X98201000Y-80569362D01*
X98196555Y-80614499D01*
X98185180Y-80651995D01*
X98166708Y-80686554D01*
X98141847Y-80716847D01*
X98111554Y-80741708D01*
X98076995Y-80760180D01*
X98039499Y-80771555D01*
X97994362Y-80776000D01*
X97255638Y-80776000D01*
X97210501Y-80771555D01*
X97173005Y-80760180D01*
X97138446Y-80741708D01*
X97108153Y-80716847D01*
X97083292Y-80686554D01*
X97064820Y-80651995D01*
X97053445Y-80614499D01*
X97049000Y-80569362D01*
X97049000Y-79930638D01*
X97053445Y-79885501D01*
X97064820Y-79848005D01*
X97083292Y-79813446D01*
X97108153Y-79783153D01*
X97138446Y-79758292D01*
X97173005Y-79739820D01*
X97210501Y-79728445D01*
X97255638Y-79724000D01*
X97994362Y-79724000D01*
X98039499Y-79728445D01*
G37*
G36*
X88180051Y-79126284D02*
G01*
X88196443Y-79131257D01*
X88211555Y-79139334D01*
X88224798Y-79150202D01*
X88235667Y-79163447D01*
X88239761Y-79171106D01*
X88253374Y-79191480D01*
X88270701Y-79208807D01*
X88291076Y-79222421D01*
X88313714Y-79231798D01*
X88337748Y-79236579D01*
X88362252Y-79236579D01*
X88386285Y-79231799D01*
X88408924Y-79222421D01*
X88429298Y-79208808D01*
X88446625Y-79191481D01*
X88460239Y-79171106D01*
X88464333Y-79163447D01*
X88475202Y-79150202D01*
X88488445Y-79139334D01*
X88503557Y-79131257D01*
X88519949Y-79126284D01*
X88543141Y-79124000D01*
X88956859Y-79124000D01*
X88980051Y-79126284D01*
X88996443Y-79131257D01*
X89011555Y-79139334D01*
X89024798Y-79150202D01*
X89035667Y-79163447D01*
X89039761Y-79171106D01*
X89053374Y-79191480D01*
X89070701Y-79208807D01*
X89091076Y-79222421D01*
X89113714Y-79231798D01*
X89137748Y-79236579D01*
X89162252Y-79236579D01*
X89186285Y-79231799D01*
X89208924Y-79222421D01*
X89229298Y-79208808D01*
X89246625Y-79191481D01*
X89260239Y-79171106D01*
X89264333Y-79163447D01*
X89275202Y-79150202D01*
X89288445Y-79139334D01*
X89303557Y-79131257D01*
X89319949Y-79126284D01*
X89343141Y-79124000D01*
X89756859Y-79124000D01*
X89780051Y-79126284D01*
X89796443Y-79131257D01*
X89811555Y-79139334D01*
X89824798Y-79150202D01*
X89835667Y-79163447D01*
X89839761Y-79171106D01*
X89853374Y-79191480D01*
X89870701Y-79208807D01*
X89891076Y-79222421D01*
X89913714Y-79231798D01*
X89937748Y-79236579D01*
X89962252Y-79236579D01*
X89986285Y-79231799D01*
X90008924Y-79222421D01*
X90029298Y-79208808D01*
X90046625Y-79191481D01*
X90060239Y-79171106D01*
X90064333Y-79163447D01*
X90075202Y-79150202D01*
X90088445Y-79139334D01*
X90103557Y-79131257D01*
X90119949Y-79126284D01*
X90143141Y-79124000D01*
X90556859Y-79124000D01*
X90580051Y-79126284D01*
X90596443Y-79131257D01*
X90611555Y-79139334D01*
X90624798Y-79150202D01*
X90635667Y-79163447D01*
X90639761Y-79171106D01*
X90653374Y-79191480D01*
X90670701Y-79208807D01*
X90691076Y-79222421D01*
X90713714Y-79231798D01*
X90737748Y-79236579D01*
X90762252Y-79236579D01*
X90786285Y-79231799D01*
X90808924Y-79222421D01*
X90829298Y-79208808D01*
X90846625Y-79191481D01*
X90860239Y-79171106D01*
X90864333Y-79163447D01*
X90875202Y-79150202D01*
X90888445Y-79139334D01*
X90903557Y-79131257D01*
X90919949Y-79126284D01*
X90943141Y-79124000D01*
X91356859Y-79124000D01*
X91380051Y-79126284D01*
X91396443Y-79131257D01*
X91411555Y-79139334D01*
X91424798Y-79150202D01*
X91435667Y-79163447D01*
X91439761Y-79171106D01*
X91453374Y-79191480D01*
X91470701Y-79208807D01*
X91491076Y-79222421D01*
X91513714Y-79231798D01*
X91537748Y-79236579D01*
X91562252Y-79236579D01*
X91586285Y-79231799D01*
X91608924Y-79222421D01*
X91629298Y-79208808D01*
X91646625Y-79191481D01*
X91660239Y-79171106D01*
X91664333Y-79163447D01*
X91675202Y-79150202D01*
X91688445Y-79139334D01*
X91703557Y-79131257D01*
X91719949Y-79126284D01*
X91743141Y-79124000D01*
X92156859Y-79124000D01*
X92180051Y-79126284D01*
X92196443Y-79131257D01*
X92211555Y-79139334D01*
X92224798Y-79150202D01*
X92235667Y-79163447D01*
X92239761Y-79171106D01*
X92253374Y-79191480D01*
X92270701Y-79208807D01*
X92291076Y-79222421D01*
X92313714Y-79231798D01*
X92337748Y-79236579D01*
X92362252Y-79236579D01*
X92386285Y-79231799D01*
X92408924Y-79222421D01*
X92429298Y-79208808D01*
X92446625Y-79191481D01*
X92460239Y-79171106D01*
X92464333Y-79163447D01*
X92475202Y-79150202D01*
X92488445Y-79139334D01*
X92503557Y-79131257D01*
X92519949Y-79126284D01*
X92543141Y-79124000D01*
X92956859Y-79124000D01*
X92980051Y-79126284D01*
X92996443Y-79131257D01*
X93011555Y-79139334D01*
X93024798Y-79150202D01*
X93035667Y-79163447D01*
X93039761Y-79171106D01*
X93053374Y-79191480D01*
X93070701Y-79208807D01*
X93091076Y-79222421D01*
X93113714Y-79231798D01*
X93137748Y-79236579D01*
X93162252Y-79236579D01*
X93186285Y-79231799D01*
X93208924Y-79222421D01*
X93229298Y-79208808D01*
X93246625Y-79191481D01*
X93260239Y-79171106D01*
X93264333Y-79163447D01*
X93275202Y-79150202D01*
X93288445Y-79139334D01*
X93303557Y-79131257D01*
X93319949Y-79126284D01*
X93343141Y-79124000D01*
X93756859Y-79124000D01*
X93780051Y-79126284D01*
X93796443Y-79131257D01*
X93811555Y-79139334D01*
X93824798Y-79150202D01*
X93835666Y-79163445D01*
X93843743Y-79178557D01*
X93848716Y-79194949D01*
X93851000Y-79218141D01*
X93851000Y-80631859D01*
X93848716Y-80655051D01*
X93843743Y-80671443D01*
X93835666Y-80686555D01*
X93824798Y-80699798D01*
X93811555Y-80710666D01*
X93796443Y-80718743D01*
X93780051Y-80723716D01*
X93756859Y-80726000D01*
X93343141Y-80726000D01*
X93319949Y-80723716D01*
X93303557Y-80718743D01*
X93288445Y-80710666D01*
X93275202Y-80699798D01*
X93264333Y-80686553D01*
X93260239Y-80678894D01*
X93246626Y-80658520D01*
X93229299Y-80641193D01*
X93208924Y-80627579D01*
X93186286Y-80618202D01*
X93162252Y-80613421D01*
X93137748Y-80613421D01*
X93113715Y-80618201D01*
X93091076Y-80627579D01*
X93070702Y-80641192D01*
X93053375Y-80658519D01*
X93039761Y-80678894D01*
X93035667Y-80686553D01*
X93024798Y-80699798D01*
X93011555Y-80710666D01*
X92996443Y-80718743D01*
X92980051Y-80723716D01*
X92956859Y-80726000D01*
X92543141Y-80726000D01*
X92519949Y-80723716D01*
X92503557Y-80718743D01*
X92488445Y-80710666D01*
X92475202Y-80699798D01*
X92464333Y-80686553D01*
X92460239Y-80678894D01*
X92446626Y-80658520D01*
X92429299Y-80641193D01*
X92408924Y-80627579D01*
X92386286Y-80618202D01*
X92362252Y-80613421D01*
X92337748Y-80613421D01*
X92313715Y-80618201D01*
X92291076Y-80627579D01*
X92270702Y-80641192D01*
X92253375Y-80658519D01*
X92239761Y-80678894D01*
X92235667Y-80686553D01*
X92224798Y-80699798D01*
X92211555Y-80710666D01*
X92196443Y-80718743D01*
X92180051Y-80723716D01*
X92156859Y-80726000D01*
X91743141Y-80726000D01*
X91719949Y-80723716D01*
X91703557Y-80718743D01*
X91688445Y-80710666D01*
X91675202Y-80699798D01*
X91664333Y-80686553D01*
X91660239Y-80678894D01*
X91646626Y-80658520D01*
X91629299Y-80641193D01*
X91608924Y-80627579D01*
X91586286Y-80618202D01*
X91562252Y-80613421D01*
X91537748Y-80613421D01*
X91513715Y-80618201D01*
X91491076Y-80627579D01*
X91470702Y-80641192D01*
X91453375Y-80658519D01*
X91439761Y-80678894D01*
X91435667Y-80686553D01*
X91424798Y-80699798D01*
X91411555Y-80710666D01*
X91396443Y-80718743D01*
X91380051Y-80723716D01*
X91356859Y-80726000D01*
X90943141Y-80726000D01*
X90919949Y-80723716D01*
X90903557Y-80718743D01*
X90888445Y-80710666D01*
X90875202Y-80699798D01*
X90864333Y-80686553D01*
X90860239Y-80678894D01*
X90846626Y-80658520D01*
X90829299Y-80641193D01*
X90808924Y-80627579D01*
X90786286Y-80618202D01*
X90762252Y-80613421D01*
X90737748Y-80613421D01*
X90713715Y-80618201D01*
X90691076Y-80627579D01*
X90670702Y-80641192D01*
X90653375Y-80658519D01*
X90639761Y-80678894D01*
X90635667Y-80686553D01*
X90624798Y-80699798D01*
X90611555Y-80710666D01*
X90596443Y-80718743D01*
X90580051Y-80723716D01*
X90556859Y-80726000D01*
X90143141Y-80726000D01*
X90119949Y-80723716D01*
X90103557Y-80718743D01*
X90088445Y-80710666D01*
X90075202Y-80699798D01*
X90064333Y-80686553D01*
X90060239Y-80678894D01*
X90046626Y-80658520D01*
X90029299Y-80641193D01*
X90008924Y-80627579D01*
X89986286Y-80618202D01*
X89962252Y-80613421D01*
X89937748Y-80613421D01*
X89913715Y-80618201D01*
X89891076Y-80627579D01*
X89870702Y-80641192D01*
X89853375Y-80658519D01*
X89839761Y-80678894D01*
X89835667Y-80686553D01*
X89824798Y-80699798D01*
X89811555Y-80710666D01*
X89796443Y-80718743D01*
X89780051Y-80723716D01*
X89756859Y-80726000D01*
X89343141Y-80726000D01*
X89319949Y-80723716D01*
X89303557Y-80718743D01*
X89288445Y-80710666D01*
X89275202Y-80699798D01*
X89264333Y-80686553D01*
X89260239Y-80678894D01*
X89246626Y-80658520D01*
X89229299Y-80641193D01*
X89208924Y-80627579D01*
X89186286Y-80618202D01*
X89162252Y-80613421D01*
X89137748Y-80613421D01*
X89113715Y-80618201D01*
X89091076Y-80627579D01*
X89070702Y-80641192D01*
X89053375Y-80658519D01*
X89039761Y-80678894D01*
X89035667Y-80686553D01*
X89024798Y-80699798D01*
X89011555Y-80710666D01*
X88996443Y-80718743D01*
X88980051Y-80723716D01*
X88956859Y-80726000D01*
X88543141Y-80726000D01*
X88519949Y-80723716D01*
X88503557Y-80718743D01*
X88488445Y-80710666D01*
X88475202Y-80699798D01*
X88464333Y-80686553D01*
X88460239Y-80678894D01*
X88446626Y-80658520D01*
X88429299Y-80641193D01*
X88408924Y-80627579D01*
X88386286Y-80618202D01*
X88362252Y-80613421D01*
X88337748Y-80613421D01*
X88313715Y-80618201D01*
X88291076Y-80627579D01*
X88270702Y-80641192D01*
X88253375Y-80658519D01*
X88239761Y-80678894D01*
X88235667Y-80686553D01*
X88224798Y-80699798D01*
X88211555Y-80710666D01*
X88196443Y-80718743D01*
X88180051Y-80723716D01*
X88156859Y-80726000D01*
X87743141Y-80726000D01*
X87719949Y-80723716D01*
X87703557Y-80718743D01*
X87688445Y-80710666D01*
X87675202Y-80699798D01*
X87664334Y-80686555D01*
X87656257Y-80671443D01*
X87651284Y-80655051D01*
X87649000Y-80631859D01*
X87649000Y-79218141D01*
X87651284Y-79194949D01*
X87656257Y-79178557D01*
X87664334Y-79163445D01*
X87675202Y-79150202D01*
X87688445Y-79139334D01*
X87703557Y-79131257D01*
X87719949Y-79126284D01*
X87743141Y-79124000D01*
X88156859Y-79124000D01*
X88180051Y-79126284D01*
G37*
G36*
X53442818Y-78507696D02*
G01*
X53556105Y-78542062D01*
X53660512Y-78597869D01*
X53752027Y-78672973D01*
X53827131Y-78764488D01*
X53882938Y-78868895D01*
X53917304Y-78982182D01*
X53926000Y-79070481D01*
X53926000Y-79829519D01*
X53917304Y-79917818D01*
X53882938Y-80031105D01*
X53827131Y-80135512D01*
X53827130Y-80135513D01*
X53752027Y-80227027D01*
X53676923Y-80288662D01*
X53660511Y-80302131D01*
X53556104Y-80357938D01*
X53442817Y-80392304D01*
X53325000Y-80403907D01*
X53207182Y-80392304D01*
X53093895Y-80357938D01*
X52989488Y-80302131D01*
X52975572Y-80290711D01*
X52897973Y-80227027D01*
X52822870Y-80135512D01*
X52822869Y-80135511D01*
X52767062Y-80031104D01*
X52732696Y-79917817D01*
X52724000Y-79829518D01*
X52724000Y-79070481D01*
X52732696Y-78982184D01*
X52757022Y-78901995D01*
X52767063Y-78868895D01*
X52807095Y-78794001D01*
X52822870Y-78764488D01*
X52897974Y-78672973D01*
X52989489Y-78597869D01*
X53093896Y-78542062D01*
X53207183Y-78507696D01*
X53325000Y-78496093D01*
X53442818Y-78507696D01*
G37*
G36*
X76951000Y-80401000D02*
G01*
X74449000Y-80401000D01*
X74449000Y-79559000D01*
X76951000Y-79559000D01*
X76951000Y-80401000D01*
G37*
G36*
X73051000Y-80401000D02*
G01*
X70549000Y-80401000D01*
X70549000Y-79559000D01*
X73051000Y-79559000D01*
X73051000Y-80401000D01*
G37*
G36*
X117629434Y-78703686D02*
G01*
X117669284Y-78715774D01*
X117705999Y-78735399D01*
X117738186Y-78761814D01*
X117764601Y-78794001D01*
X117784226Y-78830716D01*
X117796314Y-78870566D01*
X117801000Y-78918141D01*
X117801000Y-79581859D01*
X117796314Y-79629434D01*
X117784226Y-79669284D01*
X117764601Y-79705999D01*
X117738186Y-79738186D01*
X117705999Y-79764601D01*
X117669284Y-79784226D01*
X117629434Y-79796314D01*
X117581859Y-79801000D01*
X112418141Y-79801000D01*
X112370566Y-79796314D01*
X112330716Y-79784226D01*
X112294001Y-79764601D01*
X112261814Y-79738186D01*
X112235399Y-79705999D01*
X112215774Y-79669284D01*
X112203686Y-79629434D01*
X112199000Y-79581859D01*
X112199000Y-78918141D01*
X112203686Y-78870566D01*
X112215774Y-78830716D01*
X112235399Y-78794001D01*
X112261814Y-78761814D01*
X112294001Y-78735399D01*
X112330716Y-78715774D01*
X112370566Y-78703686D01*
X112418141Y-78699000D01*
X117581859Y-78699000D01*
X117629434Y-78703686D01*
G37*
G36*
X76951000Y-79131000D02*
G01*
X74449000Y-79131000D01*
X74449000Y-78289000D01*
X76951000Y-78289000D01*
X76951000Y-79131000D01*
G37*
G36*
X73051000Y-79131000D02*
G01*
X70549000Y-79131000D01*
X70549000Y-78289000D01*
X73051000Y-78289000D01*
X73051000Y-79131000D01*
G37*
G36*
X98039499Y-77978445D02*
G01*
X98076995Y-77989820D01*
X98111554Y-78008292D01*
X98141847Y-78033153D01*
X98166708Y-78063446D01*
X98185180Y-78098005D01*
X98196555Y-78135501D01*
X98201000Y-78180638D01*
X98201000Y-78819362D01*
X98196555Y-78864499D01*
X98185180Y-78901995D01*
X98166708Y-78936554D01*
X98141847Y-78966847D01*
X98111554Y-78991708D01*
X98076995Y-79010180D01*
X98039499Y-79021555D01*
X97994362Y-79026000D01*
X97255638Y-79026000D01*
X97210501Y-79021555D01*
X97173005Y-79010180D01*
X97138446Y-78991708D01*
X97108153Y-78966847D01*
X97083292Y-78936554D01*
X97064820Y-78901995D01*
X97053445Y-78864499D01*
X97049000Y-78819362D01*
X97049000Y-78180638D01*
X97053445Y-78135501D01*
X97064820Y-78098005D01*
X97083292Y-78063446D01*
X97108153Y-78033153D01*
X97138446Y-78008292D01*
X97173005Y-77989820D01*
X97210501Y-77978445D01*
X97255638Y-77974000D01*
X97994362Y-77974000D01*
X98039499Y-77978445D01*
G37*
G36*
X99789499Y-77978445D02*
G01*
X99826995Y-77989820D01*
X99861554Y-78008292D01*
X99891847Y-78033153D01*
X99916708Y-78063446D01*
X99935180Y-78098005D01*
X99946555Y-78135501D01*
X99951000Y-78180638D01*
X99951000Y-78819362D01*
X99946555Y-78864499D01*
X99935180Y-78901995D01*
X99916708Y-78936554D01*
X99891847Y-78966847D01*
X99861554Y-78991708D01*
X99826995Y-79010180D01*
X99789499Y-79021555D01*
X99744362Y-79026000D01*
X99005638Y-79026000D01*
X98960501Y-79021555D01*
X98923005Y-79010180D01*
X98888446Y-78991708D01*
X98858153Y-78966847D01*
X98833292Y-78936554D01*
X98814820Y-78901995D01*
X98803445Y-78864499D01*
X98799000Y-78819362D01*
X98799000Y-78180638D01*
X98803445Y-78135501D01*
X98814820Y-78098005D01*
X98833292Y-78063446D01*
X98858153Y-78033153D01*
X98888446Y-78008292D01*
X98923005Y-77989820D01*
X98960501Y-77978445D01*
X99005638Y-77974000D01*
X99744362Y-77974000D01*
X99789499Y-77978445D01*
G37*
G36*
X87305051Y-72651284D02*
G01*
X87321443Y-72656257D01*
X87336555Y-72664334D01*
X87349798Y-72675202D01*
X87360666Y-72688445D01*
X87368743Y-72703557D01*
X87373716Y-72719949D01*
X87376000Y-72743141D01*
X87376000Y-73156859D01*
X87373716Y-73180051D01*
X87368743Y-73196443D01*
X87360666Y-73211555D01*
X87349798Y-73224798D01*
X87336553Y-73235667D01*
X87328894Y-73239761D01*
X87308520Y-73253374D01*
X87291193Y-73270701D01*
X87277579Y-73291076D01*
X87268202Y-73313714D01*
X87263421Y-73337748D01*
X87263421Y-73362252D01*
X87268201Y-73386285D01*
X87277579Y-73408924D01*
X87291192Y-73429298D01*
X87308519Y-73446625D01*
X87328894Y-73460239D01*
X87336553Y-73464333D01*
X87349798Y-73475202D01*
X87360666Y-73488445D01*
X87368743Y-73503557D01*
X87373716Y-73519949D01*
X87376000Y-73543141D01*
X87376000Y-73956859D01*
X87373716Y-73980051D01*
X87368743Y-73996443D01*
X87360666Y-74011555D01*
X87349798Y-74024798D01*
X87336553Y-74035667D01*
X87328894Y-74039761D01*
X87308520Y-74053374D01*
X87291193Y-74070701D01*
X87277579Y-74091076D01*
X87268202Y-74113714D01*
X87263421Y-74137748D01*
X87263421Y-74162252D01*
X87268201Y-74186285D01*
X87277579Y-74208924D01*
X87291192Y-74229298D01*
X87308519Y-74246625D01*
X87328894Y-74260239D01*
X87336553Y-74264333D01*
X87349798Y-74275202D01*
X87360666Y-74288445D01*
X87368743Y-74303557D01*
X87373716Y-74319949D01*
X87376000Y-74343141D01*
X87376000Y-74756859D01*
X87373716Y-74780051D01*
X87368743Y-74796443D01*
X87360666Y-74811555D01*
X87349798Y-74824798D01*
X87336553Y-74835667D01*
X87328894Y-74839761D01*
X87308520Y-74853374D01*
X87291193Y-74870701D01*
X87277579Y-74891076D01*
X87268202Y-74913714D01*
X87263421Y-74937748D01*
X87263421Y-74962252D01*
X87268201Y-74986285D01*
X87277579Y-75008924D01*
X87291192Y-75029298D01*
X87308519Y-75046625D01*
X87328894Y-75060239D01*
X87336553Y-75064333D01*
X87349798Y-75075202D01*
X87360666Y-75088445D01*
X87368743Y-75103557D01*
X87373716Y-75119949D01*
X87376000Y-75143141D01*
X87376000Y-75556859D01*
X87373716Y-75580051D01*
X87368743Y-75596443D01*
X87360666Y-75611555D01*
X87349798Y-75624798D01*
X87336553Y-75635667D01*
X87328894Y-75639761D01*
X87308520Y-75653374D01*
X87291193Y-75670701D01*
X87277579Y-75691076D01*
X87268202Y-75713714D01*
X87263421Y-75737748D01*
X87263421Y-75762252D01*
X87268201Y-75786285D01*
X87277579Y-75808924D01*
X87291192Y-75829298D01*
X87308519Y-75846625D01*
X87328894Y-75860239D01*
X87336553Y-75864333D01*
X87349798Y-75875202D01*
X87360666Y-75888445D01*
X87368743Y-75903557D01*
X87373716Y-75919949D01*
X87376000Y-75943141D01*
X87376000Y-76356859D01*
X87373716Y-76380051D01*
X87368743Y-76396443D01*
X87360666Y-76411555D01*
X87349798Y-76424798D01*
X87336553Y-76435667D01*
X87328894Y-76439761D01*
X87308520Y-76453374D01*
X87291193Y-76470701D01*
X87277579Y-76491076D01*
X87268202Y-76513714D01*
X87263421Y-76537748D01*
X87263421Y-76562252D01*
X87268201Y-76586285D01*
X87277579Y-76608924D01*
X87291192Y-76629298D01*
X87308519Y-76646625D01*
X87328894Y-76660239D01*
X87336553Y-76664333D01*
X87349798Y-76675202D01*
X87360666Y-76688445D01*
X87368743Y-76703557D01*
X87373716Y-76719949D01*
X87376000Y-76743141D01*
X87376000Y-77156859D01*
X87373716Y-77180051D01*
X87368743Y-77196443D01*
X87360666Y-77211555D01*
X87349798Y-77224798D01*
X87336553Y-77235667D01*
X87328894Y-77239761D01*
X87308520Y-77253374D01*
X87291193Y-77270701D01*
X87277579Y-77291076D01*
X87268202Y-77313714D01*
X87263421Y-77337748D01*
X87263421Y-77362252D01*
X87268201Y-77386285D01*
X87277579Y-77408924D01*
X87291192Y-77429298D01*
X87308519Y-77446625D01*
X87328894Y-77460239D01*
X87336553Y-77464333D01*
X87349798Y-77475202D01*
X87360666Y-77488445D01*
X87368743Y-77503557D01*
X87373716Y-77519949D01*
X87376000Y-77543141D01*
X87376000Y-77956859D01*
X87373716Y-77980051D01*
X87368743Y-77996443D01*
X87360666Y-78011555D01*
X87349798Y-78024798D01*
X87336553Y-78035667D01*
X87328894Y-78039761D01*
X87308520Y-78053374D01*
X87291193Y-78070701D01*
X87277579Y-78091076D01*
X87268202Y-78113714D01*
X87263421Y-78137748D01*
X87263421Y-78162252D01*
X87268201Y-78186285D01*
X87277579Y-78208924D01*
X87291192Y-78229298D01*
X87308519Y-78246625D01*
X87328894Y-78260239D01*
X87336553Y-78264333D01*
X87349798Y-78275202D01*
X87360666Y-78288445D01*
X87368743Y-78303557D01*
X87373716Y-78319949D01*
X87376000Y-78343141D01*
X87376000Y-78756859D01*
X87373716Y-78780051D01*
X87368743Y-78796443D01*
X87360666Y-78811555D01*
X87349798Y-78824798D01*
X87336555Y-78835666D01*
X87321443Y-78843743D01*
X87305051Y-78848716D01*
X87281859Y-78851000D01*
X85868141Y-78851000D01*
X85844949Y-78848716D01*
X85828557Y-78843743D01*
X85813445Y-78835666D01*
X85800202Y-78824798D01*
X85789334Y-78811555D01*
X85781257Y-78796443D01*
X85776284Y-78780051D01*
X85774000Y-78756859D01*
X85774000Y-78343141D01*
X85776284Y-78319949D01*
X85781257Y-78303557D01*
X85789334Y-78288445D01*
X85800202Y-78275202D01*
X85813447Y-78264333D01*
X85821106Y-78260239D01*
X85841480Y-78246626D01*
X85858807Y-78229299D01*
X85872421Y-78208924D01*
X85881798Y-78186286D01*
X85886579Y-78162252D01*
X85886579Y-78137748D01*
X85881799Y-78113715D01*
X85872421Y-78091076D01*
X85858808Y-78070702D01*
X85841481Y-78053375D01*
X85821106Y-78039761D01*
X85813447Y-78035667D01*
X85800202Y-78024798D01*
X85789334Y-78011555D01*
X85781257Y-77996443D01*
X85776284Y-77980051D01*
X85774000Y-77956859D01*
X85774000Y-77543141D01*
X85776284Y-77519949D01*
X85781257Y-77503557D01*
X85789334Y-77488445D01*
X85800202Y-77475202D01*
X85813447Y-77464333D01*
X85821106Y-77460239D01*
X85841480Y-77446626D01*
X85858807Y-77429299D01*
X85872421Y-77408924D01*
X85881798Y-77386286D01*
X85886579Y-77362252D01*
X85886579Y-77337748D01*
X85881799Y-77313715D01*
X85872421Y-77291076D01*
X85858808Y-77270702D01*
X85841481Y-77253375D01*
X85821106Y-77239761D01*
X85813447Y-77235667D01*
X85800202Y-77224798D01*
X85789334Y-77211555D01*
X85781257Y-77196443D01*
X85776284Y-77180051D01*
X85774000Y-77156859D01*
X85774000Y-76743141D01*
X85776284Y-76719949D01*
X85781257Y-76703557D01*
X85789334Y-76688445D01*
X85800202Y-76675202D01*
X85813447Y-76664333D01*
X85821106Y-76660239D01*
X85841480Y-76646626D01*
X85858807Y-76629299D01*
X85872421Y-76608924D01*
X85881798Y-76586286D01*
X85886579Y-76562252D01*
X85886579Y-76537748D01*
X85881799Y-76513715D01*
X85872421Y-76491076D01*
X85858808Y-76470702D01*
X85841481Y-76453375D01*
X85821106Y-76439761D01*
X85813447Y-76435667D01*
X85800202Y-76424798D01*
X85789334Y-76411555D01*
X85781257Y-76396443D01*
X85776284Y-76380051D01*
X85774000Y-76356859D01*
X85774000Y-75943141D01*
X85776284Y-75919949D01*
X85781257Y-75903557D01*
X85789334Y-75888445D01*
X85800202Y-75875202D01*
X85813447Y-75864333D01*
X85821106Y-75860239D01*
X85841480Y-75846626D01*
X85858807Y-75829299D01*
X85872421Y-75808924D01*
X85881798Y-75786286D01*
X85886579Y-75762252D01*
X85886579Y-75737748D01*
X85881799Y-75713715D01*
X85872421Y-75691076D01*
X85858808Y-75670702D01*
X85841481Y-75653375D01*
X85821106Y-75639761D01*
X85813447Y-75635667D01*
X85800202Y-75624798D01*
X85789334Y-75611555D01*
X85781257Y-75596443D01*
X85776284Y-75580051D01*
X85774000Y-75556859D01*
X85774000Y-75143141D01*
X85776284Y-75119949D01*
X85781257Y-75103557D01*
X85789334Y-75088445D01*
X85800202Y-75075202D01*
X85813447Y-75064333D01*
X85821106Y-75060239D01*
X85841480Y-75046626D01*
X85858807Y-75029299D01*
X85872421Y-75008924D01*
X85881798Y-74986286D01*
X85886579Y-74962252D01*
X85886579Y-74937748D01*
X85881799Y-74913715D01*
X85872421Y-74891076D01*
X85858808Y-74870702D01*
X85841481Y-74853375D01*
X85821106Y-74839761D01*
X85813447Y-74835667D01*
X85800202Y-74824798D01*
X85789334Y-74811555D01*
X85781257Y-74796443D01*
X85776284Y-74780051D01*
X85774000Y-74756859D01*
X85774000Y-74343141D01*
X85776284Y-74319949D01*
X85781257Y-74303557D01*
X85789334Y-74288445D01*
X85800202Y-74275202D01*
X85813447Y-74264333D01*
X85821106Y-74260239D01*
X85841480Y-74246626D01*
X85858807Y-74229299D01*
X85872421Y-74208924D01*
X85881798Y-74186286D01*
X85886579Y-74162252D01*
X85886579Y-74137748D01*
X85881799Y-74113715D01*
X85872421Y-74091076D01*
X85858808Y-74070702D01*
X85841481Y-74053375D01*
X85821106Y-74039761D01*
X85813447Y-74035667D01*
X85800202Y-74024798D01*
X85789334Y-74011555D01*
X85781257Y-73996443D01*
X85776284Y-73980051D01*
X85774000Y-73956859D01*
X85774000Y-73543141D01*
X85776284Y-73519949D01*
X85781257Y-73503557D01*
X85789334Y-73488445D01*
X85800202Y-73475202D01*
X85813447Y-73464333D01*
X85821106Y-73460239D01*
X85841480Y-73446626D01*
X85858807Y-73429299D01*
X85872421Y-73408924D01*
X85881798Y-73386286D01*
X85886579Y-73362252D01*
X85886579Y-73337748D01*
X85881799Y-73313715D01*
X85872421Y-73291076D01*
X85858808Y-73270702D01*
X85841481Y-73253375D01*
X85821106Y-73239761D01*
X85813447Y-73235667D01*
X85800202Y-73224798D01*
X85789334Y-73211555D01*
X85781257Y-73196443D01*
X85776284Y-73180051D01*
X85774000Y-73156859D01*
X85774000Y-72743141D01*
X85776284Y-72719949D01*
X85781257Y-72703557D01*
X85789334Y-72688445D01*
X85800202Y-72675202D01*
X85813445Y-72664334D01*
X85828557Y-72656257D01*
X85844949Y-72651284D01*
X85868141Y-72649000D01*
X87281859Y-72649000D01*
X87305051Y-72651284D01*
G37*
G36*
X95655051Y-72651284D02*
G01*
X95671443Y-72656257D01*
X95686555Y-72664334D01*
X95699798Y-72675202D01*
X95710666Y-72688445D01*
X95718743Y-72703557D01*
X95723716Y-72719949D01*
X95726000Y-72743141D01*
X95726000Y-73156859D01*
X95723716Y-73180051D01*
X95718743Y-73196443D01*
X95710666Y-73211555D01*
X95699798Y-73224798D01*
X95686553Y-73235667D01*
X95678894Y-73239761D01*
X95658520Y-73253374D01*
X95641193Y-73270701D01*
X95627579Y-73291076D01*
X95618202Y-73313714D01*
X95613421Y-73337748D01*
X95613421Y-73362252D01*
X95618201Y-73386285D01*
X95627579Y-73408924D01*
X95641192Y-73429298D01*
X95658519Y-73446625D01*
X95678894Y-73460239D01*
X95686553Y-73464333D01*
X95699798Y-73475202D01*
X95710666Y-73488445D01*
X95718743Y-73503557D01*
X95723716Y-73519949D01*
X95726000Y-73543141D01*
X95726000Y-73956859D01*
X95723716Y-73980051D01*
X95718743Y-73996443D01*
X95710666Y-74011555D01*
X95699798Y-74024798D01*
X95686553Y-74035667D01*
X95678894Y-74039761D01*
X95658520Y-74053374D01*
X95641193Y-74070701D01*
X95627579Y-74091076D01*
X95618202Y-74113714D01*
X95613421Y-74137748D01*
X95613421Y-74162252D01*
X95618201Y-74186285D01*
X95627579Y-74208924D01*
X95641192Y-74229298D01*
X95658519Y-74246625D01*
X95678894Y-74260239D01*
X95686553Y-74264333D01*
X95699798Y-74275202D01*
X95710666Y-74288445D01*
X95718743Y-74303557D01*
X95723716Y-74319949D01*
X95726000Y-74343141D01*
X95726000Y-74756859D01*
X95723716Y-74780051D01*
X95718743Y-74796443D01*
X95710666Y-74811555D01*
X95699798Y-74824798D01*
X95686553Y-74835667D01*
X95678894Y-74839761D01*
X95658520Y-74853374D01*
X95641193Y-74870701D01*
X95627579Y-74891076D01*
X95618202Y-74913714D01*
X95613421Y-74937748D01*
X95613421Y-74962252D01*
X95618201Y-74986285D01*
X95627579Y-75008924D01*
X95641192Y-75029298D01*
X95658519Y-75046625D01*
X95678894Y-75060239D01*
X95686553Y-75064333D01*
X95699798Y-75075202D01*
X95710666Y-75088445D01*
X95718743Y-75103557D01*
X95723716Y-75119949D01*
X95726000Y-75143141D01*
X95726000Y-75556859D01*
X95723716Y-75580051D01*
X95718743Y-75596443D01*
X95710666Y-75611555D01*
X95699798Y-75624798D01*
X95686553Y-75635667D01*
X95678894Y-75639761D01*
X95658520Y-75653374D01*
X95641193Y-75670701D01*
X95627579Y-75691076D01*
X95618202Y-75713714D01*
X95613421Y-75737748D01*
X95613421Y-75762252D01*
X95618201Y-75786285D01*
X95627579Y-75808924D01*
X95641192Y-75829298D01*
X95658519Y-75846625D01*
X95678894Y-75860239D01*
X95686553Y-75864333D01*
X95699798Y-75875202D01*
X95710666Y-75888445D01*
X95718743Y-75903557D01*
X95723716Y-75919949D01*
X95726000Y-75943141D01*
X95726000Y-76356859D01*
X95723716Y-76380051D01*
X95718743Y-76396443D01*
X95710666Y-76411555D01*
X95699798Y-76424798D01*
X95686553Y-76435667D01*
X95678894Y-76439761D01*
X95658520Y-76453374D01*
X95641193Y-76470701D01*
X95627579Y-76491076D01*
X95618202Y-76513714D01*
X95613421Y-76537748D01*
X95613421Y-76562252D01*
X95618201Y-76586285D01*
X95627579Y-76608924D01*
X95641192Y-76629298D01*
X95658519Y-76646625D01*
X95678894Y-76660239D01*
X95686553Y-76664333D01*
X95699798Y-76675202D01*
X95710666Y-76688445D01*
X95718743Y-76703557D01*
X95723716Y-76719949D01*
X95726000Y-76743141D01*
X95726000Y-77156859D01*
X95723716Y-77180051D01*
X95718743Y-77196443D01*
X95710666Y-77211555D01*
X95699798Y-77224798D01*
X95686553Y-77235667D01*
X95678894Y-77239761D01*
X95658520Y-77253374D01*
X95641193Y-77270701D01*
X95627579Y-77291076D01*
X95618202Y-77313714D01*
X95613421Y-77337748D01*
X95613421Y-77362252D01*
X95618201Y-77386285D01*
X95627579Y-77408924D01*
X95641192Y-77429298D01*
X95658519Y-77446625D01*
X95678894Y-77460239D01*
X95686553Y-77464333D01*
X95699798Y-77475202D01*
X95710666Y-77488445D01*
X95718743Y-77503557D01*
X95723716Y-77519949D01*
X95726000Y-77543141D01*
X95726000Y-77956859D01*
X95723716Y-77980051D01*
X95718743Y-77996443D01*
X95710666Y-78011555D01*
X95699798Y-78024798D01*
X95686553Y-78035667D01*
X95678894Y-78039761D01*
X95658520Y-78053374D01*
X95641193Y-78070701D01*
X95627579Y-78091076D01*
X95618202Y-78113714D01*
X95613421Y-78137748D01*
X95613421Y-78162252D01*
X95618201Y-78186285D01*
X95627579Y-78208924D01*
X95641192Y-78229298D01*
X95658519Y-78246625D01*
X95678894Y-78260239D01*
X95686553Y-78264333D01*
X95699798Y-78275202D01*
X95710666Y-78288445D01*
X95718743Y-78303557D01*
X95723716Y-78319949D01*
X95726000Y-78343141D01*
X95726000Y-78756859D01*
X95723716Y-78780051D01*
X95718743Y-78796443D01*
X95710666Y-78811555D01*
X95699798Y-78824798D01*
X95686555Y-78835666D01*
X95671443Y-78843743D01*
X95655051Y-78848716D01*
X95631859Y-78851000D01*
X94218141Y-78851000D01*
X94194949Y-78848716D01*
X94178557Y-78843743D01*
X94163445Y-78835666D01*
X94150202Y-78824798D01*
X94139334Y-78811555D01*
X94131257Y-78796443D01*
X94126284Y-78780051D01*
X94124000Y-78756859D01*
X94124000Y-78343141D01*
X94126284Y-78319949D01*
X94131257Y-78303557D01*
X94139334Y-78288445D01*
X94150202Y-78275202D01*
X94163447Y-78264333D01*
X94171106Y-78260239D01*
X94191480Y-78246626D01*
X94208807Y-78229299D01*
X94222421Y-78208924D01*
X94231798Y-78186286D01*
X94236579Y-78162252D01*
X94236579Y-78137748D01*
X94231799Y-78113715D01*
X94222421Y-78091076D01*
X94208808Y-78070702D01*
X94191481Y-78053375D01*
X94171106Y-78039761D01*
X94163447Y-78035667D01*
X94150202Y-78024798D01*
X94139334Y-78011555D01*
X94131257Y-77996443D01*
X94126284Y-77980051D01*
X94124000Y-77956859D01*
X94124000Y-77543141D01*
X94126284Y-77519949D01*
X94131257Y-77503557D01*
X94139334Y-77488445D01*
X94150202Y-77475202D01*
X94163447Y-77464333D01*
X94171106Y-77460239D01*
X94191480Y-77446626D01*
X94208807Y-77429299D01*
X94222421Y-77408924D01*
X94231798Y-77386286D01*
X94236579Y-77362252D01*
X94236579Y-77337748D01*
X94231799Y-77313715D01*
X94222421Y-77291076D01*
X94208808Y-77270702D01*
X94191481Y-77253375D01*
X94171106Y-77239761D01*
X94163447Y-77235667D01*
X94150202Y-77224798D01*
X94139334Y-77211555D01*
X94131257Y-77196443D01*
X94126284Y-77180051D01*
X94124000Y-77156859D01*
X94124000Y-76743141D01*
X94126284Y-76719949D01*
X94131257Y-76703557D01*
X94139334Y-76688445D01*
X94150202Y-76675202D01*
X94163447Y-76664333D01*
X94171106Y-76660239D01*
X94191480Y-76646626D01*
X94208807Y-76629299D01*
X94222421Y-76608924D01*
X94231798Y-76586286D01*
X94236579Y-76562252D01*
X94236579Y-76537748D01*
X94231799Y-76513715D01*
X94222421Y-76491076D01*
X94208808Y-76470702D01*
X94191481Y-76453375D01*
X94171106Y-76439761D01*
X94163447Y-76435667D01*
X94150202Y-76424798D01*
X94139334Y-76411555D01*
X94131257Y-76396443D01*
X94126284Y-76380051D01*
X94124000Y-76356859D01*
X94124000Y-75943141D01*
X94126284Y-75919949D01*
X94131257Y-75903557D01*
X94139334Y-75888445D01*
X94150202Y-75875202D01*
X94163447Y-75864333D01*
X94171106Y-75860239D01*
X94191480Y-75846626D01*
X94208807Y-75829299D01*
X94222421Y-75808924D01*
X94231798Y-75786286D01*
X94236579Y-75762252D01*
X94236579Y-75737748D01*
X94231799Y-75713715D01*
X94222421Y-75691076D01*
X94208808Y-75670702D01*
X94191481Y-75653375D01*
X94171106Y-75639761D01*
X94163447Y-75635667D01*
X94150202Y-75624798D01*
X94139334Y-75611555D01*
X94131257Y-75596443D01*
X94126284Y-75580051D01*
X94124000Y-75556859D01*
X94124000Y-75143141D01*
X94126284Y-75119949D01*
X94131257Y-75103557D01*
X94139334Y-75088445D01*
X94150202Y-75075202D01*
X94163447Y-75064333D01*
X94171106Y-75060239D01*
X94191480Y-75046626D01*
X94208807Y-75029299D01*
X94222421Y-75008924D01*
X94231798Y-74986286D01*
X94236579Y-74962252D01*
X94236579Y-74937748D01*
X94231799Y-74913715D01*
X94222421Y-74891076D01*
X94208808Y-74870702D01*
X94191481Y-74853375D01*
X94171106Y-74839761D01*
X94163447Y-74835667D01*
X94150202Y-74824798D01*
X94139334Y-74811555D01*
X94131257Y-74796443D01*
X94126284Y-74780051D01*
X94124000Y-74756859D01*
X94124000Y-74343141D01*
X94126284Y-74319949D01*
X94131257Y-74303557D01*
X94139334Y-74288445D01*
X94150202Y-74275202D01*
X94163447Y-74264333D01*
X94171106Y-74260239D01*
X94191480Y-74246626D01*
X94208807Y-74229299D01*
X94222421Y-74208924D01*
X94231798Y-74186286D01*
X94236579Y-74162252D01*
X94236579Y-74137748D01*
X94231799Y-74113715D01*
X94222421Y-74091076D01*
X94208808Y-74070702D01*
X94191481Y-74053375D01*
X94171106Y-74039761D01*
X94163447Y-74035667D01*
X94150202Y-74024798D01*
X94139334Y-74011555D01*
X94131257Y-73996443D01*
X94126284Y-73980051D01*
X94124000Y-73956859D01*
X94124000Y-73543141D01*
X94126284Y-73519949D01*
X94131257Y-73503557D01*
X94139334Y-73488445D01*
X94150202Y-73475202D01*
X94163447Y-73464333D01*
X94171106Y-73460239D01*
X94191480Y-73446626D01*
X94208807Y-73429299D01*
X94222421Y-73408924D01*
X94231798Y-73386286D01*
X94236579Y-73362252D01*
X94236579Y-73337748D01*
X94231799Y-73313715D01*
X94222421Y-73291076D01*
X94208808Y-73270702D01*
X94191481Y-73253375D01*
X94171106Y-73239761D01*
X94163447Y-73235667D01*
X94150202Y-73224798D01*
X94139334Y-73211555D01*
X94131257Y-73196443D01*
X94126284Y-73180051D01*
X94124000Y-73156859D01*
X94124000Y-72743141D01*
X94126284Y-72719949D01*
X94131257Y-72703557D01*
X94139334Y-72688445D01*
X94150202Y-72675202D01*
X94163445Y-72664334D01*
X94178557Y-72656257D01*
X94194949Y-72651284D01*
X94218141Y-72649000D01*
X95631859Y-72649000D01*
X95655051Y-72651284D01*
G37*
G36*
X117629434Y-76703686D02*
G01*
X117669284Y-76715774D01*
X117705999Y-76735399D01*
X117738186Y-76761814D01*
X117764601Y-76794001D01*
X117784226Y-76830716D01*
X117796314Y-76870566D01*
X117801000Y-76918141D01*
X117801000Y-77581859D01*
X117796314Y-77629434D01*
X117784226Y-77669284D01*
X117764601Y-77705999D01*
X117738186Y-77738186D01*
X117705999Y-77764601D01*
X117669284Y-77784226D01*
X117629434Y-77796314D01*
X117581859Y-77801000D01*
X112418141Y-77801000D01*
X112370566Y-77796314D01*
X112330716Y-77784226D01*
X112294001Y-77764601D01*
X112261814Y-77738186D01*
X112235399Y-77705999D01*
X112215774Y-77669284D01*
X112203686Y-77629434D01*
X112199000Y-77581859D01*
X112199000Y-76918141D01*
X112203686Y-76870566D01*
X112215774Y-76830716D01*
X112235399Y-76794001D01*
X112261814Y-76761814D01*
X112294001Y-76735399D01*
X112330716Y-76715774D01*
X112370566Y-76703686D01*
X112418141Y-76699000D01*
X117581859Y-76699000D01*
X117629434Y-76703686D01*
G37*
G36*
X98039499Y-75728445D02*
G01*
X98076995Y-75739820D01*
X98111554Y-75758292D01*
X98141847Y-75783153D01*
X98166708Y-75813446D01*
X98185180Y-75848005D01*
X98196555Y-75885501D01*
X98201000Y-75930638D01*
X98201000Y-76569362D01*
X98196555Y-76614499D01*
X98185180Y-76651995D01*
X98166708Y-76686554D01*
X98141847Y-76716847D01*
X98111554Y-76741708D01*
X98076995Y-76760180D01*
X98039499Y-76771555D01*
X97994362Y-76776000D01*
X97255638Y-76776000D01*
X97210501Y-76771555D01*
X97173005Y-76760180D01*
X97138446Y-76741708D01*
X97108153Y-76716847D01*
X97083292Y-76686554D01*
X97064820Y-76651995D01*
X97053445Y-76614499D01*
X97049000Y-76569362D01*
X97049000Y-75930638D01*
X97053445Y-75885501D01*
X97064820Y-75848005D01*
X97083292Y-75813446D01*
X97108153Y-75783153D01*
X97138446Y-75758292D01*
X97173005Y-75739820D01*
X97210501Y-75728445D01*
X97255638Y-75724000D01*
X97994362Y-75724000D01*
X98039499Y-75728445D01*
G37*
G36*
X99789499Y-75728445D02*
G01*
X99826995Y-75739820D01*
X99861554Y-75758292D01*
X99891847Y-75783153D01*
X99916708Y-75813446D01*
X99935180Y-75848005D01*
X99946555Y-75885501D01*
X99951000Y-75930638D01*
X99951000Y-76569362D01*
X99946555Y-76614499D01*
X99935180Y-76651995D01*
X99916708Y-76686554D01*
X99891847Y-76716847D01*
X99861554Y-76741708D01*
X99826995Y-76760180D01*
X99789499Y-76771555D01*
X99744362Y-76776000D01*
X99005638Y-76776000D01*
X98960501Y-76771555D01*
X98923005Y-76760180D01*
X98888446Y-76741708D01*
X98858153Y-76716847D01*
X98833292Y-76686554D01*
X98814820Y-76651995D01*
X98803445Y-76614499D01*
X98799000Y-76569362D01*
X98799000Y-75930638D01*
X98803445Y-75885501D01*
X98814820Y-75848005D01*
X98833292Y-75813446D01*
X98858153Y-75783153D01*
X98888446Y-75758292D01*
X98923005Y-75739820D01*
X98960501Y-75728445D01*
X99005638Y-75724000D01*
X99744362Y-75724000D01*
X99789499Y-75728445D01*
G37*
G36*
X118655997Y-74003051D02*
G01*
X118689652Y-74013261D01*
X118720665Y-74029838D01*
X118747851Y-74052149D01*
X118770162Y-74079335D01*
X118786739Y-74110348D01*
X118796949Y-74144003D01*
X118801000Y-74185138D01*
X118801000Y-75514862D01*
X118796949Y-75555997D01*
X118786739Y-75589652D01*
X118770162Y-75620665D01*
X118747851Y-75647851D01*
X118720665Y-75670162D01*
X118689652Y-75686739D01*
X118655997Y-75696949D01*
X118614862Y-75701000D01*
X115885138Y-75701000D01*
X115844003Y-75696949D01*
X115810348Y-75686739D01*
X115779335Y-75670162D01*
X115752149Y-75647851D01*
X115729838Y-75620665D01*
X115713261Y-75589652D01*
X115703051Y-75555997D01*
X115699000Y-75514862D01*
X115699000Y-74185138D01*
X115703051Y-74144003D01*
X115713261Y-74110348D01*
X115729838Y-74079335D01*
X115752149Y-74052149D01*
X115779335Y-74029838D01*
X115810348Y-74013261D01*
X115844003Y-74003051D01*
X115885138Y-73999000D01*
X118614862Y-73999000D01*
X118655997Y-74003051D01*
G37*
G36*
X99789499Y-73978445D02*
G01*
X99826995Y-73989820D01*
X99861554Y-74008292D01*
X99891847Y-74033153D01*
X99916708Y-74063446D01*
X99935180Y-74098005D01*
X99946555Y-74135501D01*
X99951000Y-74180638D01*
X99951000Y-74819362D01*
X99946555Y-74864499D01*
X99935180Y-74901995D01*
X99916708Y-74936554D01*
X99891847Y-74966847D01*
X99861554Y-74991708D01*
X99826995Y-75010180D01*
X99789499Y-75021555D01*
X99744362Y-75026000D01*
X99005638Y-75026000D01*
X98960501Y-75021555D01*
X98923005Y-75010180D01*
X98888446Y-74991708D01*
X98858153Y-74966847D01*
X98833292Y-74936554D01*
X98814820Y-74901995D01*
X98803445Y-74864499D01*
X98799000Y-74819362D01*
X98799000Y-74180638D01*
X98803445Y-74135501D01*
X98814820Y-74098005D01*
X98833292Y-74063446D01*
X98858153Y-74033153D01*
X98888446Y-74008292D01*
X98923005Y-73989820D01*
X98960501Y-73978445D01*
X99005638Y-73974000D01*
X99744362Y-73974000D01*
X99789499Y-73978445D01*
G37*
G36*
X98039499Y-73978445D02*
G01*
X98076995Y-73989820D01*
X98111554Y-74008292D01*
X98141847Y-74033153D01*
X98166708Y-74063446D01*
X98185180Y-74098005D01*
X98196555Y-74135501D01*
X98201000Y-74180638D01*
X98201000Y-74819362D01*
X98196555Y-74864499D01*
X98185180Y-74901995D01*
X98166708Y-74936554D01*
X98141847Y-74966847D01*
X98111554Y-74991708D01*
X98076995Y-75010180D01*
X98039499Y-75021555D01*
X97994362Y-75026000D01*
X97255638Y-75026000D01*
X97210501Y-75021555D01*
X97173005Y-75010180D01*
X97138446Y-74991708D01*
X97108153Y-74966847D01*
X97083292Y-74936554D01*
X97064820Y-74901995D01*
X97053445Y-74864499D01*
X97049000Y-74819362D01*
X97049000Y-74180638D01*
X97053445Y-74135501D01*
X97064820Y-74098005D01*
X97083292Y-74063446D01*
X97108153Y-74033153D01*
X97138446Y-74008292D01*
X97173005Y-73989820D01*
X97210501Y-73978445D01*
X97255638Y-73974000D01*
X97994362Y-73974000D01*
X98039499Y-73978445D01*
G37*
G36*
X82289499Y-72478445D02*
G01*
X82326995Y-72489820D01*
X82361554Y-72508292D01*
X82391847Y-72533153D01*
X82416708Y-72563446D01*
X82435180Y-72598005D01*
X82446555Y-72635501D01*
X82451000Y-72680638D01*
X82451000Y-73319362D01*
X82446555Y-73364499D01*
X82435180Y-73401995D01*
X82416708Y-73436554D01*
X82391847Y-73466847D01*
X82361554Y-73491708D01*
X82326995Y-73510180D01*
X82289499Y-73521555D01*
X82244362Y-73526000D01*
X81505638Y-73526000D01*
X81460501Y-73521555D01*
X81423005Y-73510180D01*
X81388446Y-73491708D01*
X81358153Y-73466847D01*
X81333292Y-73436554D01*
X81314820Y-73401995D01*
X81303445Y-73364499D01*
X81299000Y-73319362D01*
X81299000Y-72680638D01*
X81303445Y-72635501D01*
X81314820Y-72598005D01*
X81333292Y-72563446D01*
X81358153Y-72533153D01*
X81388446Y-72508292D01*
X81423005Y-72489820D01*
X81460501Y-72478445D01*
X81505638Y-72474000D01*
X82244362Y-72474000D01*
X82289499Y-72478445D01*
G37*
G36*
X84039499Y-72478445D02*
G01*
X84076995Y-72489820D01*
X84111554Y-72508292D01*
X84141847Y-72533153D01*
X84166708Y-72563446D01*
X84185180Y-72598005D01*
X84196555Y-72635501D01*
X84201000Y-72680638D01*
X84201000Y-73319362D01*
X84196555Y-73364499D01*
X84185180Y-73401995D01*
X84166708Y-73436554D01*
X84141847Y-73466847D01*
X84111554Y-73491708D01*
X84076995Y-73510180D01*
X84039499Y-73521555D01*
X83994362Y-73526000D01*
X83255638Y-73526000D01*
X83210501Y-73521555D01*
X83173005Y-73510180D01*
X83138446Y-73491708D01*
X83108153Y-73466847D01*
X83083292Y-73436554D01*
X83064820Y-73401995D01*
X83053445Y-73364499D01*
X83049000Y-73319362D01*
X83049000Y-72680638D01*
X83053445Y-72635501D01*
X83064820Y-72598005D01*
X83083292Y-72563446D01*
X83108153Y-72533153D01*
X83138446Y-72508292D01*
X83173005Y-72489820D01*
X83210501Y-72478445D01*
X83255638Y-72474000D01*
X83994362Y-72474000D01*
X84039499Y-72478445D01*
G37*
G36*
X88180051Y-70776284D02*
G01*
X88196443Y-70781257D01*
X88211555Y-70789334D01*
X88224798Y-70800202D01*
X88235667Y-70813447D01*
X88239761Y-70821106D01*
X88253374Y-70841480D01*
X88270701Y-70858807D01*
X88291076Y-70872421D01*
X88313714Y-70881798D01*
X88337748Y-70886579D01*
X88362252Y-70886579D01*
X88386285Y-70881799D01*
X88408924Y-70872421D01*
X88429298Y-70858808D01*
X88446625Y-70841481D01*
X88460239Y-70821106D01*
X88464333Y-70813447D01*
X88475202Y-70800202D01*
X88488445Y-70789334D01*
X88503557Y-70781257D01*
X88519949Y-70776284D01*
X88543141Y-70774000D01*
X88956859Y-70774000D01*
X88980051Y-70776284D01*
X88996443Y-70781257D01*
X89011555Y-70789334D01*
X89024798Y-70800202D01*
X89035667Y-70813447D01*
X89039761Y-70821106D01*
X89053374Y-70841480D01*
X89070701Y-70858807D01*
X89091076Y-70872421D01*
X89113714Y-70881798D01*
X89137748Y-70886579D01*
X89162252Y-70886579D01*
X89186285Y-70881799D01*
X89208924Y-70872421D01*
X89229298Y-70858808D01*
X89246625Y-70841481D01*
X89260239Y-70821106D01*
X89264333Y-70813447D01*
X89275202Y-70800202D01*
X89288445Y-70789334D01*
X89303557Y-70781257D01*
X89319949Y-70776284D01*
X89343141Y-70774000D01*
X89756859Y-70774000D01*
X89780051Y-70776284D01*
X89796443Y-70781257D01*
X89811555Y-70789334D01*
X89824798Y-70800202D01*
X89835667Y-70813447D01*
X89839761Y-70821106D01*
X89853374Y-70841480D01*
X89870701Y-70858807D01*
X89891076Y-70872421D01*
X89913714Y-70881798D01*
X89937748Y-70886579D01*
X89962252Y-70886579D01*
X89986285Y-70881799D01*
X90008924Y-70872421D01*
X90029298Y-70858808D01*
X90046625Y-70841481D01*
X90060239Y-70821106D01*
X90064333Y-70813447D01*
X90075202Y-70800202D01*
X90088445Y-70789334D01*
X90103557Y-70781257D01*
X90119949Y-70776284D01*
X90143141Y-70774000D01*
X90556859Y-70774000D01*
X90580051Y-70776284D01*
X90596443Y-70781257D01*
X90611555Y-70789334D01*
X90624798Y-70800202D01*
X90635667Y-70813447D01*
X90639761Y-70821106D01*
X90653374Y-70841480D01*
X90670701Y-70858807D01*
X90691076Y-70872421D01*
X90713714Y-70881798D01*
X90737748Y-70886579D01*
X90762252Y-70886579D01*
X90786285Y-70881799D01*
X90808924Y-70872421D01*
X90829298Y-70858808D01*
X90846625Y-70841481D01*
X90860239Y-70821106D01*
X90864333Y-70813447D01*
X90875202Y-70800202D01*
X90888445Y-70789334D01*
X90903557Y-70781257D01*
X90919949Y-70776284D01*
X90943141Y-70774000D01*
X91356859Y-70774000D01*
X91380051Y-70776284D01*
X91396443Y-70781257D01*
X91411555Y-70789334D01*
X91424798Y-70800202D01*
X91435667Y-70813447D01*
X91439761Y-70821106D01*
X91453374Y-70841480D01*
X91470701Y-70858807D01*
X91491076Y-70872421D01*
X91513714Y-70881798D01*
X91537748Y-70886579D01*
X91562252Y-70886579D01*
X91586285Y-70881799D01*
X91608924Y-70872421D01*
X91629298Y-70858808D01*
X91646625Y-70841481D01*
X91660239Y-70821106D01*
X91664333Y-70813447D01*
X91675202Y-70800202D01*
X91688445Y-70789334D01*
X91703557Y-70781257D01*
X91719949Y-70776284D01*
X91743141Y-70774000D01*
X92156859Y-70774000D01*
X92180051Y-70776284D01*
X92196443Y-70781257D01*
X92211555Y-70789334D01*
X92224798Y-70800202D01*
X92235667Y-70813447D01*
X92239761Y-70821106D01*
X92253374Y-70841480D01*
X92270701Y-70858807D01*
X92291076Y-70872421D01*
X92313714Y-70881798D01*
X92337748Y-70886579D01*
X92362252Y-70886579D01*
X92386285Y-70881799D01*
X92408924Y-70872421D01*
X92429298Y-70858808D01*
X92446625Y-70841481D01*
X92460239Y-70821106D01*
X92464333Y-70813447D01*
X92475202Y-70800202D01*
X92488445Y-70789334D01*
X92503557Y-70781257D01*
X92519949Y-70776284D01*
X92543141Y-70774000D01*
X92956859Y-70774000D01*
X92980051Y-70776284D01*
X92996443Y-70781257D01*
X93011555Y-70789334D01*
X93024798Y-70800202D01*
X93035667Y-70813447D01*
X93039761Y-70821106D01*
X93053374Y-70841480D01*
X93070701Y-70858807D01*
X93091076Y-70872421D01*
X93113714Y-70881798D01*
X93137748Y-70886579D01*
X93162252Y-70886579D01*
X93186285Y-70881799D01*
X93208924Y-70872421D01*
X93229298Y-70858808D01*
X93246625Y-70841481D01*
X93260239Y-70821106D01*
X93264333Y-70813447D01*
X93275202Y-70800202D01*
X93288445Y-70789334D01*
X93303557Y-70781257D01*
X93319949Y-70776284D01*
X93343141Y-70774000D01*
X93756859Y-70774000D01*
X93780051Y-70776284D01*
X93796443Y-70781257D01*
X93811555Y-70789334D01*
X93824798Y-70800202D01*
X93835666Y-70813445D01*
X93843743Y-70828557D01*
X93848716Y-70844949D01*
X93851000Y-70868141D01*
X93851000Y-72281859D01*
X93848716Y-72305051D01*
X93843743Y-72321443D01*
X93835666Y-72336555D01*
X93824798Y-72349798D01*
X93811555Y-72360666D01*
X93796443Y-72368743D01*
X93780051Y-72373716D01*
X93756859Y-72376000D01*
X93343141Y-72376000D01*
X93319949Y-72373716D01*
X93303557Y-72368743D01*
X93288445Y-72360666D01*
X93275202Y-72349798D01*
X93264333Y-72336553D01*
X93260239Y-72328894D01*
X93246626Y-72308520D01*
X93229299Y-72291193D01*
X93208924Y-72277579D01*
X93186286Y-72268202D01*
X93162252Y-72263421D01*
X93137748Y-72263421D01*
X93113715Y-72268201D01*
X93091076Y-72277579D01*
X93070702Y-72291192D01*
X93053375Y-72308519D01*
X93039761Y-72328894D01*
X93035667Y-72336553D01*
X93024798Y-72349798D01*
X93011555Y-72360666D01*
X92996443Y-72368743D01*
X92980051Y-72373716D01*
X92956859Y-72376000D01*
X92543141Y-72376000D01*
X92519949Y-72373716D01*
X92503557Y-72368743D01*
X92488445Y-72360666D01*
X92475202Y-72349798D01*
X92464333Y-72336553D01*
X92460239Y-72328894D01*
X92446626Y-72308520D01*
X92429299Y-72291193D01*
X92408924Y-72277579D01*
X92386286Y-72268202D01*
X92362252Y-72263421D01*
X92337748Y-72263421D01*
X92313715Y-72268201D01*
X92291076Y-72277579D01*
X92270702Y-72291192D01*
X92253375Y-72308519D01*
X92239761Y-72328894D01*
X92235667Y-72336553D01*
X92224798Y-72349798D01*
X92211555Y-72360666D01*
X92196443Y-72368743D01*
X92180051Y-72373716D01*
X92156859Y-72376000D01*
X91743141Y-72376000D01*
X91719949Y-72373716D01*
X91703557Y-72368743D01*
X91688445Y-72360666D01*
X91675202Y-72349798D01*
X91664333Y-72336553D01*
X91660239Y-72328894D01*
X91646626Y-72308520D01*
X91629299Y-72291193D01*
X91608924Y-72277579D01*
X91586286Y-72268202D01*
X91562252Y-72263421D01*
X91537748Y-72263421D01*
X91513715Y-72268201D01*
X91491076Y-72277579D01*
X91470702Y-72291192D01*
X91453375Y-72308519D01*
X91439761Y-72328894D01*
X91435667Y-72336553D01*
X91424798Y-72349798D01*
X91411555Y-72360666D01*
X91396443Y-72368743D01*
X91380051Y-72373716D01*
X91356859Y-72376000D01*
X90943141Y-72376000D01*
X90919949Y-72373716D01*
X90903557Y-72368743D01*
X90888445Y-72360666D01*
X90875202Y-72349798D01*
X90864333Y-72336553D01*
X90860239Y-72328894D01*
X90846626Y-72308520D01*
X90829299Y-72291193D01*
X90808924Y-72277579D01*
X90786286Y-72268202D01*
X90762252Y-72263421D01*
X90737748Y-72263421D01*
X90713715Y-72268201D01*
X90691076Y-72277579D01*
X90670702Y-72291192D01*
X90653375Y-72308519D01*
X90639761Y-72328894D01*
X90635667Y-72336553D01*
X90624798Y-72349798D01*
X90611555Y-72360666D01*
X90596443Y-72368743D01*
X90580051Y-72373716D01*
X90556859Y-72376000D01*
X90143141Y-72376000D01*
X90119949Y-72373716D01*
X90103557Y-72368743D01*
X90088445Y-72360666D01*
X90075202Y-72349798D01*
X90064333Y-72336553D01*
X90060239Y-72328894D01*
X90046626Y-72308520D01*
X90029299Y-72291193D01*
X90008924Y-72277579D01*
X89986286Y-72268202D01*
X89962252Y-72263421D01*
X89937748Y-72263421D01*
X89913715Y-72268201D01*
X89891076Y-72277579D01*
X89870702Y-72291192D01*
X89853375Y-72308519D01*
X89839761Y-72328894D01*
X89835667Y-72336553D01*
X89824798Y-72349798D01*
X89811555Y-72360666D01*
X89796443Y-72368743D01*
X89780051Y-72373716D01*
X89756859Y-72376000D01*
X89343141Y-72376000D01*
X89319949Y-72373716D01*
X89303557Y-72368743D01*
X89288445Y-72360666D01*
X89275202Y-72349798D01*
X89264333Y-72336553D01*
X89260239Y-72328894D01*
X89246626Y-72308520D01*
X89229299Y-72291193D01*
X89208924Y-72277579D01*
X89186286Y-72268202D01*
X89162252Y-72263421D01*
X89137748Y-72263421D01*
X89113715Y-72268201D01*
X89091076Y-72277579D01*
X89070702Y-72291192D01*
X89053375Y-72308519D01*
X89039761Y-72328894D01*
X89035667Y-72336553D01*
X89024798Y-72349798D01*
X89011555Y-72360666D01*
X88996443Y-72368743D01*
X88980051Y-72373716D01*
X88956859Y-72376000D01*
X88543141Y-72376000D01*
X88519949Y-72373716D01*
X88503557Y-72368743D01*
X88488445Y-72360666D01*
X88475202Y-72349798D01*
X88464333Y-72336553D01*
X88460239Y-72328894D01*
X88446626Y-72308520D01*
X88429299Y-72291193D01*
X88408924Y-72277579D01*
X88386286Y-72268202D01*
X88362252Y-72263421D01*
X88337748Y-72263421D01*
X88313715Y-72268201D01*
X88291076Y-72277579D01*
X88270702Y-72291192D01*
X88253375Y-72308519D01*
X88239761Y-72328894D01*
X88235667Y-72336553D01*
X88224798Y-72349798D01*
X88211555Y-72360666D01*
X88196443Y-72368743D01*
X88180051Y-72373716D01*
X88156859Y-72376000D01*
X87743141Y-72376000D01*
X87719949Y-72373716D01*
X87703557Y-72368743D01*
X87688445Y-72360666D01*
X87675202Y-72349798D01*
X87664334Y-72336555D01*
X87656257Y-72321443D01*
X87651284Y-72305051D01*
X87649000Y-72281859D01*
X87649000Y-70868141D01*
X87651284Y-70844949D01*
X87656257Y-70828557D01*
X87664334Y-70813445D01*
X87675202Y-70800202D01*
X87688445Y-70789334D01*
X87703557Y-70781257D01*
X87719949Y-70776284D01*
X87743141Y-70774000D01*
X88156859Y-70774000D01*
X88180051Y-70776284D01*
G37*
G36*
X82289499Y-70728445D02*
G01*
X82326995Y-70739820D01*
X82361554Y-70758292D01*
X82391847Y-70783153D01*
X82416708Y-70813446D01*
X82435180Y-70848005D01*
X82446555Y-70885501D01*
X82451000Y-70930638D01*
X82451000Y-71569362D01*
X82446555Y-71614499D01*
X82435180Y-71651995D01*
X82416708Y-71686554D01*
X82391847Y-71716847D01*
X82361554Y-71741708D01*
X82326995Y-71760180D01*
X82289499Y-71771555D01*
X82244362Y-71776000D01*
X81505638Y-71776000D01*
X81460501Y-71771555D01*
X81423005Y-71760180D01*
X81388446Y-71741708D01*
X81358153Y-71716847D01*
X81333292Y-71686554D01*
X81314820Y-71651995D01*
X81303445Y-71614499D01*
X81299000Y-71569362D01*
X81299000Y-70930638D01*
X81303445Y-70885501D01*
X81314820Y-70848005D01*
X81333292Y-70813446D01*
X81358153Y-70783153D01*
X81388446Y-70758292D01*
X81423005Y-70739820D01*
X81460501Y-70728445D01*
X81505638Y-70724000D01*
X82244362Y-70724000D01*
X82289499Y-70728445D01*
G37*
G36*
X84039499Y-70728445D02*
G01*
X84076995Y-70739820D01*
X84111554Y-70758292D01*
X84141847Y-70783153D01*
X84166708Y-70813446D01*
X84185180Y-70848005D01*
X84196555Y-70885501D01*
X84201000Y-70930638D01*
X84201000Y-71569362D01*
X84196555Y-71614499D01*
X84185180Y-71651995D01*
X84166708Y-71686554D01*
X84141847Y-71716847D01*
X84111554Y-71741708D01*
X84076995Y-71760180D01*
X84039499Y-71771555D01*
X83994362Y-71776000D01*
X83255638Y-71776000D01*
X83210501Y-71771555D01*
X83173005Y-71760180D01*
X83138446Y-71741708D01*
X83108153Y-71716847D01*
X83083292Y-71686554D01*
X83064820Y-71651995D01*
X83053445Y-71614499D01*
X83049000Y-71569362D01*
X83049000Y-70930638D01*
X83053445Y-70885501D01*
X83064820Y-70848005D01*
X83083292Y-70813446D01*
X83108153Y-70783153D01*
X83138446Y-70758292D01*
X83173005Y-70739820D01*
X83210501Y-70728445D01*
X83255638Y-70724000D01*
X83994362Y-70724000D01*
X84039499Y-70728445D01*
G37*
M02*
