%TF.GenerationSoftware,KiCad,Pcbnew,5.1.5+dfsg1-2build2*%
%TF.CreationDate,2020-12-26T23:47:44-08:00*%
%TF.ProjectId,motorcontroller,6d6f746f-7263-46f6-9e74-726f6c6c6572,rev?*%
%TF.SameCoordinates,Original*%
%TF.FileFunction,Soldermask,Bot*%
%TF.FilePolarity,Negative*%
%FSLAX46Y46*%
G04 Gerber Fmt 4.6, Leading zero omitted, Abs format (unit mm)*
G04 Created by KiCad (PCBNEW 5.1.5+dfsg1-2build2) date 2020-12-26 23:47:44*
%MOMM*%
%LPD*%
G04 APERTURE LIST*
%ADD10C,0.100000*%
G04 APERTURE END LIST*
D10*
G36*
X94789499Y-146478445D02*
G01*
X94826995Y-146489820D01*
X94861554Y-146508292D01*
X94891847Y-146533153D01*
X94916708Y-146563446D01*
X94935180Y-146598005D01*
X94946555Y-146635501D01*
X94951000Y-146680638D01*
X94951000Y-147319362D01*
X94946555Y-147364499D01*
X94935180Y-147401995D01*
X94916708Y-147436554D01*
X94891847Y-147466847D01*
X94861554Y-147491708D01*
X94826995Y-147510180D01*
X94789499Y-147521555D01*
X94744362Y-147526000D01*
X94005638Y-147526000D01*
X93960501Y-147521555D01*
X93923005Y-147510180D01*
X93888446Y-147491708D01*
X93858153Y-147466847D01*
X93833292Y-147436554D01*
X93814820Y-147401995D01*
X93803445Y-147364499D01*
X93799000Y-147319362D01*
X93799000Y-146680638D01*
X93803445Y-146635501D01*
X93814820Y-146598005D01*
X93833292Y-146563446D01*
X93858153Y-146533153D01*
X93888446Y-146508292D01*
X93923005Y-146489820D01*
X93960501Y-146478445D01*
X94005638Y-146474000D01*
X94744362Y-146474000D01*
X94789499Y-146478445D01*
G37*
G36*
X93039499Y-146478445D02*
G01*
X93076995Y-146489820D01*
X93111554Y-146508292D01*
X93141847Y-146533153D01*
X93166708Y-146563446D01*
X93185180Y-146598005D01*
X93196555Y-146635501D01*
X93201000Y-146680638D01*
X93201000Y-147319362D01*
X93196555Y-147364499D01*
X93185180Y-147401995D01*
X93166708Y-147436554D01*
X93141847Y-147466847D01*
X93111554Y-147491708D01*
X93076995Y-147510180D01*
X93039499Y-147521555D01*
X92994362Y-147526000D01*
X92255638Y-147526000D01*
X92210501Y-147521555D01*
X92173005Y-147510180D01*
X92138446Y-147491708D01*
X92108153Y-147466847D01*
X92083292Y-147436554D01*
X92064820Y-147401995D01*
X92053445Y-147364499D01*
X92049000Y-147319362D01*
X92049000Y-146680638D01*
X92053445Y-146635501D01*
X92064820Y-146598005D01*
X92083292Y-146563446D01*
X92108153Y-146533153D01*
X92138446Y-146508292D01*
X92173005Y-146489820D01*
X92210501Y-146478445D01*
X92255638Y-146474000D01*
X92994362Y-146474000D01*
X93039499Y-146478445D01*
G37*
G36*
X88876500Y-145956500D02*
G01*
X87123500Y-145956500D01*
X87123500Y-144203500D01*
X88876500Y-144203500D01*
X88876500Y-145956500D01*
G37*
G36*
X116001008Y-134967590D02*
G01*
X116496658Y-135066181D01*
X117430440Y-135452967D01*
X118270822Y-136014492D01*
X118985508Y-136729178D01*
X119547033Y-137569560D01*
X119933819Y-138503342D01*
X119933819Y-138503344D01*
X120131000Y-139494639D01*
X120131000Y-140505361D01*
X120077018Y-140776745D01*
X119933819Y-141496658D01*
X119547033Y-142430440D01*
X118985508Y-143270822D01*
X118270822Y-143985508D01*
X117430440Y-144547033D01*
X116496658Y-144933819D01*
X116001008Y-145032410D01*
X115505361Y-145131000D01*
X114494639Y-145131000D01*
X113998992Y-145032410D01*
X113503342Y-144933819D01*
X112569560Y-144547033D01*
X111729178Y-143985508D01*
X111014492Y-143270822D01*
X110452967Y-142430440D01*
X110066181Y-141496658D01*
X109922982Y-140776745D01*
X109869000Y-140505361D01*
X109869000Y-139494639D01*
X110066181Y-138503344D01*
X110066181Y-138503342D01*
X110452967Y-137569560D01*
X111014492Y-136729178D01*
X111729178Y-136014492D01*
X112569560Y-135452967D01*
X113503342Y-135066181D01*
X113998992Y-134967590D01*
X114494639Y-134869000D01*
X115505361Y-134869000D01*
X116001008Y-134967590D01*
G37*
G36*
X99664499Y-143478445D02*
G01*
X99701995Y-143489820D01*
X99736554Y-143508292D01*
X99766847Y-143533153D01*
X99791708Y-143563446D01*
X99810180Y-143598005D01*
X99821555Y-143635501D01*
X99826000Y-143680638D01*
X99826000Y-144319362D01*
X99821555Y-144364499D01*
X99810180Y-144401995D01*
X99791708Y-144436554D01*
X99766847Y-144466847D01*
X99736554Y-144491708D01*
X99701995Y-144510180D01*
X99664499Y-144521555D01*
X99619362Y-144526000D01*
X98880638Y-144526000D01*
X98835501Y-144521555D01*
X98798005Y-144510180D01*
X98763446Y-144491708D01*
X98733153Y-144466847D01*
X98708292Y-144436554D01*
X98689820Y-144401995D01*
X98678445Y-144364499D01*
X98674000Y-144319362D01*
X98674000Y-143680638D01*
X98678445Y-143635501D01*
X98689820Y-143598005D01*
X98708292Y-143563446D01*
X98733153Y-143533153D01*
X98763446Y-143508292D01*
X98798005Y-143489820D01*
X98835501Y-143478445D01*
X98880638Y-143474000D01*
X99619362Y-143474000D01*
X99664499Y-143478445D01*
G37*
G36*
X97914499Y-143478445D02*
G01*
X97951995Y-143489820D01*
X97986554Y-143508292D01*
X98016847Y-143533153D01*
X98041708Y-143563446D01*
X98060180Y-143598005D01*
X98071555Y-143635501D01*
X98076000Y-143680638D01*
X98076000Y-144319362D01*
X98071555Y-144364499D01*
X98060180Y-144401995D01*
X98041708Y-144436554D01*
X98016847Y-144466847D01*
X97986554Y-144491708D01*
X97951995Y-144510180D01*
X97914499Y-144521555D01*
X97869362Y-144526000D01*
X97130638Y-144526000D01*
X97085501Y-144521555D01*
X97048005Y-144510180D01*
X97013446Y-144491708D01*
X96983153Y-144466847D01*
X96958292Y-144436554D01*
X96939820Y-144401995D01*
X96928445Y-144364499D01*
X96924000Y-144319362D01*
X96924000Y-143680638D01*
X96928445Y-143635501D01*
X96939820Y-143598005D01*
X96958292Y-143563446D01*
X96983153Y-143533153D01*
X97013446Y-143508292D01*
X97048005Y-143489820D01*
X97085501Y-143478445D01*
X97130638Y-143474000D01*
X97869362Y-143474000D01*
X97914499Y-143478445D01*
G37*
G36*
X94876500Y-143416500D02*
G01*
X93123500Y-143416500D01*
X93123500Y-141663500D01*
X94876500Y-141663500D01*
X94876500Y-143416500D01*
G37*
G36*
X88170997Y-141680342D02*
G01*
X88255666Y-141697183D01*
X88321738Y-141724551D01*
X88415177Y-141763255D01*
X88558736Y-141859178D01*
X88680822Y-141981264D01*
X88776745Y-142124823D01*
X88842817Y-142284335D01*
X88876500Y-142453671D01*
X88876500Y-142626329D01*
X88842817Y-142795665D01*
X88776745Y-142955177D01*
X88680822Y-143098736D01*
X88558736Y-143220822D01*
X88415177Y-143316745D01*
X88321738Y-143355449D01*
X88255666Y-143382817D01*
X88170997Y-143399658D01*
X88086329Y-143416500D01*
X87913671Y-143416500D01*
X87829003Y-143399658D01*
X87744334Y-143382817D01*
X87678262Y-143355449D01*
X87584823Y-143316745D01*
X87441264Y-143220822D01*
X87319178Y-143098736D01*
X87223255Y-142955177D01*
X87157183Y-142795665D01*
X87123500Y-142626329D01*
X87123500Y-142453671D01*
X87157183Y-142284335D01*
X87223255Y-142124823D01*
X87319178Y-141981264D01*
X87441264Y-141859178D01*
X87584823Y-141763255D01*
X87678262Y-141724551D01*
X87744334Y-141697183D01*
X87829003Y-141680342D01*
X87913671Y-141663500D01*
X88086329Y-141663500D01*
X88170997Y-141680342D01*
G37*
G36*
X103222300Y-141999797D02*
G01*
X102587700Y-141999797D01*
X102587700Y-140442899D01*
X103222300Y-140442899D01*
X103222300Y-141999797D01*
G37*
G36*
X101952300Y-141999797D02*
G01*
X101317700Y-141999797D01*
X101317700Y-140442899D01*
X101952300Y-140442899D01*
X101952300Y-141999797D01*
G37*
G36*
X100682300Y-141999797D02*
G01*
X100047700Y-141999797D01*
X100047700Y-140442899D01*
X100682300Y-140442899D01*
X100682300Y-141999797D01*
G37*
G36*
X99412300Y-141999797D02*
G01*
X98777700Y-141999797D01*
X98777700Y-140442899D01*
X99412300Y-140442899D01*
X99412300Y-141999797D01*
G37*
G36*
X94170997Y-139140342D02*
G01*
X94255666Y-139157183D01*
X94321738Y-139184551D01*
X94415177Y-139223255D01*
X94558736Y-139319178D01*
X94680822Y-139441264D01*
X94776745Y-139584823D01*
X94842817Y-139744335D01*
X94876500Y-139913671D01*
X94876500Y-140086329D01*
X94842817Y-140255665D01*
X94776745Y-140415177D01*
X94680822Y-140558736D01*
X94558736Y-140680822D01*
X94415177Y-140776745D01*
X94321738Y-140815449D01*
X94255666Y-140842817D01*
X94170997Y-140859659D01*
X94086329Y-140876500D01*
X93913671Y-140876500D01*
X93829003Y-140859659D01*
X93744334Y-140842817D01*
X93678262Y-140815449D01*
X93584823Y-140776745D01*
X93441264Y-140680822D01*
X93319178Y-140558736D01*
X93223255Y-140415177D01*
X93157183Y-140255665D01*
X93123500Y-140086329D01*
X93123500Y-139913671D01*
X93157183Y-139744335D01*
X93223255Y-139584823D01*
X93319178Y-139441264D01*
X93441264Y-139319178D01*
X93584823Y-139223255D01*
X93678262Y-139184551D01*
X93744334Y-139157183D01*
X93829003Y-139140342D01*
X93913671Y-139123500D01*
X94086329Y-139123500D01*
X94170997Y-139140342D01*
G37*
G36*
X88170997Y-139140342D02*
G01*
X88255666Y-139157183D01*
X88321738Y-139184551D01*
X88415177Y-139223255D01*
X88558736Y-139319178D01*
X88680822Y-139441264D01*
X88776745Y-139584823D01*
X88842817Y-139744335D01*
X88876500Y-139913671D01*
X88876500Y-140086329D01*
X88842817Y-140255665D01*
X88776745Y-140415177D01*
X88680822Y-140558736D01*
X88558736Y-140680822D01*
X88415177Y-140776745D01*
X88321738Y-140815449D01*
X88255666Y-140842817D01*
X88170997Y-140859659D01*
X88086329Y-140876500D01*
X87913671Y-140876500D01*
X87829003Y-140859659D01*
X87744334Y-140842817D01*
X87678262Y-140815449D01*
X87584823Y-140776745D01*
X87441264Y-140680822D01*
X87319178Y-140558736D01*
X87223255Y-140415177D01*
X87157183Y-140255665D01*
X87123500Y-140086329D01*
X87123500Y-139913671D01*
X87157183Y-139744335D01*
X87223255Y-139584823D01*
X87319178Y-139441264D01*
X87441264Y-139319178D01*
X87584823Y-139223255D01*
X87678262Y-139184551D01*
X87744334Y-139157183D01*
X87829003Y-139140342D01*
X87913671Y-139123500D01*
X88086329Y-139123500D01*
X88170997Y-139140342D01*
G37*
G36*
X94170997Y-136600342D02*
G01*
X94255666Y-136617183D01*
X94321738Y-136644551D01*
X94415177Y-136683255D01*
X94558736Y-136779178D01*
X94680822Y-136901264D01*
X94776745Y-137044823D01*
X94842817Y-137204335D01*
X94876500Y-137373671D01*
X94876500Y-137546329D01*
X94842817Y-137715665D01*
X94776745Y-137875177D01*
X94680822Y-138018736D01*
X94558736Y-138140822D01*
X94415177Y-138236745D01*
X94321738Y-138275449D01*
X94255666Y-138302817D01*
X94170997Y-138319658D01*
X94086329Y-138336500D01*
X93913671Y-138336500D01*
X93829003Y-138319658D01*
X93744334Y-138302817D01*
X93678262Y-138275449D01*
X93584823Y-138236745D01*
X93441264Y-138140822D01*
X93319178Y-138018736D01*
X93223255Y-137875177D01*
X93157183Y-137715665D01*
X93123500Y-137546329D01*
X93123500Y-137373671D01*
X93157183Y-137204335D01*
X93223255Y-137044823D01*
X93319178Y-136901264D01*
X93441264Y-136779178D01*
X93584823Y-136683255D01*
X93678262Y-136644551D01*
X93744334Y-136617183D01*
X93829003Y-136600342D01*
X93913671Y-136583500D01*
X94086329Y-136583500D01*
X94170997Y-136600342D01*
G37*
G36*
X99412300Y-136557101D02*
G01*
X98777700Y-136557101D01*
X98777700Y-135000203D01*
X99412300Y-135000203D01*
X99412300Y-136557101D01*
G37*
G36*
X103222300Y-136557101D02*
G01*
X102587700Y-136557101D01*
X102587700Y-135000203D01*
X103222300Y-135000203D01*
X103222300Y-136557101D01*
G37*
G36*
X101952300Y-136557101D02*
G01*
X101317700Y-136557101D01*
X101317700Y-135000203D01*
X101952300Y-135000203D01*
X101952300Y-136557101D01*
G37*
G36*
X100682300Y-136557101D02*
G01*
X100047700Y-136557101D01*
X100047700Y-135000203D01*
X100682300Y-135000203D01*
X100682300Y-136557101D01*
G37*
G36*
X61001008Y-124967590D02*
G01*
X61496658Y-125066181D01*
X62430440Y-125452967D01*
X63270822Y-126014492D01*
X63985508Y-126729178D01*
X64547033Y-127569560D01*
X64933819Y-128503342D01*
X65131000Y-129494641D01*
X65131000Y-130505359D01*
X64933819Y-131496658D01*
X64547033Y-132430440D01*
X63985508Y-133270822D01*
X63270822Y-133985508D01*
X62430440Y-134547033D01*
X61496658Y-134933819D01*
X61001008Y-135032410D01*
X60505361Y-135131000D01*
X59494639Y-135131000D01*
X58998992Y-135032410D01*
X58503342Y-134933819D01*
X57569560Y-134547033D01*
X56729178Y-133985508D01*
X56014492Y-133270822D01*
X55452967Y-132430440D01*
X55066181Y-131496658D01*
X54869000Y-130505359D01*
X54869000Y-129494641D01*
X55066181Y-128503342D01*
X55452967Y-127569560D01*
X56014492Y-126729178D01*
X56729178Y-126014492D01*
X57569560Y-125452967D01*
X58503342Y-125066181D01*
X58998992Y-124967590D01*
X59494639Y-124869000D01*
X60505361Y-124869000D01*
X61001008Y-124967590D01*
G37*
G36*
X101914499Y-132478445D02*
G01*
X101951995Y-132489820D01*
X101986554Y-132508292D01*
X102016847Y-132533153D01*
X102041708Y-132563446D01*
X102060180Y-132598005D01*
X102071555Y-132635501D01*
X102076000Y-132680638D01*
X102076000Y-133319362D01*
X102071555Y-133364499D01*
X102060180Y-133401995D01*
X102041708Y-133436554D01*
X102016847Y-133466847D01*
X101986554Y-133491708D01*
X101951995Y-133510180D01*
X101914499Y-133521555D01*
X101869362Y-133526000D01*
X101130638Y-133526000D01*
X101085501Y-133521555D01*
X101048005Y-133510180D01*
X101013446Y-133491708D01*
X100983153Y-133466847D01*
X100958292Y-133436554D01*
X100939820Y-133401995D01*
X100928445Y-133364499D01*
X100924000Y-133319362D01*
X100924000Y-132680638D01*
X100928445Y-132635501D01*
X100939820Y-132598005D01*
X100958292Y-132563446D01*
X100983153Y-132533153D01*
X101013446Y-132508292D01*
X101048005Y-132489820D01*
X101085501Y-132478445D01*
X101130638Y-132474000D01*
X101869362Y-132474000D01*
X101914499Y-132478445D01*
G37*
G36*
X103664499Y-132478445D02*
G01*
X103701995Y-132489820D01*
X103736554Y-132508292D01*
X103766847Y-132533153D01*
X103791708Y-132563446D01*
X103810180Y-132598005D01*
X103821555Y-132635501D01*
X103826000Y-132680638D01*
X103826000Y-133319362D01*
X103821555Y-133364499D01*
X103810180Y-133401995D01*
X103791708Y-133436554D01*
X103766847Y-133466847D01*
X103736554Y-133491708D01*
X103701995Y-133510180D01*
X103664499Y-133521555D01*
X103619362Y-133526000D01*
X102880638Y-133526000D01*
X102835501Y-133521555D01*
X102798005Y-133510180D01*
X102763446Y-133491708D01*
X102733153Y-133466847D01*
X102708292Y-133436554D01*
X102689820Y-133401995D01*
X102678445Y-133364499D01*
X102674000Y-133319362D01*
X102674000Y-132680638D01*
X102678445Y-132635501D01*
X102689820Y-132598005D01*
X102708292Y-132563446D01*
X102733153Y-132533153D01*
X102763446Y-132508292D01*
X102798005Y-132489820D01*
X102835501Y-132478445D01*
X102880638Y-132474000D01*
X103619362Y-132474000D01*
X103664499Y-132478445D01*
G37*
G36*
X96864499Y-131928445D02*
G01*
X96901995Y-131939820D01*
X96936554Y-131958292D01*
X96966847Y-131983153D01*
X96991708Y-132013446D01*
X97010180Y-132048005D01*
X97021555Y-132085501D01*
X97026000Y-132130638D01*
X97026000Y-132869362D01*
X97021555Y-132914499D01*
X97010180Y-132951995D01*
X96991708Y-132986554D01*
X96966847Y-133016847D01*
X96936554Y-133041708D01*
X96901995Y-133060180D01*
X96864499Y-133071555D01*
X96819362Y-133076000D01*
X96180638Y-133076000D01*
X96135501Y-133071555D01*
X96098005Y-133060180D01*
X96063446Y-133041708D01*
X96033153Y-133016847D01*
X96008292Y-132986554D01*
X95989820Y-132951995D01*
X95978445Y-132914499D01*
X95974000Y-132869362D01*
X95974000Y-132130638D01*
X95978445Y-132085501D01*
X95989820Y-132048005D01*
X96008292Y-132013446D01*
X96033153Y-131983153D01*
X96063446Y-131958292D01*
X96098005Y-131939820D01*
X96135501Y-131928445D01*
X96180638Y-131924000D01*
X96819362Y-131924000D01*
X96864499Y-131928445D01*
G37*
G36*
X92864499Y-131928445D02*
G01*
X92901995Y-131939820D01*
X92936554Y-131958292D01*
X92966847Y-131983153D01*
X92991708Y-132013446D01*
X93010180Y-132048005D01*
X93021555Y-132085501D01*
X93026000Y-132130638D01*
X93026000Y-132869362D01*
X93021555Y-132914499D01*
X93010180Y-132951995D01*
X92991708Y-132986554D01*
X92966847Y-133016847D01*
X92936554Y-133041708D01*
X92901995Y-133060180D01*
X92864499Y-133071555D01*
X92819362Y-133076000D01*
X92180638Y-133076000D01*
X92135501Y-133071555D01*
X92098005Y-133060180D01*
X92063446Y-133041708D01*
X92033153Y-133016847D01*
X92008292Y-132986554D01*
X91989820Y-132951995D01*
X91978445Y-132914499D01*
X91974000Y-132869362D01*
X91974000Y-132130638D01*
X91978445Y-132085501D01*
X91989820Y-132048005D01*
X92008292Y-132013446D01*
X92033153Y-131983153D01*
X92063446Y-131958292D01*
X92098005Y-131939820D01*
X92135501Y-131928445D01*
X92180638Y-131924000D01*
X92819362Y-131924000D01*
X92864499Y-131928445D01*
G37*
G36*
X98864499Y-131928445D02*
G01*
X98901995Y-131939820D01*
X98936554Y-131958292D01*
X98966847Y-131983153D01*
X98991708Y-132013446D01*
X99010180Y-132048005D01*
X99021555Y-132085501D01*
X99026000Y-132130638D01*
X99026000Y-132869362D01*
X99021555Y-132914499D01*
X99010180Y-132951995D01*
X98991708Y-132986554D01*
X98966847Y-133016847D01*
X98936554Y-133041708D01*
X98901995Y-133060180D01*
X98864499Y-133071555D01*
X98819362Y-133076000D01*
X98180638Y-133076000D01*
X98135501Y-133071555D01*
X98098005Y-133060180D01*
X98063446Y-133041708D01*
X98033153Y-133016847D01*
X98008292Y-132986554D01*
X97989820Y-132951995D01*
X97978445Y-132914499D01*
X97974000Y-132869362D01*
X97974000Y-132130638D01*
X97978445Y-132085501D01*
X97989820Y-132048005D01*
X98008292Y-132013446D01*
X98033153Y-131983153D01*
X98063446Y-131958292D01*
X98098005Y-131939820D01*
X98135501Y-131928445D01*
X98180638Y-131924000D01*
X98819362Y-131924000D01*
X98864499Y-131928445D01*
G37*
G36*
X94864499Y-131928445D02*
G01*
X94901995Y-131939820D01*
X94936554Y-131958292D01*
X94966847Y-131983153D01*
X94991708Y-132013446D01*
X95010180Y-132048005D01*
X95021555Y-132085501D01*
X95026000Y-132130638D01*
X95026000Y-132869362D01*
X95021555Y-132914499D01*
X95010180Y-132951995D01*
X94991708Y-132986554D01*
X94966847Y-133016847D01*
X94936554Y-133041708D01*
X94901995Y-133060180D01*
X94864499Y-133071555D01*
X94819362Y-133076000D01*
X94180638Y-133076000D01*
X94135501Y-133071555D01*
X94098005Y-133060180D01*
X94063446Y-133041708D01*
X94033153Y-133016847D01*
X94008292Y-132986554D01*
X93989820Y-132951995D01*
X93978445Y-132914499D01*
X93974000Y-132869362D01*
X93974000Y-132130638D01*
X93978445Y-132085501D01*
X93989820Y-132048005D01*
X94008292Y-132013446D01*
X94033153Y-131983153D01*
X94063446Y-131958292D01*
X94098005Y-131939820D01*
X94135501Y-131928445D01*
X94180638Y-131924000D01*
X94819362Y-131924000D01*
X94864499Y-131928445D01*
G37*
G36*
X94864499Y-130178445D02*
G01*
X94901995Y-130189820D01*
X94936554Y-130208292D01*
X94966847Y-130233153D01*
X94991708Y-130263446D01*
X95010180Y-130298005D01*
X95021555Y-130335501D01*
X95026000Y-130380638D01*
X95026000Y-131119362D01*
X95021555Y-131164499D01*
X95010180Y-131201995D01*
X94991708Y-131236554D01*
X94966847Y-131266847D01*
X94936554Y-131291708D01*
X94901995Y-131310180D01*
X94864499Y-131321555D01*
X94819362Y-131326000D01*
X94180638Y-131326000D01*
X94135501Y-131321555D01*
X94098005Y-131310180D01*
X94063446Y-131291708D01*
X94033153Y-131266847D01*
X94008292Y-131236554D01*
X93989820Y-131201995D01*
X93978445Y-131164499D01*
X93974000Y-131119362D01*
X93974000Y-130380638D01*
X93978445Y-130335501D01*
X93989820Y-130298005D01*
X94008292Y-130263446D01*
X94033153Y-130233153D01*
X94063446Y-130208292D01*
X94098005Y-130189820D01*
X94135501Y-130178445D01*
X94180638Y-130174000D01*
X94819362Y-130174000D01*
X94864499Y-130178445D01*
G37*
G36*
X92864499Y-130178445D02*
G01*
X92901995Y-130189820D01*
X92936554Y-130208292D01*
X92966847Y-130233153D01*
X92991708Y-130263446D01*
X93010180Y-130298005D01*
X93021555Y-130335501D01*
X93026000Y-130380638D01*
X93026000Y-131119362D01*
X93021555Y-131164499D01*
X93010180Y-131201995D01*
X92991708Y-131236554D01*
X92966847Y-131266847D01*
X92936554Y-131291708D01*
X92901995Y-131310180D01*
X92864499Y-131321555D01*
X92819362Y-131326000D01*
X92180638Y-131326000D01*
X92135501Y-131321555D01*
X92098005Y-131310180D01*
X92063446Y-131291708D01*
X92033153Y-131266847D01*
X92008292Y-131236554D01*
X91989820Y-131201995D01*
X91978445Y-131164499D01*
X91974000Y-131119362D01*
X91974000Y-130380638D01*
X91978445Y-130335501D01*
X91989820Y-130298005D01*
X92008292Y-130263446D01*
X92033153Y-130233153D01*
X92063446Y-130208292D01*
X92098005Y-130189820D01*
X92135501Y-130178445D01*
X92180638Y-130174000D01*
X92819362Y-130174000D01*
X92864499Y-130178445D01*
G37*
G36*
X98864499Y-130178445D02*
G01*
X98901995Y-130189820D01*
X98936554Y-130208292D01*
X98966847Y-130233153D01*
X98991708Y-130263446D01*
X99010180Y-130298005D01*
X99021555Y-130335501D01*
X99026000Y-130380638D01*
X99026000Y-131119362D01*
X99021555Y-131164499D01*
X99010180Y-131201995D01*
X98991708Y-131236554D01*
X98966847Y-131266847D01*
X98936554Y-131291708D01*
X98901995Y-131310180D01*
X98864499Y-131321555D01*
X98819362Y-131326000D01*
X98180638Y-131326000D01*
X98135501Y-131321555D01*
X98098005Y-131310180D01*
X98063446Y-131291708D01*
X98033153Y-131266847D01*
X98008292Y-131236554D01*
X97989820Y-131201995D01*
X97978445Y-131164499D01*
X97974000Y-131119362D01*
X97974000Y-130380638D01*
X97978445Y-130335501D01*
X97989820Y-130298005D01*
X98008292Y-130263446D01*
X98033153Y-130233153D01*
X98063446Y-130208292D01*
X98098005Y-130189820D01*
X98135501Y-130178445D01*
X98180638Y-130174000D01*
X98819362Y-130174000D01*
X98864499Y-130178445D01*
G37*
G36*
X96864499Y-130178445D02*
G01*
X96901995Y-130189820D01*
X96936554Y-130208292D01*
X96966847Y-130233153D01*
X96991708Y-130263446D01*
X97010180Y-130298005D01*
X97021555Y-130335501D01*
X97026000Y-130380638D01*
X97026000Y-131119362D01*
X97021555Y-131164499D01*
X97010180Y-131201995D01*
X96991708Y-131236554D01*
X96966847Y-131266847D01*
X96936554Y-131291708D01*
X96901995Y-131310180D01*
X96864499Y-131321555D01*
X96819362Y-131326000D01*
X96180638Y-131326000D01*
X96135501Y-131321555D01*
X96098005Y-131310180D01*
X96063446Y-131291708D01*
X96033153Y-131266847D01*
X96008292Y-131236554D01*
X95989820Y-131201995D01*
X95978445Y-131164499D01*
X95974000Y-131119362D01*
X95974000Y-130380638D01*
X95978445Y-130335501D01*
X95989820Y-130298005D01*
X96008292Y-130263446D01*
X96033153Y-130233153D01*
X96063446Y-130208292D01*
X96098005Y-130189820D01*
X96135501Y-130178445D01*
X96180638Y-130174000D01*
X96819362Y-130174000D01*
X96864499Y-130178445D01*
G37*
G36*
X93664499Y-126228445D02*
G01*
X93701995Y-126239820D01*
X93736554Y-126258292D01*
X93766847Y-126283153D01*
X93791708Y-126313446D01*
X93810180Y-126348005D01*
X93821555Y-126385501D01*
X93826000Y-126430638D01*
X93826000Y-127069362D01*
X93821555Y-127114499D01*
X93810180Y-127151995D01*
X93791708Y-127186554D01*
X93766847Y-127216847D01*
X93736554Y-127241708D01*
X93701995Y-127260180D01*
X93664499Y-127271555D01*
X93619362Y-127276000D01*
X92880638Y-127276000D01*
X92835501Y-127271555D01*
X92798005Y-127260180D01*
X92763446Y-127241708D01*
X92733153Y-127216847D01*
X92708292Y-127186554D01*
X92689820Y-127151995D01*
X92678445Y-127114499D01*
X92674000Y-127069362D01*
X92674000Y-126430638D01*
X92678445Y-126385501D01*
X92689820Y-126348005D01*
X92708292Y-126313446D01*
X92733153Y-126283153D01*
X92763446Y-126258292D01*
X92798005Y-126239820D01*
X92835501Y-126228445D01*
X92880638Y-126224000D01*
X93619362Y-126224000D01*
X93664499Y-126228445D01*
G37*
G36*
X95414499Y-126228445D02*
G01*
X95451995Y-126239820D01*
X95486554Y-126258292D01*
X95516847Y-126283153D01*
X95541708Y-126313446D01*
X95560180Y-126348005D01*
X95571555Y-126385501D01*
X95576000Y-126430638D01*
X95576000Y-127069362D01*
X95571555Y-127114499D01*
X95560180Y-127151995D01*
X95541708Y-127186554D01*
X95516847Y-127216847D01*
X95486554Y-127241708D01*
X95451995Y-127260180D01*
X95414499Y-127271555D01*
X95369362Y-127276000D01*
X94630638Y-127276000D01*
X94585501Y-127271555D01*
X94548005Y-127260180D01*
X94513446Y-127241708D01*
X94483153Y-127216847D01*
X94458292Y-127186554D01*
X94439820Y-127151995D01*
X94428445Y-127114499D01*
X94424000Y-127069362D01*
X94424000Y-126430638D01*
X94428445Y-126385501D01*
X94439820Y-126348005D01*
X94458292Y-126313446D01*
X94483153Y-126283153D01*
X94513446Y-126258292D01*
X94548005Y-126239820D01*
X94585501Y-126228445D01*
X94630638Y-126224000D01*
X95369362Y-126224000D01*
X95414499Y-126228445D01*
G37*
G36*
X88876500Y-125956500D02*
G01*
X87123500Y-125956500D01*
X87123500Y-124203500D01*
X88876500Y-124203500D01*
X88876500Y-125956500D01*
G37*
G36*
X116001009Y-114967591D02*
G01*
X116496658Y-115066181D01*
X117430440Y-115452967D01*
X118270822Y-116014492D01*
X118985508Y-116729178D01*
X119547033Y-117569560D01*
X119933819Y-118503342D01*
X119933819Y-118503344D01*
X120131000Y-119494639D01*
X120131000Y-120505361D01*
X120077018Y-120776745D01*
X119933819Y-121496658D01*
X119547033Y-122430440D01*
X118985508Y-123270822D01*
X118270822Y-123985508D01*
X117430440Y-124547033D01*
X116496658Y-124933819D01*
X116001008Y-125032410D01*
X115505361Y-125131000D01*
X114494639Y-125131000D01*
X113998992Y-125032410D01*
X113503342Y-124933819D01*
X112569560Y-124547033D01*
X111729178Y-123985508D01*
X111014492Y-123270822D01*
X110452967Y-122430440D01*
X110066181Y-121496658D01*
X109922982Y-120776745D01*
X109869000Y-120505361D01*
X109869000Y-119494639D01*
X110066181Y-118503344D01*
X110066181Y-118503342D01*
X110452967Y-117569560D01*
X111014492Y-116729178D01*
X111729178Y-116014492D01*
X112569560Y-115452967D01*
X113503342Y-115066181D01*
X113998991Y-114967591D01*
X114494639Y-114869000D01*
X115505361Y-114869000D01*
X116001009Y-114967591D01*
G37*
G36*
X98289499Y-123728445D02*
G01*
X98326995Y-123739820D01*
X98361554Y-123758292D01*
X98391847Y-123783153D01*
X98416708Y-123813446D01*
X98435180Y-123848005D01*
X98446555Y-123885501D01*
X98451000Y-123930638D01*
X98451000Y-124569362D01*
X98446555Y-124614499D01*
X98435180Y-124651995D01*
X98416708Y-124686554D01*
X98391847Y-124716847D01*
X98361554Y-124741708D01*
X98326995Y-124760180D01*
X98289499Y-124771555D01*
X98244362Y-124776000D01*
X97505638Y-124776000D01*
X97460501Y-124771555D01*
X97423005Y-124760180D01*
X97388446Y-124741708D01*
X97358153Y-124716847D01*
X97333292Y-124686554D01*
X97314820Y-124651995D01*
X97303445Y-124614499D01*
X97299000Y-124569362D01*
X97299000Y-123930638D01*
X97303445Y-123885501D01*
X97314820Y-123848005D01*
X97333292Y-123813446D01*
X97358153Y-123783153D01*
X97388446Y-123758292D01*
X97423005Y-123739820D01*
X97460501Y-123728445D01*
X97505638Y-123724000D01*
X98244362Y-123724000D01*
X98289499Y-123728445D01*
G37*
G36*
X100039499Y-123728445D02*
G01*
X100076995Y-123739820D01*
X100111554Y-123758292D01*
X100141847Y-123783153D01*
X100166708Y-123813446D01*
X100185180Y-123848005D01*
X100196555Y-123885501D01*
X100201000Y-123930638D01*
X100201000Y-124569362D01*
X100196555Y-124614499D01*
X100185180Y-124651995D01*
X100166708Y-124686554D01*
X100141847Y-124716847D01*
X100111554Y-124741708D01*
X100076995Y-124760180D01*
X100039499Y-124771555D01*
X99994362Y-124776000D01*
X99255638Y-124776000D01*
X99210501Y-124771555D01*
X99173005Y-124760180D01*
X99138446Y-124741708D01*
X99108153Y-124716847D01*
X99083292Y-124686554D01*
X99064820Y-124651995D01*
X99053445Y-124614499D01*
X99049000Y-124569362D01*
X99049000Y-123930638D01*
X99053445Y-123885501D01*
X99064820Y-123848005D01*
X99083292Y-123813446D01*
X99108153Y-123783153D01*
X99138446Y-123758292D01*
X99173005Y-123739820D01*
X99210501Y-123728445D01*
X99255638Y-123724000D01*
X99994362Y-123724000D01*
X100039499Y-123728445D01*
G37*
G36*
X94876500Y-123416500D02*
G01*
X93123500Y-123416500D01*
X93123500Y-121663500D01*
X94876500Y-121663500D01*
X94876500Y-123416500D01*
G37*
G36*
X88170997Y-121680341D02*
G01*
X88255666Y-121697183D01*
X88321738Y-121724551D01*
X88415177Y-121763255D01*
X88558736Y-121859178D01*
X88680822Y-121981264D01*
X88776745Y-122124823D01*
X88842817Y-122284335D01*
X88876500Y-122453671D01*
X88876500Y-122626329D01*
X88842817Y-122795665D01*
X88776745Y-122955177D01*
X88680822Y-123098736D01*
X88558736Y-123220822D01*
X88415177Y-123316745D01*
X88321738Y-123355449D01*
X88255666Y-123382817D01*
X88170997Y-123399659D01*
X88086329Y-123416500D01*
X87913671Y-123416500D01*
X87829003Y-123399659D01*
X87744334Y-123382817D01*
X87678262Y-123355449D01*
X87584823Y-123316745D01*
X87441264Y-123220822D01*
X87319178Y-123098736D01*
X87223255Y-122955177D01*
X87157183Y-122795665D01*
X87123500Y-122626329D01*
X87123500Y-122453671D01*
X87157183Y-122284335D01*
X87223255Y-122124823D01*
X87319178Y-121981264D01*
X87441264Y-121859178D01*
X87584823Y-121763255D01*
X87678262Y-121724551D01*
X87744334Y-121697183D01*
X87829003Y-121680341D01*
X87913671Y-121663500D01*
X88086329Y-121663500D01*
X88170997Y-121680341D01*
G37*
G36*
X101952300Y-122249797D02*
G01*
X101317700Y-122249797D01*
X101317700Y-120692899D01*
X101952300Y-120692899D01*
X101952300Y-122249797D01*
G37*
G36*
X99412300Y-122249797D02*
G01*
X98777700Y-122249797D01*
X98777700Y-120692899D01*
X99412300Y-120692899D01*
X99412300Y-122249797D01*
G37*
G36*
X100682300Y-122249797D02*
G01*
X100047700Y-122249797D01*
X100047700Y-120692899D01*
X100682300Y-120692899D01*
X100682300Y-122249797D01*
G37*
G36*
X103222300Y-122249797D02*
G01*
X102587700Y-122249797D01*
X102587700Y-120692899D01*
X103222300Y-120692899D01*
X103222300Y-122249797D01*
G37*
G36*
X88170997Y-119140341D02*
G01*
X88255666Y-119157183D01*
X88321738Y-119184551D01*
X88415177Y-119223255D01*
X88558736Y-119319178D01*
X88680822Y-119441264D01*
X88776745Y-119584823D01*
X88842817Y-119744335D01*
X88876500Y-119913671D01*
X88876500Y-120086329D01*
X88842817Y-120255665D01*
X88776745Y-120415177D01*
X88680822Y-120558736D01*
X88558736Y-120680822D01*
X88415177Y-120776745D01*
X88321738Y-120815449D01*
X88255666Y-120842817D01*
X88170997Y-120859659D01*
X88086329Y-120876500D01*
X87913671Y-120876500D01*
X87829003Y-120859659D01*
X87744334Y-120842817D01*
X87678262Y-120815449D01*
X87584823Y-120776745D01*
X87441264Y-120680822D01*
X87319178Y-120558736D01*
X87223255Y-120415177D01*
X87157183Y-120255665D01*
X87123500Y-120086329D01*
X87123500Y-119913671D01*
X87157183Y-119744335D01*
X87223255Y-119584823D01*
X87319178Y-119441264D01*
X87441264Y-119319178D01*
X87584823Y-119223255D01*
X87678262Y-119184551D01*
X87744334Y-119157183D01*
X87829003Y-119140341D01*
X87913671Y-119123500D01*
X88086329Y-119123500D01*
X88170997Y-119140341D01*
G37*
G36*
X94170997Y-119140341D02*
G01*
X94255666Y-119157183D01*
X94321738Y-119184551D01*
X94415177Y-119223255D01*
X94558736Y-119319178D01*
X94680822Y-119441264D01*
X94776745Y-119584823D01*
X94842817Y-119744335D01*
X94876500Y-119913671D01*
X94876500Y-120086329D01*
X94842817Y-120255665D01*
X94776745Y-120415177D01*
X94680822Y-120558736D01*
X94558736Y-120680822D01*
X94415177Y-120776745D01*
X94321738Y-120815449D01*
X94255666Y-120842817D01*
X94170997Y-120859659D01*
X94086329Y-120876500D01*
X93913671Y-120876500D01*
X93829003Y-120859659D01*
X93744334Y-120842817D01*
X93678262Y-120815449D01*
X93584823Y-120776745D01*
X93441264Y-120680822D01*
X93319178Y-120558736D01*
X93223255Y-120415177D01*
X93157183Y-120255665D01*
X93123500Y-120086329D01*
X93123500Y-119913671D01*
X93157183Y-119744335D01*
X93223255Y-119584823D01*
X93319178Y-119441264D01*
X93441264Y-119319178D01*
X93584823Y-119223255D01*
X93678262Y-119184551D01*
X93744334Y-119157183D01*
X93829003Y-119140341D01*
X93913671Y-119123500D01*
X94086329Y-119123500D01*
X94170997Y-119140341D01*
G37*
G36*
X94170997Y-116600341D02*
G01*
X94255666Y-116617183D01*
X94321738Y-116644551D01*
X94415177Y-116683255D01*
X94558736Y-116779178D01*
X94680822Y-116901264D01*
X94776745Y-117044823D01*
X94842817Y-117204335D01*
X94876500Y-117373671D01*
X94876500Y-117546329D01*
X94842817Y-117715665D01*
X94776745Y-117875177D01*
X94680822Y-118018736D01*
X94558736Y-118140822D01*
X94415177Y-118236745D01*
X94321738Y-118275449D01*
X94255666Y-118302817D01*
X94170997Y-118319658D01*
X94086329Y-118336500D01*
X93913671Y-118336500D01*
X93829003Y-118319658D01*
X93744334Y-118302817D01*
X93678262Y-118275449D01*
X93584823Y-118236745D01*
X93441264Y-118140822D01*
X93319178Y-118018736D01*
X93223255Y-117875177D01*
X93157183Y-117715665D01*
X93123500Y-117546329D01*
X93123500Y-117373671D01*
X93157183Y-117204335D01*
X93223255Y-117044823D01*
X93319178Y-116901264D01*
X93441264Y-116779178D01*
X93584823Y-116683255D01*
X93678262Y-116644551D01*
X93744334Y-116617183D01*
X93829003Y-116600341D01*
X93913671Y-116583500D01*
X94086329Y-116583500D01*
X94170997Y-116600341D01*
G37*
G36*
X100682300Y-116807101D02*
G01*
X100047700Y-116807101D01*
X100047700Y-115250203D01*
X100682300Y-115250203D01*
X100682300Y-116807101D01*
G37*
G36*
X99412300Y-116807101D02*
G01*
X98777700Y-116807101D01*
X98777700Y-115250203D01*
X99412300Y-115250203D01*
X99412300Y-116807101D01*
G37*
G36*
X103222300Y-116807101D02*
G01*
X102587700Y-116807101D01*
X102587700Y-115250203D01*
X103222300Y-115250203D01*
X103222300Y-116807101D01*
G37*
G36*
X101952300Y-116807101D02*
G01*
X101317700Y-116807101D01*
X101317700Y-115250203D01*
X101952300Y-115250203D01*
X101952300Y-116807101D01*
G37*
G36*
X60907392Y-104948969D02*
G01*
X61496658Y-105066181D01*
X62430440Y-105452967D01*
X63270822Y-106014492D01*
X63985508Y-106729178D01*
X64547033Y-107569560D01*
X64933819Y-108503342D01*
X65131000Y-109494641D01*
X65131000Y-110505359D01*
X64933819Y-111496658D01*
X64547033Y-112430440D01*
X63985508Y-113270822D01*
X63270822Y-113985508D01*
X62430440Y-114547033D01*
X61496658Y-114933819D01*
X61001009Y-115032409D01*
X60505361Y-115131000D01*
X59494639Y-115131000D01*
X58998991Y-115032409D01*
X58503342Y-114933819D01*
X57569560Y-114547033D01*
X56729178Y-113985508D01*
X56014492Y-113270822D01*
X55452967Y-112430440D01*
X55066181Y-111496658D01*
X54869000Y-110505359D01*
X54869000Y-109494641D01*
X55066181Y-108503342D01*
X55452967Y-107569560D01*
X56014492Y-106729178D01*
X56729178Y-106014492D01*
X57569560Y-105452967D01*
X58503342Y-105066181D01*
X59092608Y-104948969D01*
X59494639Y-104869000D01*
X60505361Y-104869000D01*
X60907392Y-104948969D01*
G37*
G36*
X101289499Y-112978445D02*
G01*
X101326995Y-112989820D01*
X101361554Y-113008292D01*
X101391847Y-113033153D01*
X101416708Y-113063446D01*
X101435180Y-113098005D01*
X101446555Y-113135501D01*
X101451000Y-113180638D01*
X101451000Y-113819362D01*
X101446555Y-113864499D01*
X101435180Y-113901995D01*
X101416708Y-113936554D01*
X101391847Y-113966847D01*
X101361554Y-113991708D01*
X101326995Y-114010180D01*
X101289499Y-114021555D01*
X101244362Y-114026000D01*
X100505638Y-114026000D01*
X100460501Y-114021555D01*
X100423005Y-114010180D01*
X100388446Y-113991708D01*
X100358153Y-113966847D01*
X100333292Y-113936554D01*
X100314820Y-113901995D01*
X100303445Y-113864499D01*
X100299000Y-113819362D01*
X100299000Y-113180638D01*
X100303445Y-113135501D01*
X100314820Y-113098005D01*
X100333292Y-113063446D01*
X100358153Y-113033153D01*
X100388446Y-113008292D01*
X100423005Y-112989820D01*
X100460501Y-112978445D01*
X100505638Y-112974000D01*
X101244362Y-112974000D01*
X101289499Y-112978445D01*
G37*
G36*
X103039499Y-112978445D02*
G01*
X103076995Y-112989820D01*
X103111554Y-113008292D01*
X103141847Y-113033153D01*
X103166708Y-113063446D01*
X103185180Y-113098005D01*
X103196555Y-113135501D01*
X103201000Y-113180638D01*
X103201000Y-113819362D01*
X103196555Y-113864499D01*
X103185180Y-113901995D01*
X103166708Y-113936554D01*
X103141847Y-113966847D01*
X103111554Y-113991708D01*
X103076995Y-114010180D01*
X103039499Y-114021555D01*
X102994362Y-114026000D01*
X102255638Y-114026000D01*
X102210501Y-114021555D01*
X102173005Y-114010180D01*
X102138446Y-113991708D01*
X102108153Y-113966847D01*
X102083292Y-113936554D01*
X102064820Y-113901995D01*
X102053445Y-113864499D01*
X102049000Y-113819362D01*
X102049000Y-113180638D01*
X102053445Y-113135501D01*
X102064820Y-113098005D01*
X102083292Y-113063446D01*
X102108153Y-113033153D01*
X102138446Y-113008292D01*
X102173005Y-112989820D01*
X102210501Y-112978445D01*
X102255638Y-112974000D01*
X102994362Y-112974000D01*
X103039499Y-112978445D01*
G37*
G36*
X91114499Y-111678445D02*
G01*
X91151995Y-111689820D01*
X91186554Y-111708292D01*
X91216847Y-111733153D01*
X91241708Y-111763446D01*
X91260180Y-111798005D01*
X91271555Y-111835501D01*
X91276000Y-111880638D01*
X91276000Y-112619362D01*
X91271555Y-112664499D01*
X91260180Y-112701995D01*
X91241708Y-112736554D01*
X91216847Y-112766847D01*
X91186554Y-112791708D01*
X91151995Y-112810180D01*
X91114499Y-112821555D01*
X91069362Y-112826000D01*
X90430638Y-112826000D01*
X90385501Y-112821555D01*
X90348005Y-112810180D01*
X90313446Y-112791708D01*
X90283153Y-112766847D01*
X90258292Y-112736554D01*
X90239820Y-112701995D01*
X90228445Y-112664499D01*
X90224000Y-112619362D01*
X90224000Y-111880638D01*
X90228445Y-111835501D01*
X90239820Y-111798005D01*
X90258292Y-111763446D01*
X90283153Y-111733153D01*
X90313446Y-111708292D01*
X90348005Y-111689820D01*
X90385501Y-111678445D01*
X90430638Y-111674000D01*
X91069362Y-111674000D01*
X91114499Y-111678445D01*
G37*
G36*
X94614499Y-111678445D02*
G01*
X94651995Y-111689820D01*
X94686554Y-111708292D01*
X94716847Y-111733153D01*
X94741708Y-111763446D01*
X94760180Y-111798005D01*
X94771555Y-111835501D01*
X94776000Y-111880638D01*
X94776000Y-112619362D01*
X94771555Y-112664499D01*
X94760180Y-112701995D01*
X94741708Y-112736554D01*
X94716847Y-112766847D01*
X94686554Y-112791708D01*
X94651995Y-112810180D01*
X94614499Y-112821555D01*
X94569362Y-112826000D01*
X93930638Y-112826000D01*
X93885501Y-112821555D01*
X93848005Y-112810180D01*
X93813446Y-112791708D01*
X93783153Y-112766847D01*
X93758292Y-112736554D01*
X93739820Y-112701995D01*
X93728445Y-112664499D01*
X93724000Y-112619362D01*
X93724000Y-111880638D01*
X93728445Y-111835501D01*
X93739820Y-111798005D01*
X93758292Y-111763446D01*
X93783153Y-111733153D01*
X93813446Y-111708292D01*
X93848005Y-111689820D01*
X93885501Y-111678445D01*
X93930638Y-111674000D01*
X94569362Y-111674000D01*
X94614499Y-111678445D01*
G37*
G36*
X92864499Y-111678445D02*
G01*
X92901995Y-111689820D01*
X92936554Y-111708292D01*
X92966847Y-111733153D01*
X92991708Y-111763446D01*
X93010180Y-111798005D01*
X93021555Y-111835501D01*
X93026000Y-111880638D01*
X93026000Y-112619362D01*
X93021555Y-112664499D01*
X93010180Y-112701995D01*
X92991708Y-112736554D01*
X92966847Y-112766847D01*
X92936554Y-112791708D01*
X92901995Y-112810180D01*
X92864499Y-112821555D01*
X92819362Y-112826000D01*
X92180638Y-112826000D01*
X92135501Y-112821555D01*
X92098005Y-112810180D01*
X92063446Y-112791708D01*
X92033153Y-112766847D01*
X92008292Y-112736554D01*
X91989820Y-112701995D01*
X91978445Y-112664499D01*
X91974000Y-112619362D01*
X91974000Y-111880638D01*
X91978445Y-111835501D01*
X91989820Y-111798005D01*
X92008292Y-111763446D01*
X92033153Y-111733153D01*
X92063446Y-111708292D01*
X92098005Y-111689820D01*
X92135501Y-111678445D01*
X92180638Y-111674000D01*
X92819362Y-111674000D01*
X92864499Y-111678445D01*
G37*
G36*
X96364499Y-111678445D02*
G01*
X96401995Y-111689820D01*
X96436554Y-111708292D01*
X96466847Y-111733153D01*
X96491708Y-111763446D01*
X96510180Y-111798005D01*
X96521555Y-111835501D01*
X96526000Y-111880638D01*
X96526000Y-112619362D01*
X96521555Y-112664499D01*
X96510180Y-112701995D01*
X96491708Y-112736554D01*
X96466847Y-112766847D01*
X96436554Y-112791708D01*
X96401995Y-112810180D01*
X96364499Y-112821555D01*
X96319362Y-112826000D01*
X95680638Y-112826000D01*
X95635501Y-112821555D01*
X95598005Y-112810180D01*
X95563446Y-112791708D01*
X95533153Y-112766847D01*
X95508292Y-112736554D01*
X95489820Y-112701995D01*
X95478445Y-112664499D01*
X95474000Y-112619362D01*
X95474000Y-111880638D01*
X95478445Y-111835501D01*
X95489820Y-111798005D01*
X95508292Y-111763446D01*
X95533153Y-111733153D01*
X95563446Y-111708292D01*
X95598005Y-111689820D01*
X95635501Y-111678445D01*
X95680638Y-111674000D01*
X96319362Y-111674000D01*
X96364499Y-111678445D01*
G37*
G36*
X94614499Y-109928445D02*
G01*
X94651995Y-109939820D01*
X94686554Y-109958292D01*
X94716847Y-109983153D01*
X94741708Y-110013446D01*
X94760180Y-110048005D01*
X94771555Y-110085501D01*
X94776000Y-110130638D01*
X94776000Y-110869362D01*
X94771555Y-110914499D01*
X94760180Y-110951995D01*
X94741708Y-110986554D01*
X94716847Y-111016847D01*
X94686554Y-111041708D01*
X94651995Y-111060180D01*
X94614499Y-111071555D01*
X94569362Y-111076000D01*
X93930638Y-111076000D01*
X93885501Y-111071555D01*
X93848005Y-111060180D01*
X93813446Y-111041708D01*
X93783153Y-111016847D01*
X93758292Y-110986554D01*
X93739820Y-110951995D01*
X93728445Y-110914499D01*
X93724000Y-110869362D01*
X93724000Y-110130638D01*
X93728445Y-110085501D01*
X93739820Y-110048005D01*
X93758292Y-110013446D01*
X93783153Y-109983153D01*
X93813446Y-109958292D01*
X93848005Y-109939820D01*
X93885501Y-109928445D01*
X93930638Y-109924000D01*
X94569362Y-109924000D01*
X94614499Y-109928445D01*
G37*
G36*
X96364499Y-109928445D02*
G01*
X96401995Y-109939820D01*
X96436554Y-109958292D01*
X96466847Y-109983153D01*
X96491708Y-110013446D01*
X96510180Y-110048005D01*
X96521555Y-110085501D01*
X96526000Y-110130638D01*
X96526000Y-110869362D01*
X96521555Y-110914499D01*
X96510180Y-110951995D01*
X96491708Y-110986554D01*
X96466847Y-111016847D01*
X96436554Y-111041708D01*
X96401995Y-111060180D01*
X96364499Y-111071555D01*
X96319362Y-111076000D01*
X95680638Y-111076000D01*
X95635501Y-111071555D01*
X95598005Y-111060180D01*
X95563446Y-111041708D01*
X95533153Y-111016847D01*
X95508292Y-110986554D01*
X95489820Y-110951995D01*
X95478445Y-110914499D01*
X95474000Y-110869362D01*
X95474000Y-110130638D01*
X95478445Y-110085501D01*
X95489820Y-110048005D01*
X95508292Y-110013446D01*
X95533153Y-109983153D01*
X95563446Y-109958292D01*
X95598005Y-109939820D01*
X95635501Y-109928445D01*
X95680638Y-109924000D01*
X96319362Y-109924000D01*
X96364499Y-109928445D01*
G37*
G36*
X91114499Y-109928445D02*
G01*
X91151995Y-109939820D01*
X91186554Y-109958292D01*
X91216847Y-109983153D01*
X91241708Y-110013446D01*
X91260180Y-110048005D01*
X91271555Y-110085501D01*
X91276000Y-110130638D01*
X91276000Y-110869362D01*
X91271555Y-110914499D01*
X91260180Y-110951995D01*
X91241708Y-110986554D01*
X91216847Y-111016847D01*
X91186554Y-111041708D01*
X91151995Y-111060180D01*
X91114499Y-111071555D01*
X91069362Y-111076000D01*
X90430638Y-111076000D01*
X90385501Y-111071555D01*
X90348005Y-111060180D01*
X90313446Y-111041708D01*
X90283153Y-111016847D01*
X90258292Y-110986554D01*
X90239820Y-110951995D01*
X90228445Y-110914499D01*
X90224000Y-110869362D01*
X90224000Y-110130638D01*
X90228445Y-110085501D01*
X90239820Y-110048005D01*
X90258292Y-110013446D01*
X90283153Y-109983153D01*
X90313446Y-109958292D01*
X90348005Y-109939820D01*
X90385501Y-109928445D01*
X90430638Y-109924000D01*
X91069362Y-109924000D01*
X91114499Y-109928445D01*
G37*
G36*
X92864499Y-109928445D02*
G01*
X92901995Y-109939820D01*
X92936554Y-109958292D01*
X92966847Y-109983153D01*
X92991708Y-110013446D01*
X93010180Y-110048005D01*
X93021555Y-110085501D01*
X93026000Y-110130638D01*
X93026000Y-110869362D01*
X93021555Y-110914499D01*
X93010180Y-110951995D01*
X92991708Y-110986554D01*
X92966847Y-111016847D01*
X92936554Y-111041708D01*
X92901995Y-111060180D01*
X92864499Y-111071555D01*
X92819362Y-111076000D01*
X92180638Y-111076000D01*
X92135501Y-111071555D01*
X92098005Y-111060180D01*
X92063446Y-111041708D01*
X92033153Y-111016847D01*
X92008292Y-110986554D01*
X91989820Y-110951995D01*
X91978445Y-110914499D01*
X91974000Y-110869362D01*
X91974000Y-110130638D01*
X91978445Y-110085501D01*
X91989820Y-110048005D01*
X92008292Y-110013446D01*
X92033153Y-109983153D01*
X92063446Y-109958292D01*
X92098005Y-109939820D01*
X92135501Y-109928445D01*
X92180638Y-109924000D01*
X92819362Y-109924000D01*
X92864499Y-109928445D01*
G37*
G36*
X93039499Y-106228445D02*
G01*
X93076995Y-106239820D01*
X93111554Y-106258292D01*
X93141847Y-106283153D01*
X93166708Y-106313446D01*
X93185180Y-106348005D01*
X93196555Y-106385501D01*
X93201000Y-106430638D01*
X93201000Y-107069362D01*
X93196555Y-107114499D01*
X93185180Y-107151995D01*
X93166708Y-107186554D01*
X93141847Y-107216847D01*
X93111554Y-107241708D01*
X93076995Y-107260180D01*
X93039499Y-107271555D01*
X92994362Y-107276000D01*
X92255638Y-107276000D01*
X92210501Y-107271555D01*
X92173005Y-107260180D01*
X92138446Y-107241708D01*
X92108153Y-107216847D01*
X92083292Y-107186554D01*
X92064820Y-107151995D01*
X92053445Y-107114499D01*
X92049000Y-107069362D01*
X92049000Y-106430638D01*
X92053445Y-106385501D01*
X92064820Y-106348005D01*
X92083292Y-106313446D01*
X92108153Y-106283153D01*
X92138446Y-106258292D01*
X92173005Y-106239820D01*
X92210501Y-106228445D01*
X92255638Y-106224000D01*
X92994362Y-106224000D01*
X93039499Y-106228445D01*
G37*
G36*
X94789499Y-106228445D02*
G01*
X94826995Y-106239820D01*
X94861554Y-106258292D01*
X94891847Y-106283153D01*
X94916708Y-106313446D01*
X94935180Y-106348005D01*
X94946555Y-106385501D01*
X94951000Y-106430638D01*
X94951000Y-107069362D01*
X94946555Y-107114499D01*
X94935180Y-107151995D01*
X94916708Y-107186554D01*
X94891847Y-107216847D01*
X94861554Y-107241708D01*
X94826995Y-107260180D01*
X94789499Y-107271555D01*
X94744362Y-107276000D01*
X94005638Y-107276000D01*
X93960501Y-107271555D01*
X93923005Y-107260180D01*
X93888446Y-107241708D01*
X93858153Y-107216847D01*
X93833292Y-107186554D01*
X93814820Y-107151995D01*
X93803445Y-107114499D01*
X93799000Y-107069362D01*
X93799000Y-106430638D01*
X93803445Y-106385501D01*
X93814820Y-106348005D01*
X93833292Y-106313446D01*
X93858153Y-106283153D01*
X93888446Y-106258292D01*
X93923005Y-106239820D01*
X93960501Y-106228445D01*
X94005638Y-106224000D01*
X94744362Y-106224000D01*
X94789499Y-106228445D01*
G37*
G36*
X88876500Y-105956500D02*
G01*
X87123500Y-105956500D01*
X87123500Y-104203500D01*
X88876500Y-104203500D01*
X88876500Y-105956500D01*
G37*
G36*
X116001008Y-94967590D02*
G01*
X116496658Y-95066181D01*
X117430440Y-95452967D01*
X118270822Y-96014492D01*
X118985508Y-96729178D01*
X119547033Y-97569560D01*
X119933819Y-98503342D01*
X119933819Y-98503344D01*
X120131000Y-99494639D01*
X120131000Y-100505361D01*
X120077018Y-100776745D01*
X119933819Y-101496658D01*
X119547033Y-102430440D01*
X118985508Y-103270822D01*
X118270822Y-103985508D01*
X117430440Y-104547033D01*
X116496658Y-104933819D01*
X116055578Y-105021555D01*
X115505361Y-105131000D01*
X114494639Y-105131000D01*
X113944422Y-105021555D01*
X113503342Y-104933819D01*
X112569560Y-104547033D01*
X111729178Y-103985508D01*
X111014492Y-103270822D01*
X110452967Y-102430440D01*
X110066181Y-101496658D01*
X109922982Y-100776745D01*
X109869000Y-100505361D01*
X109869000Y-99494639D01*
X110066181Y-98503344D01*
X110066181Y-98503342D01*
X110452967Y-97569560D01*
X111014492Y-96729178D01*
X111729178Y-96014492D01*
X112569560Y-95452967D01*
X113503342Y-95066181D01*
X113998992Y-94967590D01*
X114494639Y-94869000D01*
X115505361Y-94869000D01*
X116001008Y-94967590D01*
G37*
G36*
X98039499Y-103978445D02*
G01*
X98076995Y-103989820D01*
X98111554Y-104008292D01*
X98141847Y-104033153D01*
X98166708Y-104063446D01*
X98185180Y-104098005D01*
X98196555Y-104135501D01*
X98201000Y-104180638D01*
X98201000Y-104819362D01*
X98196555Y-104864499D01*
X98185180Y-104901995D01*
X98166708Y-104936554D01*
X98141847Y-104966847D01*
X98111554Y-104991708D01*
X98076995Y-105010180D01*
X98039499Y-105021555D01*
X97994362Y-105026000D01*
X97255638Y-105026000D01*
X97210501Y-105021555D01*
X97173005Y-105010180D01*
X97138446Y-104991708D01*
X97108153Y-104966847D01*
X97083292Y-104936554D01*
X97064820Y-104901995D01*
X97053445Y-104864499D01*
X97049000Y-104819362D01*
X97049000Y-104180638D01*
X97053445Y-104135501D01*
X97064820Y-104098005D01*
X97083292Y-104063446D01*
X97108153Y-104033153D01*
X97138446Y-104008292D01*
X97173005Y-103989820D01*
X97210501Y-103978445D01*
X97255638Y-103974000D01*
X97994362Y-103974000D01*
X98039499Y-103978445D01*
G37*
G36*
X99789499Y-103978445D02*
G01*
X99826995Y-103989820D01*
X99861554Y-104008292D01*
X99891847Y-104033153D01*
X99916708Y-104063446D01*
X99935180Y-104098005D01*
X99946555Y-104135501D01*
X99951000Y-104180638D01*
X99951000Y-104819362D01*
X99946555Y-104864499D01*
X99935180Y-104901995D01*
X99916708Y-104936554D01*
X99891847Y-104966847D01*
X99861554Y-104991708D01*
X99826995Y-105010180D01*
X99789499Y-105021555D01*
X99744362Y-105026000D01*
X99005638Y-105026000D01*
X98960501Y-105021555D01*
X98923005Y-105010180D01*
X98888446Y-104991708D01*
X98858153Y-104966847D01*
X98833292Y-104936554D01*
X98814820Y-104901995D01*
X98803445Y-104864499D01*
X98799000Y-104819362D01*
X98799000Y-104180638D01*
X98803445Y-104135501D01*
X98814820Y-104098005D01*
X98833292Y-104063446D01*
X98858153Y-104033153D01*
X98888446Y-104008292D01*
X98923005Y-103989820D01*
X98960501Y-103978445D01*
X99005638Y-103974000D01*
X99744362Y-103974000D01*
X99789499Y-103978445D01*
G37*
G36*
X94876500Y-103416500D02*
G01*
X93123500Y-103416500D01*
X93123500Y-101663500D01*
X94876500Y-101663500D01*
X94876500Y-103416500D01*
G37*
G36*
X88170997Y-101680342D02*
G01*
X88255666Y-101697183D01*
X88321738Y-101724551D01*
X88415177Y-101763255D01*
X88558736Y-101859178D01*
X88680822Y-101981264D01*
X88776745Y-102124823D01*
X88842817Y-102284335D01*
X88876500Y-102453671D01*
X88876500Y-102626329D01*
X88842817Y-102795665D01*
X88776745Y-102955177D01*
X88680822Y-103098736D01*
X88558736Y-103220822D01*
X88415177Y-103316745D01*
X88321738Y-103355449D01*
X88255666Y-103382817D01*
X88170997Y-103399659D01*
X88086329Y-103416500D01*
X87913671Y-103416500D01*
X87829003Y-103399659D01*
X87744334Y-103382817D01*
X87678262Y-103355449D01*
X87584823Y-103316745D01*
X87441264Y-103220822D01*
X87319178Y-103098736D01*
X87223255Y-102955177D01*
X87157183Y-102795665D01*
X87123500Y-102626329D01*
X87123500Y-102453671D01*
X87157183Y-102284335D01*
X87223255Y-102124823D01*
X87319178Y-101981264D01*
X87441264Y-101859178D01*
X87584823Y-101763255D01*
X87678262Y-101724551D01*
X87744334Y-101697183D01*
X87829003Y-101680342D01*
X87913671Y-101663500D01*
X88086329Y-101663500D01*
X88170997Y-101680342D01*
G37*
G36*
X103722300Y-102249797D02*
G01*
X103087700Y-102249797D01*
X103087700Y-100692899D01*
X103722300Y-100692899D01*
X103722300Y-102249797D01*
G37*
G36*
X102452300Y-102249797D02*
G01*
X101817700Y-102249797D01*
X101817700Y-100692899D01*
X102452300Y-100692899D01*
X102452300Y-102249797D01*
G37*
G36*
X101182300Y-102249797D02*
G01*
X100547700Y-102249797D01*
X100547700Y-100692899D01*
X101182300Y-100692899D01*
X101182300Y-102249797D01*
G37*
G36*
X99912300Y-102249797D02*
G01*
X99277700Y-102249797D01*
X99277700Y-100692899D01*
X99912300Y-100692899D01*
X99912300Y-102249797D01*
G37*
G36*
X94170997Y-99140342D02*
G01*
X94255666Y-99157183D01*
X94321738Y-99184551D01*
X94415177Y-99223255D01*
X94558736Y-99319178D01*
X94680822Y-99441264D01*
X94776745Y-99584823D01*
X94842817Y-99744335D01*
X94876500Y-99913671D01*
X94876500Y-100086329D01*
X94842817Y-100255665D01*
X94776745Y-100415177D01*
X94680822Y-100558736D01*
X94558736Y-100680822D01*
X94415177Y-100776745D01*
X94321738Y-100815449D01*
X94255666Y-100842817D01*
X94170997Y-100859658D01*
X94086329Y-100876500D01*
X93913671Y-100876500D01*
X93829003Y-100859659D01*
X93744334Y-100842817D01*
X93678262Y-100815449D01*
X93584823Y-100776745D01*
X93441264Y-100680822D01*
X93319178Y-100558736D01*
X93223255Y-100415177D01*
X93157183Y-100255665D01*
X93123500Y-100086329D01*
X93123500Y-99913671D01*
X93157183Y-99744335D01*
X93223255Y-99584823D01*
X93319178Y-99441264D01*
X93441264Y-99319178D01*
X93584823Y-99223255D01*
X93678262Y-99184551D01*
X93744334Y-99157183D01*
X93829003Y-99140342D01*
X93913671Y-99123500D01*
X94086329Y-99123500D01*
X94170997Y-99140342D01*
G37*
G36*
X88170997Y-99140342D02*
G01*
X88255666Y-99157183D01*
X88321738Y-99184551D01*
X88415177Y-99223255D01*
X88558736Y-99319178D01*
X88680822Y-99441264D01*
X88776745Y-99584823D01*
X88842817Y-99744335D01*
X88876500Y-99913671D01*
X88876500Y-100086329D01*
X88842817Y-100255665D01*
X88776745Y-100415177D01*
X88680822Y-100558736D01*
X88558736Y-100680822D01*
X88415177Y-100776745D01*
X88321738Y-100815449D01*
X88255666Y-100842817D01*
X88170997Y-100859658D01*
X88086329Y-100876500D01*
X87913671Y-100876500D01*
X87829003Y-100859659D01*
X87744334Y-100842817D01*
X87678262Y-100815449D01*
X87584823Y-100776745D01*
X87441264Y-100680822D01*
X87319178Y-100558736D01*
X87223255Y-100415177D01*
X87157183Y-100255665D01*
X87123500Y-100086329D01*
X87123500Y-99913671D01*
X87157183Y-99744335D01*
X87223255Y-99584823D01*
X87319178Y-99441264D01*
X87441264Y-99319178D01*
X87584823Y-99223255D01*
X87678262Y-99184551D01*
X87744334Y-99157183D01*
X87829003Y-99140342D01*
X87913671Y-99123500D01*
X88086329Y-99123500D01*
X88170997Y-99140342D01*
G37*
G36*
X94170997Y-96600341D02*
G01*
X94255666Y-96617183D01*
X94321738Y-96644551D01*
X94415177Y-96683255D01*
X94558736Y-96779178D01*
X94680822Y-96901264D01*
X94776745Y-97044823D01*
X94842817Y-97204335D01*
X94876500Y-97373671D01*
X94876500Y-97546329D01*
X94842817Y-97715665D01*
X94776745Y-97875177D01*
X94680822Y-98018736D01*
X94558736Y-98140822D01*
X94415177Y-98236745D01*
X94321738Y-98275449D01*
X94255666Y-98302817D01*
X94170997Y-98319659D01*
X94086329Y-98336500D01*
X93913671Y-98336500D01*
X93829003Y-98319659D01*
X93744334Y-98302817D01*
X93678262Y-98275449D01*
X93584823Y-98236745D01*
X93441264Y-98140822D01*
X93319178Y-98018736D01*
X93223255Y-97875177D01*
X93157183Y-97715665D01*
X93123500Y-97546329D01*
X93123500Y-97373671D01*
X93157183Y-97204335D01*
X93223255Y-97044823D01*
X93319178Y-96901264D01*
X93441264Y-96779178D01*
X93584823Y-96683255D01*
X93678262Y-96644551D01*
X93744334Y-96617183D01*
X93829003Y-96600341D01*
X93913671Y-96583500D01*
X94086329Y-96583500D01*
X94170997Y-96600341D01*
G37*
G36*
X99912300Y-96807101D02*
G01*
X99277700Y-96807101D01*
X99277700Y-95250203D01*
X99912300Y-95250203D01*
X99912300Y-96807101D01*
G37*
G36*
X103722300Y-96807101D02*
G01*
X103087700Y-96807101D01*
X103087700Y-95250203D01*
X103722300Y-95250203D01*
X103722300Y-96807101D01*
G37*
G36*
X102452300Y-96807101D02*
G01*
X101817700Y-96807101D01*
X101817700Y-95250203D01*
X102452300Y-95250203D01*
X102452300Y-96807101D01*
G37*
G36*
X101182300Y-96807101D02*
G01*
X100547700Y-96807101D01*
X100547700Y-95250203D01*
X101182300Y-95250203D01*
X101182300Y-96807101D01*
G37*
G36*
X67653429Y-93716847D02*
G01*
X67755666Y-93737183D01*
X67801045Y-93755980D01*
X67915177Y-93803255D01*
X68058736Y-93899178D01*
X68180822Y-94021264D01*
X68276745Y-94164823D01*
X68342817Y-94324335D01*
X68376500Y-94493671D01*
X68376500Y-94666329D01*
X68342817Y-94835665D01*
X68276745Y-94995177D01*
X68180822Y-95138736D01*
X68058736Y-95260822D01*
X67915177Y-95356745D01*
X67821738Y-95395449D01*
X67755666Y-95422817D01*
X67670997Y-95439658D01*
X67586329Y-95456500D01*
X67413671Y-95456500D01*
X67329003Y-95439659D01*
X67244334Y-95422817D01*
X67178262Y-95395449D01*
X67084823Y-95356745D01*
X66941264Y-95260822D01*
X66819178Y-95138736D01*
X66723255Y-94995177D01*
X66657183Y-94835665D01*
X66623500Y-94666329D01*
X66623500Y-94493671D01*
X66657183Y-94324335D01*
X66723255Y-94164823D01*
X66819178Y-94021264D01*
X66941264Y-93899178D01*
X67084823Y-93803255D01*
X67198955Y-93755980D01*
X67244334Y-93737183D01*
X67346571Y-93716847D01*
X67413671Y-93703500D01*
X67586329Y-93703500D01*
X67653429Y-93716847D01*
G37*
G36*
X75376500Y-95376500D02*
G01*
X73623500Y-95376500D01*
X73623500Y-93623500D01*
X75376500Y-93623500D01*
X75376500Y-95376500D01*
G37*
G36*
X101789499Y-92728445D02*
G01*
X101826995Y-92739820D01*
X101861554Y-92758292D01*
X101891847Y-92783153D01*
X101916708Y-92813446D01*
X101935180Y-92848005D01*
X101946555Y-92885501D01*
X101951000Y-92930638D01*
X101951000Y-93569362D01*
X101946555Y-93614499D01*
X101935180Y-93651995D01*
X101916708Y-93686554D01*
X101891847Y-93716847D01*
X101861554Y-93741708D01*
X101826995Y-93760180D01*
X101789499Y-93771555D01*
X101744362Y-93776000D01*
X101005638Y-93776000D01*
X100960501Y-93771555D01*
X100923005Y-93760180D01*
X100888446Y-93741708D01*
X100858153Y-93716847D01*
X100833292Y-93686554D01*
X100814820Y-93651995D01*
X100803445Y-93614499D01*
X100799000Y-93569362D01*
X100799000Y-92930638D01*
X100803445Y-92885501D01*
X100814820Y-92848005D01*
X100833292Y-92813446D01*
X100858153Y-92783153D01*
X100888446Y-92758292D01*
X100923005Y-92739820D01*
X100960501Y-92728445D01*
X101005638Y-92724000D01*
X101744362Y-92724000D01*
X101789499Y-92728445D01*
G37*
G36*
X103539499Y-92728445D02*
G01*
X103576995Y-92739820D01*
X103611554Y-92758292D01*
X103641847Y-92783153D01*
X103666708Y-92813446D01*
X103685180Y-92848005D01*
X103696555Y-92885501D01*
X103701000Y-92930638D01*
X103701000Y-93569362D01*
X103696555Y-93614499D01*
X103685180Y-93651995D01*
X103666708Y-93686554D01*
X103641847Y-93716847D01*
X103611554Y-93741708D01*
X103576995Y-93760180D01*
X103539499Y-93771555D01*
X103494362Y-93776000D01*
X102755638Y-93776000D01*
X102710501Y-93771555D01*
X102673005Y-93760180D01*
X102638446Y-93741708D01*
X102608153Y-93716847D01*
X102583292Y-93686554D01*
X102564820Y-93651995D01*
X102553445Y-93614499D01*
X102549000Y-93569362D01*
X102549000Y-92930638D01*
X102553445Y-92885501D01*
X102564820Y-92848005D01*
X102583292Y-92813446D01*
X102608153Y-92783153D01*
X102638446Y-92758292D01*
X102673005Y-92739820D01*
X102710501Y-92728445D01*
X102755638Y-92724000D01*
X103494362Y-92724000D01*
X103539499Y-92728445D01*
G37*
G36*
X67670997Y-91180341D02*
G01*
X67755666Y-91197183D01*
X67821738Y-91224551D01*
X67915177Y-91263255D01*
X68058736Y-91359178D01*
X68180822Y-91481264D01*
X68276745Y-91624823D01*
X68309680Y-91704335D01*
X68334165Y-91763446D01*
X68342817Y-91784335D01*
X68376500Y-91953671D01*
X68376500Y-92126329D01*
X68342817Y-92295665D01*
X68276745Y-92455177D01*
X68180822Y-92598736D01*
X68058736Y-92720822D01*
X67915177Y-92816745D01*
X67821738Y-92855449D01*
X67755666Y-92882817D01*
X67670997Y-92899659D01*
X67586329Y-92916500D01*
X67413671Y-92916500D01*
X67329003Y-92899659D01*
X67244334Y-92882817D01*
X67178262Y-92855449D01*
X67084823Y-92816745D01*
X66941264Y-92720822D01*
X66819178Y-92598736D01*
X66723255Y-92455177D01*
X66657183Y-92295665D01*
X66623500Y-92126329D01*
X66623500Y-91953671D01*
X66657183Y-91784335D01*
X66665836Y-91763446D01*
X66690320Y-91704335D01*
X66723255Y-91624823D01*
X66819178Y-91481264D01*
X66941264Y-91359178D01*
X67084823Y-91263255D01*
X67178262Y-91224551D01*
X67244334Y-91197183D01*
X67329003Y-91180341D01*
X67413671Y-91163500D01*
X67586329Y-91163500D01*
X67670997Y-91180341D01*
G37*
G36*
X74670997Y-91100341D02*
G01*
X74755666Y-91117183D01*
X74821738Y-91144551D01*
X74915177Y-91183255D01*
X75058736Y-91279178D01*
X75180822Y-91401264D01*
X75276745Y-91544823D01*
X75309882Y-91624822D01*
X75342817Y-91704334D01*
X75348549Y-91733153D01*
X75376500Y-91873671D01*
X75376500Y-92046329D01*
X75342817Y-92215665D01*
X75276745Y-92375177D01*
X75180822Y-92518736D01*
X75058736Y-92640822D01*
X74915177Y-92736745D01*
X74842504Y-92766847D01*
X74755666Y-92802817D01*
X74685649Y-92816744D01*
X74586329Y-92836500D01*
X74413671Y-92836500D01*
X74314351Y-92816744D01*
X74244334Y-92802817D01*
X74157496Y-92766847D01*
X74084823Y-92736745D01*
X73941264Y-92640822D01*
X73819178Y-92518736D01*
X73723255Y-92375177D01*
X73657183Y-92215665D01*
X73623500Y-92046329D01*
X73623500Y-91873671D01*
X73651451Y-91733153D01*
X73657183Y-91704334D01*
X73690118Y-91624822D01*
X73723255Y-91544823D01*
X73819178Y-91401264D01*
X73941264Y-91279178D01*
X74084823Y-91183255D01*
X74178262Y-91144551D01*
X74244334Y-91117183D01*
X74329003Y-91100341D01*
X74413671Y-91083500D01*
X74586329Y-91083500D01*
X74670997Y-91100341D01*
G37*
G36*
X94364499Y-91678445D02*
G01*
X94401995Y-91689820D01*
X94436554Y-91708292D01*
X94466847Y-91733153D01*
X94491708Y-91763446D01*
X94510180Y-91798005D01*
X94521555Y-91835501D01*
X94526000Y-91880638D01*
X94526000Y-92619362D01*
X94521555Y-92664499D01*
X94510180Y-92701995D01*
X94491708Y-92736554D01*
X94466847Y-92766847D01*
X94436554Y-92791708D01*
X94401995Y-92810180D01*
X94364499Y-92821555D01*
X94319362Y-92826000D01*
X93680638Y-92826000D01*
X93635501Y-92821555D01*
X93598005Y-92810180D01*
X93563446Y-92791708D01*
X93533153Y-92766847D01*
X93508292Y-92736554D01*
X93489820Y-92701995D01*
X93478445Y-92664499D01*
X93474000Y-92619362D01*
X93474000Y-91880638D01*
X93478445Y-91835501D01*
X93489820Y-91798005D01*
X93508292Y-91763446D01*
X93533153Y-91733153D01*
X93563446Y-91708292D01*
X93598005Y-91689820D01*
X93635501Y-91678445D01*
X93680638Y-91674000D01*
X94319362Y-91674000D01*
X94364499Y-91678445D01*
G37*
G36*
X96114499Y-91678445D02*
G01*
X96151995Y-91689820D01*
X96186554Y-91708292D01*
X96216847Y-91733153D01*
X96241708Y-91763446D01*
X96260180Y-91798005D01*
X96271555Y-91835501D01*
X96276000Y-91880638D01*
X96276000Y-92619362D01*
X96271555Y-92664499D01*
X96260180Y-92701995D01*
X96241708Y-92736554D01*
X96216847Y-92766847D01*
X96186554Y-92791708D01*
X96151995Y-92810180D01*
X96114499Y-92821555D01*
X96069362Y-92826000D01*
X95430638Y-92826000D01*
X95385501Y-92821555D01*
X95348005Y-92810180D01*
X95313446Y-92791708D01*
X95283153Y-92766847D01*
X95258292Y-92736554D01*
X95239820Y-92701995D01*
X95228445Y-92664499D01*
X95224000Y-92619362D01*
X95224000Y-91880638D01*
X95228445Y-91835501D01*
X95239820Y-91798005D01*
X95258292Y-91763446D01*
X95283153Y-91733153D01*
X95313446Y-91708292D01*
X95348005Y-91689820D01*
X95385501Y-91678445D01*
X95430638Y-91674000D01*
X96069362Y-91674000D01*
X96114499Y-91678445D01*
G37*
G36*
X92614499Y-91678445D02*
G01*
X92651995Y-91689820D01*
X92686554Y-91708292D01*
X92716847Y-91733153D01*
X92741708Y-91763446D01*
X92760180Y-91798005D01*
X92771555Y-91835501D01*
X92776000Y-91880638D01*
X92776000Y-92619362D01*
X92771555Y-92664499D01*
X92760180Y-92701995D01*
X92741708Y-92736554D01*
X92716847Y-92766847D01*
X92686554Y-92791708D01*
X92651995Y-92810180D01*
X92614499Y-92821555D01*
X92569362Y-92826000D01*
X91930638Y-92826000D01*
X91885501Y-92821555D01*
X91848005Y-92810180D01*
X91813446Y-92791708D01*
X91783153Y-92766847D01*
X91758292Y-92736554D01*
X91739820Y-92701995D01*
X91728445Y-92664499D01*
X91724000Y-92619362D01*
X91724000Y-91880638D01*
X91728445Y-91835501D01*
X91739820Y-91798005D01*
X91758292Y-91763446D01*
X91783153Y-91733153D01*
X91813446Y-91708292D01*
X91848005Y-91689820D01*
X91885501Y-91678445D01*
X91930638Y-91674000D01*
X92569362Y-91674000D01*
X92614499Y-91678445D01*
G37*
G36*
X97864499Y-91678445D02*
G01*
X97901995Y-91689820D01*
X97936554Y-91708292D01*
X97966847Y-91733153D01*
X97991708Y-91763446D01*
X98010180Y-91798005D01*
X98021555Y-91835501D01*
X98026000Y-91880638D01*
X98026000Y-92619362D01*
X98021555Y-92664499D01*
X98010180Y-92701995D01*
X97991708Y-92736554D01*
X97966847Y-92766847D01*
X97936554Y-92791708D01*
X97901995Y-92810180D01*
X97864499Y-92821555D01*
X97819362Y-92826000D01*
X97180638Y-92826000D01*
X97135501Y-92821555D01*
X97098005Y-92810180D01*
X97063446Y-92791708D01*
X97033153Y-92766847D01*
X97008292Y-92736554D01*
X96989820Y-92701995D01*
X96978445Y-92664499D01*
X96974000Y-92619362D01*
X96974000Y-91880638D01*
X96978445Y-91835501D01*
X96989820Y-91798005D01*
X97008292Y-91763446D01*
X97033153Y-91733153D01*
X97063446Y-91708292D01*
X97098005Y-91689820D01*
X97135501Y-91678445D01*
X97180638Y-91674000D01*
X97819362Y-91674000D01*
X97864499Y-91678445D01*
G37*
G36*
X96114499Y-89928445D02*
G01*
X96151995Y-89939820D01*
X96186554Y-89958292D01*
X96216847Y-89983153D01*
X96241708Y-90013446D01*
X96260180Y-90048005D01*
X96271555Y-90085501D01*
X96276000Y-90130638D01*
X96276000Y-90869362D01*
X96271555Y-90914499D01*
X96260180Y-90951995D01*
X96241708Y-90986554D01*
X96216847Y-91016847D01*
X96186554Y-91041708D01*
X96151995Y-91060180D01*
X96114499Y-91071555D01*
X96069362Y-91076000D01*
X95430638Y-91076000D01*
X95385501Y-91071555D01*
X95348005Y-91060180D01*
X95313446Y-91041708D01*
X95283153Y-91016847D01*
X95258292Y-90986554D01*
X95239820Y-90951995D01*
X95228445Y-90914499D01*
X95224000Y-90869362D01*
X95224000Y-90130638D01*
X95228445Y-90085501D01*
X95239820Y-90048005D01*
X95258292Y-90013446D01*
X95283153Y-89983153D01*
X95313446Y-89958292D01*
X95348005Y-89939820D01*
X95385501Y-89928445D01*
X95430638Y-89924000D01*
X96069362Y-89924000D01*
X96114499Y-89928445D01*
G37*
G36*
X92614499Y-89928445D02*
G01*
X92651995Y-89939820D01*
X92686554Y-89958292D01*
X92716847Y-89983153D01*
X92741708Y-90013446D01*
X92760180Y-90048005D01*
X92771555Y-90085501D01*
X92776000Y-90130638D01*
X92776000Y-90869362D01*
X92771555Y-90914499D01*
X92760180Y-90951995D01*
X92741708Y-90986554D01*
X92716847Y-91016847D01*
X92686554Y-91041708D01*
X92651995Y-91060180D01*
X92614499Y-91071555D01*
X92569362Y-91076000D01*
X91930638Y-91076000D01*
X91885501Y-91071555D01*
X91848005Y-91060180D01*
X91813446Y-91041708D01*
X91783153Y-91016847D01*
X91758292Y-90986554D01*
X91739820Y-90951995D01*
X91728445Y-90914499D01*
X91724000Y-90869362D01*
X91724000Y-90130638D01*
X91728445Y-90085501D01*
X91739820Y-90048005D01*
X91758292Y-90013446D01*
X91783153Y-89983153D01*
X91813446Y-89958292D01*
X91848005Y-89939820D01*
X91885501Y-89928445D01*
X91930638Y-89924000D01*
X92569362Y-89924000D01*
X92614499Y-89928445D01*
G37*
G36*
X97864499Y-89928445D02*
G01*
X97901995Y-89939820D01*
X97936554Y-89958292D01*
X97966847Y-89983153D01*
X97991708Y-90013446D01*
X98010180Y-90048005D01*
X98021555Y-90085501D01*
X98026000Y-90130638D01*
X98026000Y-90869362D01*
X98021555Y-90914499D01*
X98010180Y-90951995D01*
X97991708Y-90986554D01*
X97966847Y-91016847D01*
X97936554Y-91041708D01*
X97901995Y-91060180D01*
X97864499Y-91071555D01*
X97819362Y-91076000D01*
X97180638Y-91076000D01*
X97135501Y-91071555D01*
X97098005Y-91060180D01*
X97063446Y-91041708D01*
X97033153Y-91016847D01*
X97008292Y-90986554D01*
X96989820Y-90951995D01*
X96978445Y-90914499D01*
X96974000Y-90869362D01*
X96974000Y-90130638D01*
X96978445Y-90085501D01*
X96989820Y-90048005D01*
X97008292Y-90013446D01*
X97033153Y-89983153D01*
X97063446Y-89958292D01*
X97098005Y-89939820D01*
X97135501Y-89928445D01*
X97180638Y-89924000D01*
X97819362Y-89924000D01*
X97864499Y-89928445D01*
G37*
G36*
X94364499Y-89928445D02*
G01*
X94401995Y-89939820D01*
X94436554Y-89958292D01*
X94466847Y-89983153D01*
X94491708Y-90013446D01*
X94510180Y-90048005D01*
X94521555Y-90085501D01*
X94526000Y-90130638D01*
X94526000Y-90869362D01*
X94521555Y-90914499D01*
X94510180Y-90951995D01*
X94491708Y-90986554D01*
X94466847Y-91016847D01*
X94436554Y-91041708D01*
X94401995Y-91060180D01*
X94364499Y-91071555D01*
X94319362Y-91076000D01*
X93680638Y-91076000D01*
X93635501Y-91071555D01*
X93598005Y-91060180D01*
X93563446Y-91041708D01*
X93533153Y-91016847D01*
X93508292Y-90986554D01*
X93489820Y-90951995D01*
X93478445Y-90914499D01*
X93474000Y-90869362D01*
X93474000Y-90130638D01*
X93478445Y-90085501D01*
X93489820Y-90048005D01*
X93508292Y-90013446D01*
X93533153Y-89983153D01*
X93563446Y-89958292D01*
X93598005Y-89939820D01*
X93635501Y-89928445D01*
X93680638Y-89924000D01*
X94319362Y-89924000D01*
X94364499Y-89928445D01*
G37*
G36*
X68376500Y-90376500D02*
G01*
X66623500Y-90376500D01*
X66623500Y-88623500D01*
X68376500Y-88623500D01*
X68376500Y-90376500D01*
G37*
G36*
X74670997Y-88560342D02*
G01*
X74755666Y-88577183D01*
X74821738Y-88604551D01*
X74915177Y-88643255D01*
X75058736Y-88739178D01*
X75180822Y-88861264D01*
X75276745Y-89004823D01*
X75342817Y-89164335D01*
X75376500Y-89333671D01*
X75376500Y-89506329D01*
X75342817Y-89675665D01*
X75276745Y-89835177D01*
X75180822Y-89978736D01*
X75058736Y-90100822D01*
X74915177Y-90196745D01*
X74821738Y-90235449D01*
X74755666Y-90262817D01*
X74670997Y-90279659D01*
X74586329Y-90296500D01*
X74413671Y-90296500D01*
X74329003Y-90279659D01*
X74244334Y-90262817D01*
X74178262Y-90235449D01*
X74084823Y-90196745D01*
X73941264Y-90100822D01*
X73819178Y-89978736D01*
X73723255Y-89835177D01*
X73657183Y-89675665D01*
X73623500Y-89506329D01*
X73623500Y-89333671D01*
X73657183Y-89164335D01*
X73723255Y-89004823D01*
X73819178Y-88861264D01*
X73941264Y-88739178D01*
X74084823Y-88643255D01*
X74178262Y-88604551D01*
X74244334Y-88577183D01*
X74329003Y-88560342D01*
X74413671Y-88543500D01*
X74586329Y-88543500D01*
X74670997Y-88560342D01*
G37*
G36*
X53442818Y-84107696D02*
G01*
X53556105Y-84142062D01*
X53660512Y-84197869D01*
X53752027Y-84272973D01*
X53827131Y-84364488D01*
X53882938Y-84468895D01*
X53917304Y-84582182D01*
X53926000Y-84670481D01*
X53926000Y-85429519D01*
X53917304Y-85517818D01*
X53882938Y-85631105D01*
X53827131Y-85735512D01*
X53827130Y-85735513D01*
X53752027Y-85827027D01*
X53676923Y-85888662D01*
X53660511Y-85902131D01*
X53556104Y-85957938D01*
X53442817Y-85992304D01*
X53325000Y-86003907D01*
X53207182Y-85992304D01*
X53093895Y-85957938D01*
X52989488Y-85902131D01*
X52975572Y-85890711D01*
X52897973Y-85827027D01*
X52822870Y-85735512D01*
X52822869Y-85735511D01*
X52767062Y-85631104D01*
X52732696Y-85517817D01*
X52724000Y-85429518D01*
X52724000Y-84670481D01*
X52732696Y-84582184D01*
X52752952Y-84515411D01*
X52767063Y-84468895D01*
X52822871Y-84364487D01*
X52897974Y-84272973D01*
X52989488Y-84197870D01*
X52989487Y-84197870D01*
X52989489Y-84197869D01*
X53093896Y-84142062D01*
X53207183Y-84107696D01*
X53325000Y-84096093D01*
X53442818Y-84107696D01*
G37*
G36*
X51292818Y-81107696D02*
G01*
X51406105Y-81142062D01*
X51510512Y-81197869D01*
X51602027Y-81272973D01*
X51677131Y-81364488D01*
X51732938Y-81468895D01*
X51767304Y-81582182D01*
X51776000Y-81670481D01*
X51776000Y-82829519D01*
X51767304Y-82917818D01*
X51732938Y-83031105D01*
X51677131Y-83135512D01*
X51677130Y-83135513D01*
X51602027Y-83227027D01*
X51526923Y-83288662D01*
X51510511Y-83302131D01*
X51406104Y-83357938D01*
X51292817Y-83392304D01*
X51175000Y-83403907D01*
X51057182Y-83392304D01*
X50943895Y-83357938D01*
X50839488Y-83302131D01*
X50825572Y-83290711D01*
X50747973Y-83227027D01*
X50672870Y-83135512D01*
X50672869Y-83135511D01*
X50617062Y-83031104D01*
X50582696Y-82917817D01*
X50574000Y-82829518D01*
X50574001Y-81670481D01*
X50582697Y-81582182D01*
X50617063Y-81468895D01*
X50672870Y-81364488D01*
X50747974Y-81272973D01*
X50839489Y-81197869D01*
X50943896Y-81142062D01*
X51057183Y-81107696D01*
X51175000Y-81096093D01*
X51292818Y-81107696D01*
G37*
G36*
X53442818Y-78507696D02*
G01*
X53556105Y-78542062D01*
X53660512Y-78597869D01*
X53752027Y-78672973D01*
X53827131Y-78764488D01*
X53882938Y-78868895D01*
X53917304Y-78982182D01*
X53926000Y-79070481D01*
X53926000Y-79829519D01*
X53917304Y-79917818D01*
X53882938Y-80031105D01*
X53827131Y-80135512D01*
X53827130Y-80135513D01*
X53752027Y-80227027D01*
X53676923Y-80288662D01*
X53660511Y-80302131D01*
X53556104Y-80357938D01*
X53442817Y-80392304D01*
X53325000Y-80403907D01*
X53207182Y-80392304D01*
X53093895Y-80357938D01*
X52989488Y-80302131D01*
X52975572Y-80290711D01*
X52897973Y-80227027D01*
X52822870Y-80135512D01*
X52822869Y-80135511D01*
X52767062Y-80031104D01*
X52732696Y-79917817D01*
X52724000Y-79829518D01*
X52724000Y-79070481D01*
X52732696Y-78982184D01*
X52752952Y-78915411D01*
X52767063Y-78868895D01*
X52822871Y-78764487D01*
X52897974Y-78672973D01*
X52989488Y-78597870D01*
X52989487Y-78597870D01*
X52989489Y-78597869D01*
X53093896Y-78542062D01*
X53207183Y-78507696D01*
X53325000Y-78496093D01*
X53442818Y-78507696D01*
G37*
M02*
