%TF.GenerationSoftware,KiCad,Pcbnew,5.1.5+dfsg1-2build2*%
%TF.CreationDate,2020-12-26T23:47:44-08:00*%
%TF.ProjectId,motorcontroller,6d6f746f-7263-46f6-9e74-726f6c6c6572,rev?*%
%TF.SameCoordinates,Original*%
%TF.FileFunction,Paste,Bot*%
%TF.FilePolarity,Positive*%
%FSLAX46Y46*%
G04 Gerber Fmt 4.6, Leading zero omitted, Abs format (unit mm)*
G04 Created by KiCad (PCBNEW 5.1.5+dfsg1-2build2) date 2020-12-26 23:47:44*
%MOMM*%
%LPD*%
G04 APERTURE LIST*
%ADD10R,0.532600X1.454899*%
%ADD11C,0.100000*%
G04 APERTURE END LIST*
D10*
X103405000Y-96028652D03*
X102135000Y-96028652D03*
X100865000Y-96028652D03*
X99595000Y-96028652D03*
X99595000Y-101471348D03*
X100865000Y-101471348D03*
X102135000Y-101471348D03*
X103405000Y-101471348D03*
X102905000Y-116028652D03*
X101635000Y-116028652D03*
X100365000Y-116028652D03*
X99095000Y-116028652D03*
X99095000Y-121471348D03*
X100365000Y-121471348D03*
X101635000Y-121471348D03*
X102905000Y-121471348D03*
X102905000Y-135778652D03*
X101635000Y-135778652D03*
X100365000Y-135778652D03*
X99095000Y-135778652D03*
X99095000Y-141221348D03*
X100365000Y-141221348D03*
X101635000Y-141221348D03*
X102905000Y-141221348D03*
D11*
G36*
X99685779Y-104026144D02*
G01*
X99708834Y-104029563D01*
X99731443Y-104035227D01*
X99753387Y-104043079D01*
X99774457Y-104053044D01*
X99794448Y-104065026D01*
X99813168Y-104078910D01*
X99830438Y-104094562D01*
X99846090Y-104111832D01*
X99859974Y-104130552D01*
X99871956Y-104150543D01*
X99881921Y-104171613D01*
X99889773Y-104193557D01*
X99895437Y-104216166D01*
X99898856Y-104239221D01*
X99900000Y-104262500D01*
X99900000Y-104737500D01*
X99898856Y-104760779D01*
X99895437Y-104783834D01*
X99889773Y-104806443D01*
X99881921Y-104828387D01*
X99871956Y-104849457D01*
X99859974Y-104869448D01*
X99846090Y-104888168D01*
X99830438Y-104905438D01*
X99813168Y-104921090D01*
X99794448Y-104934974D01*
X99774457Y-104946956D01*
X99753387Y-104956921D01*
X99731443Y-104964773D01*
X99708834Y-104970437D01*
X99685779Y-104973856D01*
X99662500Y-104975000D01*
X99087500Y-104975000D01*
X99064221Y-104973856D01*
X99041166Y-104970437D01*
X99018557Y-104964773D01*
X98996613Y-104956921D01*
X98975543Y-104946956D01*
X98955552Y-104934974D01*
X98936832Y-104921090D01*
X98919562Y-104905438D01*
X98903910Y-104888168D01*
X98890026Y-104869448D01*
X98878044Y-104849457D01*
X98868079Y-104828387D01*
X98860227Y-104806443D01*
X98854563Y-104783834D01*
X98851144Y-104760779D01*
X98850000Y-104737500D01*
X98850000Y-104262500D01*
X98851144Y-104239221D01*
X98854563Y-104216166D01*
X98860227Y-104193557D01*
X98868079Y-104171613D01*
X98878044Y-104150543D01*
X98890026Y-104130552D01*
X98903910Y-104111832D01*
X98919562Y-104094562D01*
X98936832Y-104078910D01*
X98955552Y-104065026D01*
X98975543Y-104053044D01*
X98996613Y-104043079D01*
X99018557Y-104035227D01*
X99041166Y-104029563D01*
X99064221Y-104026144D01*
X99087500Y-104025000D01*
X99662500Y-104025000D01*
X99685779Y-104026144D01*
G37*
G36*
X97935779Y-104026144D02*
G01*
X97958834Y-104029563D01*
X97981443Y-104035227D01*
X98003387Y-104043079D01*
X98024457Y-104053044D01*
X98044448Y-104065026D01*
X98063168Y-104078910D01*
X98080438Y-104094562D01*
X98096090Y-104111832D01*
X98109974Y-104130552D01*
X98121956Y-104150543D01*
X98131921Y-104171613D01*
X98139773Y-104193557D01*
X98145437Y-104216166D01*
X98148856Y-104239221D01*
X98150000Y-104262500D01*
X98150000Y-104737500D01*
X98148856Y-104760779D01*
X98145437Y-104783834D01*
X98139773Y-104806443D01*
X98131921Y-104828387D01*
X98121956Y-104849457D01*
X98109974Y-104869448D01*
X98096090Y-104888168D01*
X98080438Y-104905438D01*
X98063168Y-104921090D01*
X98044448Y-104934974D01*
X98024457Y-104946956D01*
X98003387Y-104956921D01*
X97981443Y-104964773D01*
X97958834Y-104970437D01*
X97935779Y-104973856D01*
X97912500Y-104975000D01*
X97337500Y-104975000D01*
X97314221Y-104973856D01*
X97291166Y-104970437D01*
X97268557Y-104964773D01*
X97246613Y-104956921D01*
X97225543Y-104946956D01*
X97205552Y-104934974D01*
X97186832Y-104921090D01*
X97169562Y-104905438D01*
X97153910Y-104888168D01*
X97140026Y-104869448D01*
X97128044Y-104849457D01*
X97118079Y-104828387D01*
X97110227Y-104806443D01*
X97104563Y-104783834D01*
X97101144Y-104760779D01*
X97100000Y-104737500D01*
X97100000Y-104262500D01*
X97101144Y-104239221D01*
X97104563Y-104216166D01*
X97110227Y-104193557D01*
X97118079Y-104171613D01*
X97128044Y-104150543D01*
X97140026Y-104130552D01*
X97153910Y-104111832D01*
X97169562Y-104094562D01*
X97186832Y-104078910D01*
X97205552Y-104065026D01*
X97225543Y-104053044D01*
X97246613Y-104043079D01*
X97268557Y-104035227D01*
X97291166Y-104029563D01*
X97314221Y-104026144D01*
X97337500Y-104025000D01*
X97912500Y-104025000D01*
X97935779Y-104026144D01*
G37*
G36*
X94685779Y-106276144D02*
G01*
X94708834Y-106279563D01*
X94731443Y-106285227D01*
X94753387Y-106293079D01*
X94774457Y-106303044D01*
X94794448Y-106315026D01*
X94813168Y-106328910D01*
X94830438Y-106344562D01*
X94846090Y-106361832D01*
X94859974Y-106380552D01*
X94871956Y-106400543D01*
X94881921Y-106421613D01*
X94889773Y-106443557D01*
X94895437Y-106466166D01*
X94898856Y-106489221D01*
X94900000Y-106512500D01*
X94900000Y-106987500D01*
X94898856Y-107010779D01*
X94895437Y-107033834D01*
X94889773Y-107056443D01*
X94881921Y-107078387D01*
X94871956Y-107099457D01*
X94859974Y-107119448D01*
X94846090Y-107138168D01*
X94830438Y-107155438D01*
X94813168Y-107171090D01*
X94794448Y-107184974D01*
X94774457Y-107196956D01*
X94753387Y-107206921D01*
X94731443Y-107214773D01*
X94708834Y-107220437D01*
X94685779Y-107223856D01*
X94662500Y-107225000D01*
X94087500Y-107225000D01*
X94064221Y-107223856D01*
X94041166Y-107220437D01*
X94018557Y-107214773D01*
X93996613Y-107206921D01*
X93975543Y-107196956D01*
X93955552Y-107184974D01*
X93936832Y-107171090D01*
X93919562Y-107155438D01*
X93903910Y-107138168D01*
X93890026Y-107119448D01*
X93878044Y-107099457D01*
X93868079Y-107078387D01*
X93860227Y-107056443D01*
X93854563Y-107033834D01*
X93851144Y-107010779D01*
X93850000Y-106987500D01*
X93850000Y-106512500D01*
X93851144Y-106489221D01*
X93854563Y-106466166D01*
X93860227Y-106443557D01*
X93868079Y-106421613D01*
X93878044Y-106400543D01*
X93890026Y-106380552D01*
X93903910Y-106361832D01*
X93919562Y-106344562D01*
X93936832Y-106328910D01*
X93955552Y-106315026D01*
X93975543Y-106303044D01*
X93996613Y-106293079D01*
X94018557Y-106285227D01*
X94041166Y-106279563D01*
X94064221Y-106276144D01*
X94087500Y-106275000D01*
X94662500Y-106275000D01*
X94685779Y-106276144D01*
G37*
G36*
X92935779Y-106276144D02*
G01*
X92958834Y-106279563D01*
X92981443Y-106285227D01*
X93003387Y-106293079D01*
X93024457Y-106303044D01*
X93044448Y-106315026D01*
X93063168Y-106328910D01*
X93080438Y-106344562D01*
X93096090Y-106361832D01*
X93109974Y-106380552D01*
X93121956Y-106400543D01*
X93131921Y-106421613D01*
X93139773Y-106443557D01*
X93145437Y-106466166D01*
X93148856Y-106489221D01*
X93150000Y-106512500D01*
X93150000Y-106987500D01*
X93148856Y-107010779D01*
X93145437Y-107033834D01*
X93139773Y-107056443D01*
X93131921Y-107078387D01*
X93121956Y-107099457D01*
X93109974Y-107119448D01*
X93096090Y-107138168D01*
X93080438Y-107155438D01*
X93063168Y-107171090D01*
X93044448Y-107184974D01*
X93024457Y-107196956D01*
X93003387Y-107206921D01*
X92981443Y-107214773D01*
X92958834Y-107220437D01*
X92935779Y-107223856D01*
X92912500Y-107225000D01*
X92337500Y-107225000D01*
X92314221Y-107223856D01*
X92291166Y-107220437D01*
X92268557Y-107214773D01*
X92246613Y-107206921D01*
X92225543Y-107196956D01*
X92205552Y-107184974D01*
X92186832Y-107171090D01*
X92169562Y-107155438D01*
X92153910Y-107138168D01*
X92140026Y-107119448D01*
X92128044Y-107099457D01*
X92118079Y-107078387D01*
X92110227Y-107056443D01*
X92104563Y-107033834D01*
X92101144Y-107010779D01*
X92100000Y-106987500D01*
X92100000Y-106512500D01*
X92101144Y-106489221D01*
X92104563Y-106466166D01*
X92110227Y-106443557D01*
X92118079Y-106421613D01*
X92128044Y-106400543D01*
X92140026Y-106380552D01*
X92153910Y-106361832D01*
X92169562Y-106344562D01*
X92186832Y-106328910D01*
X92205552Y-106315026D01*
X92225543Y-106303044D01*
X92246613Y-106293079D01*
X92268557Y-106285227D01*
X92291166Y-106279563D01*
X92314221Y-106276144D01*
X92337500Y-106275000D01*
X92912500Y-106275000D01*
X92935779Y-106276144D01*
G37*
G36*
X96010779Y-89976144D02*
G01*
X96033834Y-89979563D01*
X96056443Y-89985227D01*
X96078387Y-89993079D01*
X96099457Y-90003044D01*
X96119448Y-90015026D01*
X96138168Y-90028910D01*
X96155438Y-90044562D01*
X96171090Y-90061832D01*
X96184974Y-90080552D01*
X96196956Y-90100543D01*
X96206921Y-90121613D01*
X96214773Y-90143557D01*
X96220437Y-90166166D01*
X96223856Y-90189221D01*
X96225000Y-90212500D01*
X96225000Y-90787500D01*
X96223856Y-90810779D01*
X96220437Y-90833834D01*
X96214773Y-90856443D01*
X96206921Y-90878387D01*
X96196956Y-90899457D01*
X96184974Y-90919448D01*
X96171090Y-90938168D01*
X96155438Y-90955438D01*
X96138168Y-90971090D01*
X96119448Y-90984974D01*
X96099457Y-90996956D01*
X96078387Y-91006921D01*
X96056443Y-91014773D01*
X96033834Y-91020437D01*
X96010779Y-91023856D01*
X95987500Y-91025000D01*
X95512500Y-91025000D01*
X95489221Y-91023856D01*
X95466166Y-91020437D01*
X95443557Y-91014773D01*
X95421613Y-91006921D01*
X95400543Y-90996956D01*
X95380552Y-90984974D01*
X95361832Y-90971090D01*
X95344562Y-90955438D01*
X95328910Y-90938168D01*
X95315026Y-90919448D01*
X95303044Y-90899457D01*
X95293079Y-90878387D01*
X95285227Y-90856443D01*
X95279563Y-90833834D01*
X95276144Y-90810779D01*
X95275000Y-90787500D01*
X95275000Y-90212500D01*
X95276144Y-90189221D01*
X95279563Y-90166166D01*
X95285227Y-90143557D01*
X95293079Y-90121613D01*
X95303044Y-90100543D01*
X95315026Y-90080552D01*
X95328910Y-90061832D01*
X95344562Y-90044562D01*
X95361832Y-90028910D01*
X95380552Y-90015026D01*
X95400543Y-90003044D01*
X95421613Y-89993079D01*
X95443557Y-89985227D01*
X95466166Y-89979563D01*
X95489221Y-89976144D01*
X95512500Y-89975000D01*
X95987500Y-89975000D01*
X96010779Y-89976144D01*
G37*
G36*
X96010779Y-91726144D02*
G01*
X96033834Y-91729563D01*
X96056443Y-91735227D01*
X96078387Y-91743079D01*
X96099457Y-91753044D01*
X96119448Y-91765026D01*
X96138168Y-91778910D01*
X96155438Y-91794562D01*
X96171090Y-91811832D01*
X96184974Y-91830552D01*
X96196956Y-91850543D01*
X96206921Y-91871613D01*
X96214773Y-91893557D01*
X96220437Y-91916166D01*
X96223856Y-91939221D01*
X96225000Y-91962500D01*
X96225000Y-92537500D01*
X96223856Y-92560779D01*
X96220437Y-92583834D01*
X96214773Y-92606443D01*
X96206921Y-92628387D01*
X96196956Y-92649457D01*
X96184974Y-92669448D01*
X96171090Y-92688168D01*
X96155438Y-92705438D01*
X96138168Y-92721090D01*
X96119448Y-92734974D01*
X96099457Y-92746956D01*
X96078387Y-92756921D01*
X96056443Y-92764773D01*
X96033834Y-92770437D01*
X96010779Y-92773856D01*
X95987500Y-92775000D01*
X95512500Y-92775000D01*
X95489221Y-92773856D01*
X95466166Y-92770437D01*
X95443557Y-92764773D01*
X95421613Y-92756921D01*
X95400543Y-92746956D01*
X95380552Y-92734974D01*
X95361832Y-92721090D01*
X95344562Y-92705438D01*
X95328910Y-92688168D01*
X95315026Y-92669448D01*
X95303044Y-92649457D01*
X95293079Y-92628387D01*
X95285227Y-92606443D01*
X95279563Y-92583834D01*
X95276144Y-92560779D01*
X95275000Y-92537500D01*
X95275000Y-91962500D01*
X95276144Y-91939221D01*
X95279563Y-91916166D01*
X95285227Y-91893557D01*
X95293079Y-91871613D01*
X95303044Y-91850543D01*
X95315026Y-91830552D01*
X95328910Y-91811832D01*
X95344562Y-91794562D01*
X95361832Y-91778910D01*
X95380552Y-91765026D01*
X95400543Y-91753044D01*
X95421613Y-91743079D01*
X95443557Y-91735227D01*
X95466166Y-91729563D01*
X95489221Y-91726144D01*
X95512500Y-91725000D01*
X95987500Y-91725000D01*
X96010779Y-91726144D01*
G37*
G36*
X92510779Y-91726144D02*
G01*
X92533834Y-91729563D01*
X92556443Y-91735227D01*
X92578387Y-91743079D01*
X92599457Y-91753044D01*
X92619448Y-91765026D01*
X92638168Y-91778910D01*
X92655438Y-91794562D01*
X92671090Y-91811832D01*
X92684974Y-91830552D01*
X92696956Y-91850543D01*
X92706921Y-91871613D01*
X92714773Y-91893557D01*
X92720437Y-91916166D01*
X92723856Y-91939221D01*
X92725000Y-91962500D01*
X92725000Y-92537500D01*
X92723856Y-92560779D01*
X92720437Y-92583834D01*
X92714773Y-92606443D01*
X92706921Y-92628387D01*
X92696956Y-92649457D01*
X92684974Y-92669448D01*
X92671090Y-92688168D01*
X92655438Y-92705438D01*
X92638168Y-92721090D01*
X92619448Y-92734974D01*
X92599457Y-92746956D01*
X92578387Y-92756921D01*
X92556443Y-92764773D01*
X92533834Y-92770437D01*
X92510779Y-92773856D01*
X92487500Y-92775000D01*
X92012500Y-92775000D01*
X91989221Y-92773856D01*
X91966166Y-92770437D01*
X91943557Y-92764773D01*
X91921613Y-92756921D01*
X91900543Y-92746956D01*
X91880552Y-92734974D01*
X91861832Y-92721090D01*
X91844562Y-92705438D01*
X91828910Y-92688168D01*
X91815026Y-92669448D01*
X91803044Y-92649457D01*
X91793079Y-92628387D01*
X91785227Y-92606443D01*
X91779563Y-92583834D01*
X91776144Y-92560779D01*
X91775000Y-92537500D01*
X91775000Y-91962500D01*
X91776144Y-91939221D01*
X91779563Y-91916166D01*
X91785227Y-91893557D01*
X91793079Y-91871613D01*
X91803044Y-91850543D01*
X91815026Y-91830552D01*
X91828910Y-91811832D01*
X91844562Y-91794562D01*
X91861832Y-91778910D01*
X91880552Y-91765026D01*
X91900543Y-91753044D01*
X91921613Y-91743079D01*
X91943557Y-91735227D01*
X91966166Y-91729563D01*
X91989221Y-91726144D01*
X92012500Y-91725000D01*
X92487500Y-91725000D01*
X92510779Y-91726144D01*
G37*
G36*
X92510779Y-89976144D02*
G01*
X92533834Y-89979563D01*
X92556443Y-89985227D01*
X92578387Y-89993079D01*
X92599457Y-90003044D01*
X92619448Y-90015026D01*
X92638168Y-90028910D01*
X92655438Y-90044562D01*
X92671090Y-90061832D01*
X92684974Y-90080552D01*
X92696956Y-90100543D01*
X92706921Y-90121613D01*
X92714773Y-90143557D01*
X92720437Y-90166166D01*
X92723856Y-90189221D01*
X92725000Y-90212500D01*
X92725000Y-90787500D01*
X92723856Y-90810779D01*
X92720437Y-90833834D01*
X92714773Y-90856443D01*
X92706921Y-90878387D01*
X92696956Y-90899457D01*
X92684974Y-90919448D01*
X92671090Y-90938168D01*
X92655438Y-90955438D01*
X92638168Y-90971090D01*
X92619448Y-90984974D01*
X92599457Y-90996956D01*
X92578387Y-91006921D01*
X92556443Y-91014773D01*
X92533834Y-91020437D01*
X92510779Y-91023856D01*
X92487500Y-91025000D01*
X92012500Y-91025000D01*
X91989221Y-91023856D01*
X91966166Y-91020437D01*
X91943557Y-91014773D01*
X91921613Y-91006921D01*
X91900543Y-90996956D01*
X91880552Y-90984974D01*
X91861832Y-90971090D01*
X91844562Y-90955438D01*
X91828910Y-90938168D01*
X91815026Y-90919448D01*
X91803044Y-90899457D01*
X91793079Y-90878387D01*
X91785227Y-90856443D01*
X91779563Y-90833834D01*
X91776144Y-90810779D01*
X91775000Y-90787500D01*
X91775000Y-90212500D01*
X91776144Y-90189221D01*
X91779563Y-90166166D01*
X91785227Y-90143557D01*
X91793079Y-90121613D01*
X91803044Y-90100543D01*
X91815026Y-90080552D01*
X91828910Y-90061832D01*
X91844562Y-90044562D01*
X91861832Y-90028910D01*
X91880552Y-90015026D01*
X91900543Y-90003044D01*
X91921613Y-89993079D01*
X91943557Y-89985227D01*
X91966166Y-89979563D01*
X91989221Y-89976144D01*
X92012500Y-89975000D01*
X92487500Y-89975000D01*
X92510779Y-89976144D01*
G37*
G36*
X99935779Y-123776144D02*
G01*
X99958834Y-123779563D01*
X99981443Y-123785227D01*
X100003387Y-123793079D01*
X100024457Y-123803044D01*
X100044448Y-123815026D01*
X100063168Y-123828910D01*
X100080438Y-123844562D01*
X100096090Y-123861832D01*
X100109974Y-123880552D01*
X100121956Y-123900543D01*
X100131921Y-123921613D01*
X100139773Y-123943557D01*
X100145437Y-123966166D01*
X100148856Y-123989221D01*
X100150000Y-124012500D01*
X100150000Y-124487500D01*
X100148856Y-124510779D01*
X100145437Y-124533834D01*
X100139773Y-124556443D01*
X100131921Y-124578387D01*
X100121956Y-124599457D01*
X100109974Y-124619448D01*
X100096090Y-124638168D01*
X100080438Y-124655438D01*
X100063168Y-124671090D01*
X100044448Y-124684974D01*
X100024457Y-124696956D01*
X100003387Y-124706921D01*
X99981443Y-124714773D01*
X99958834Y-124720437D01*
X99935779Y-124723856D01*
X99912500Y-124725000D01*
X99337500Y-124725000D01*
X99314221Y-124723856D01*
X99291166Y-124720437D01*
X99268557Y-124714773D01*
X99246613Y-124706921D01*
X99225543Y-124696956D01*
X99205552Y-124684974D01*
X99186832Y-124671090D01*
X99169562Y-124655438D01*
X99153910Y-124638168D01*
X99140026Y-124619448D01*
X99128044Y-124599457D01*
X99118079Y-124578387D01*
X99110227Y-124556443D01*
X99104563Y-124533834D01*
X99101144Y-124510779D01*
X99100000Y-124487500D01*
X99100000Y-124012500D01*
X99101144Y-123989221D01*
X99104563Y-123966166D01*
X99110227Y-123943557D01*
X99118079Y-123921613D01*
X99128044Y-123900543D01*
X99140026Y-123880552D01*
X99153910Y-123861832D01*
X99169562Y-123844562D01*
X99186832Y-123828910D01*
X99205552Y-123815026D01*
X99225543Y-123803044D01*
X99246613Y-123793079D01*
X99268557Y-123785227D01*
X99291166Y-123779563D01*
X99314221Y-123776144D01*
X99337500Y-123775000D01*
X99912500Y-123775000D01*
X99935779Y-123776144D01*
G37*
G36*
X98185779Y-123776144D02*
G01*
X98208834Y-123779563D01*
X98231443Y-123785227D01*
X98253387Y-123793079D01*
X98274457Y-123803044D01*
X98294448Y-123815026D01*
X98313168Y-123828910D01*
X98330438Y-123844562D01*
X98346090Y-123861832D01*
X98359974Y-123880552D01*
X98371956Y-123900543D01*
X98381921Y-123921613D01*
X98389773Y-123943557D01*
X98395437Y-123966166D01*
X98398856Y-123989221D01*
X98400000Y-124012500D01*
X98400000Y-124487500D01*
X98398856Y-124510779D01*
X98395437Y-124533834D01*
X98389773Y-124556443D01*
X98381921Y-124578387D01*
X98371956Y-124599457D01*
X98359974Y-124619448D01*
X98346090Y-124638168D01*
X98330438Y-124655438D01*
X98313168Y-124671090D01*
X98294448Y-124684974D01*
X98274457Y-124696956D01*
X98253387Y-124706921D01*
X98231443Y-124714773D01*
X98208834Y-124720437D01*
X98185779Y-124723856D01*
X98162500Y-124725000D01*
X97587500Y-124725000D01*
X97564221Y-124723856D01*
X97541166Y-124720437D01*
X97518557Y-124714773D01*
X97496613Y-124706921D01*
X97475543Y-124696956D01*
X97455552Y-124684974D01*
X97436832Y-124671090D01*
X97419562Y-124655438D01*
X97403910Y-124638168D01*
X97390026Y-124619448D01*
X97378044Y-124599457D01*
X97368079Y-124578387D01*
X97360227Y-124556443D01*
X97354563Y-124533834D01*
X97351144Y-124510779D01*
X97350000Y-124487500D01*
X97350000Y-124012500D01*
X97351144Y-123989221D01*
X97354563Y-123966166D01*
X97360227Y-123943557D01*
X97368079Y-123921613D01*
X97378044Y-123900543D01*
X97390026Y-123880552D01*
X97403910Y-123861832D01*
X97419562Y-123844562D01*
X97436832Y-123828910D01*
X97455552Y-123815026D01*
X97475543Y-123803044D01*
X97496613Y-123793079D01*
X97518557Y-123785227D01*
X97541166Y-123779563D01*
X97564221Y-123776144D01*
X97587500Y-123775000D01*
X98162500Y-123775000D01*
X98185779Y-123776144D01*
G37*
G36*
X95310779Y-126276144D02*
G01*
X95333834Y-126279563D01*
X95356443Y-126285227D01*
X95378387Y-126293079D01*
X95399457Y-126303044D01*
X95419448Y-126315026D01*
X95438168Y-126328910D01*
X95455438Y-126344562D01*
X95471090Y-126361832D01*
X95484974Y-126380552D01*
X95496956Y-126400543D01*
X95506921Y-126421613D01*
X95514773Y-126443557D01*
X95520437Y-126466166D01*
X95523856Y-126489221D01*
X95525000Y-126512500D01*
X95525000Y-126987500D01*
X95523856Y-127010779D01*
X95520437Y-127033834D01*
X95514773Y-127056443D01*
X95506921Y-127078387D01*
X95496956Y-127099457D01*
X95484974Y-127119448D01*
X95471090Y-127138168D01*
X95455438Y-127155438D01*
X95438168Y-127171090D01*
X95419448Y-127184974D01*
X95399457Y-127196956D01*
X95378387Y-127206921D01*
X95356443Y-127214773D01*
X95333834Y-127220437D01*
X95310779Y-127223856D01*
X95287500Y-127225000D01*
X94712500Y-127225000D01*
X94689221Y-127223856D01*
X94666166Y-127220437D01*
X94643557Y-127214773D01*
X94621613Y-127206921D01*
X94600543Y-127196956D01*
X94580552Y-127184974D01*
X94561832Y-127171090D01*
X94544562Y-127155438D01*
X94528910Y-127138168D01*
X94515026Y-127119448D01*
X94503044Y-127099457D01*
X94493079Y-127078387D01*
X94485227Y-127056443D01*
X94479563Y-127033834D01*
X94476144Y-127010779D01*
X94475000Y-126987500D01*
X94475000Y-126512500D01*
X94476144Y-126489221D01*
X94479563Y-126466166D01*
X94485227Y-126443557D01*
X94493079Y-126421613D01*
X94503044Y-126400543D01*
X94515026Y-126380552D01*
X94528910Y-126361832D01*
X94544562Y-126344562D01*
X94561832Y-126328910D01*
X94580552Y-126315026D01*
X94600543Y-126303044D01*
X94621613Y-126293079D01*
X94643557Y-126285227D01*
X94666166Y-126279563D01*
X94689221Y-126276144D01*
X94712500Y-126275000D01*
X95287500Y-126275000D01*
X95310779Y-126276144D01*
G37*
G36*
X93560779Y-126276144D02*
G01*
X93583834Y-126279563D01*
X93606443Y-126285227D01*
X93628387Y-126293079D01*
X93649457Y-126303044D01*
X93669448Y-126315026D01*
X93688168Y-126328910D01*
X93705438Y-126344562D01*
X93721090Y-126361832D01*
X93734974Y-126380552D01*
X93746956Y-126400543D01*
X93756921Y-126421613D01*
X93764773Y-126443557D01*
X93770437Y-126466166D01*
X93773856Y-126489221D01*
X93775000Y-126512500D01*
X93775000Y-126987500D01*
X93773856Y-127010779D01*
X93770437Y-127033834D01*
X93764773Y-127056443D01*
X93756921Y-127078387D01*
X93746956Y-127099457D01*
X93734974Y-127119448D01*
X93721090Y-127138168D01*
X93705438Y-127155438D01*
X93688168Y-127171090D01*
X93669448Y-127184974D01*
X93649457Y-127196956D01*
X93628387Y-127206921D01*
X93606443Y-127214773D01*
X93583834Y-127220437D01*
X93560779Y-127223856D01*
X93537500Y-127225000D01*
X92962500Y-127225000D01*
X92939221Y-127223856D01*
X92916166Y-127220437D01*
X92893557Y-127214773D01*
X92871613Y-127206921D01*
X92850543Y-127196956D01*
X92830552Y-127184974D01*
X92811832Y-127171090D01*
X92794562Y-127155438D01*
X92778910Y-127138168D01*
X92765026Y-127119448D01*
X92753044Y-127099457D01*
X92743079Y-127078387D01*
X92735227Y-127056443D01*
X92729563Y-127033834D01*
X92726144Y-127010779D01*
X92725000Y-126987500D01*
X92725000Y-126512500D01*
X92726144Y-126489221D01*
X92729563Y-126466166D01*
X92735227Y-126443557D01*
X92743079Y-126421613D01*
X92753044Y-126400543D01*
X92765026Y-126380552D01*
X92778910Y-126361832D01*
X92794562Y-126344562D01*
X92811832Y-126328910D01*
X92830552Y-126315026D01*
X92850543Y-126303044D01*
X92871613Y-126293079D01*
X92893557Y-126285227D01*
X92916166Y-126279563D01*
X92939221Y-126276144D01*
X92962500Y-126275000D01*
X93537500Y-126275000D01*
X93560779Y-126276144D01*
G37*
G36*
X94510779Y-109976144D02*
G01*
X94533834Y-109979563D01*
X94556443Y-109985227D01*
X94578387Y-109993079D01*
X94599457Y-110003044D01*
X94619448Y-110015026D01*
X94638168Y-110028910D01*
X94655438Y-110044562D01*
X94671090Y-110061832D01*
X94684974Y-110080552D01*
X94696956Y-110100543D01*
X94706921Y-110121613D01*
X94714773Y-110143557D01*
X94720437Y-110166166D01*
X94723856Y-110189221D01*
X94725000Y-110212500D01*
X94725000Y-110787500D01*
X94723856Y-110810779D01*
X94720437Y-110833834D01*
X94714773Y-110856443D01*
X94706921Y-110878387D01*
X94696956Y-110899457D01*
X94684974Y-110919448D01*
X94671090Y-110938168D01*
X94655438Y-110955438D01*
X94638168Y-110971090D01*
X94619448Y-110984974D01*
X94599457Y-110996956D01*
X94578387Y-111006921D01*
X94556443Y-111014773D01*
X94533834Y-111020437D01*
X94510779Y-111023856D01*
X94487500Y-111025000D01*
X94012500Y-111025000D01*
X93989221Y-111023856D01*
X93966166Y-111020437D01*
X93943557Y-111014773D01*
X93921613Y-111006921D01*
X93900543Y-110996956D01*
X93880552Y-110984974D01*
X93861832Y-110971090D01*
X93844562Y-110955438D01*
X93828910Y-110938168D01*
X93815026Y-110919448D01*
X93803044Y-110899457D01*
X93793079Y-110878387D01*
X93785227Y-110856443D01*
X93779563Y-110833834D01*
X93776144Y-110810779D01*
X93775000Y-110787500D01*
X93775000Y-110212500D01*
X93776144Y-110189221D01*
X93779563Y-110166166D01*
X93785227Y-110143557D01*
X93793079Y-110121613D01*
X93803044Y-110100543D01*
X93815026Y-110080552D01*
X93828910Y-110061832D01*
X93844562Y-110044562D01*
X93861832Y-110028910D01*
X93880552Y-110015026D01*
X93900543Y-110003044D01*
X93921613Y-109993079D01*
X93943557Y-109985227D01*
X93966166Y-109979563D01*
X93989221Y-109976144D01*
X94012500Y-109975000D01*
X94487500Y-109975000D01*
X94510779Y-109976144D01*
G37*
G36*
X94510779Y-111726144D02*
G01*
X94533834Y-111729563D01*
X94556443Y-111735227D01*
X94578387Y-111743079D01*
X94599457Y-111753044D01*
X94619448Y-111765026D01*
X94638168Y-111778910D01*
X94655438Y-111794562D01*
X94671090Y-111811832D01*
X94684974Y-111830552D01*
X94696956Y-111850543D01*
X94706921Y-111871613D01*
X94714773Y-111893557D01*
X94720437Y-111916166D01*
X94723856Y-111939221D01*
X94725000Y-111962500D01*
X94725000Y-112537500D01*
X94723856Y-112560779D01*
X94720437Y-112583834D01*
X94714773Y-112606443D01*
X94706921Y-112628387D01*
X94696956Y-112649457D01*
X94684974Y-112669448D01*
X94671090Y-112688168D01*
X94655438Y-112705438D01*
X94638168Y-112721090D01*
X94619448Y-112734974D01*
X94599457Y-112746956D01*
X94578387Y-112756921D01*
X94556443Y-112764773D01*
X94533834Y-112770437D01*
X94510779Y-112773856D01*
X94487500Y-112775000D01*
X94012500Y-112775000D01*
X93989221Y-112773856D01*
X93966166Y-112770437D01*
X93943557Y-112764773D01*
X93921613Y-112756921D01*
X93900543Y-112746956D01*
X93880552Y-112734974D01*
X93861832Y-112721090D01*
X93844562Y-112705438D01*
X93828910Y-112688168D01*
X93815026Y-112669448D01*
X93803044Y-112649457D01*
X93793079Y-112628387D01*
X93785227Y-112606443D01*
X93779563Y-112583834D01*
X93776144Y-112560779D01*
X93775000Y-112537500D01*
X93775000Y-111962500D01*
X93776144Y-111939221D01*
X93779563Y-111916166D01*
X93785227Y-111893557D01*
X93793079Y-111871613D01*
X93803044Y-111850543D01*
X93815026Y-111830552D01*
X93828910Y-111811832D01*
X93844562Y-111794562D01*
X93861832Y-111778910D01*
X93880552Y-111765026D01*
X93900543Y-111753044D01*
X93921613Y-111743079D01*
X93943557Y-111735227D01*
X93966166Y-111729563D01*
X93989221Y-111726144D01*
X94012500Y-111725000D01*
X94487500Y-111725000D01*
X94510779Y-111726144D01*
G37*
G36*
X91010779Y-111726144D02*
G01*
X91033834Y-111729563D01*
X91056443Y-111735227D01*
X91078387Y-111743079D01*
X91099457Y-111753044D01*
X91119448Y-111765026D01*
X91138168Y-111778910D01*
X91155438Y-111794562D01*
X91171090Y-111811832D01*
X91184974Y-111830552D01*
X91196956Y-111850543D01*
X91206921Y-111871613D01*
X91214773Y-111893557D01*
X91220437Y-111916166D01*
X91223856Y-111939221D01*
X91225000Y-111962500D01*
X91225000Y-112537500D01*
X91223856Y-112560779D01*
X91220437Y-112583834D01*
X91214773Y-112606443D01*
X91206921Y-112628387D01*
X91196956Y-112649457D01*
X91184974Y-112669448D01*
X91171090Y-112688168D01*
X91155438Y-112705438D01*
X91138168Y-112721090D01*
X91119448Y-112734974D01*
X91099457Y-112746956D01*
X91078387Y-112756921D01*
X91056443Y-112764773D01*
X91033834Y-112770437D01*
X91010779Y-112773856D01*
X90987500Y-112775000D01*
X90512500Y-112775000D01*
X90489221Y-112773856D01*
X90466166Y-112770437D01*
X90443557Y-112764773D01*
X90421613Y-112756921D01*
X90400543Y-112746956D01*
X90380552Y-112734974D01*
X90361832Y-112721090D01*
X90344562Y-112705438D01*
X90328910Y-112688168D01*
X90315026Y-112669448D01*
X90303044Y-112649457D01*
X90293079Y-112628387D01*
X90285227Y-112606443D01*
X90279563Y-112583834D01*
X90276144Y-112560779D01*
X90275000Y-112537500D01*
X90275000Y-111962500D01*
X90276144Y-111939221D01*
X90279563Y-111916166D01*
X90285227Y-111893557D01*
X90293079Y-111871613D01*
X90303044Y-111850543D01*
X90315026Y-111830552D01*
X90328910Y-111811832D01*
X90344562Y-111794562D01*
X90361832Y-111778910D01*
X90380552Y-111765026D01*
X90400543Y-111753044D01*
X90421613Y-111743079D01*
X90443557Y-111735227D01*
X90466166Y-111729563D01*
X90489221Y-111726144D01*
X90512500Y-111725000D01*
X90987500Y-111725000D01*
X91010779Y-111726144D01*
G37*
G36*
X91010779Y-109976144D02*
G01*
X91033834Y-109979563D01*
X91056443Y-109985227D01*
X91078387Y-109993079D01*
X91099457Y-110003044D01*
X91119448Y-110015026D01*
X91138168Y-110028910D01*
X91155438Y-110044562D01*
X91171090Y-110061832D01*
X91184974Y-110080552D01*
X91196956Y-110100543D01*
X91206921Y-110121613D01*
X91214773Y-110143557D01*
X91220437Y-110166166D01*
X91223856Y-110189221D01*
X91225000Y-110212500D01*
X91225000Y-110787500D01*
X91223856Y-110810779D01*
X91220437Y-110833834D01*
X91214773Y-110856443D01*
X91206921Y-110878387D01*
X91196956Y-110899457D01*
X91184974Y-110919448D01*
X91171090Y-110938168D01*
X91155438Y-110955438D01*
X91138168Y-110971090D01*
X91119448Y-110984974D01*
X91099457Y-110996956D01*
X91078387Y-111006921D01*
X91056443Y-111014773D01*
X91033834Y-111020437D01*
X91010779Y-111023856D01*
X90987500Y-111025000D01*
X90512500Y-111025000D01*
X90489221Y-111023856D01*
X90466166Y-111020437D01*
X90443557Y-111014773D01*
X90421613Y-111006921D01*
X90400543Y-110996956D01*
X90380552Y-110984974D01*
X90361832Y-110971090D01*
X90344562Y-110955438D01*
X90328910Y-110938168D01*
X90315026Y-110919448D01*
X90303044Y-110899457D01*
X90293079Y-110878387D01*
X90285227Y-110856443D01*
X90279563Y-110833834D01*
X90276144Y-110810779D01*
X90275000Y-110787500D01*
X90275000Y-110212500D01*
X90276144Y-110189221D01*
X90279563Y-110166166D01*
X90285227Y-110143557D01*
X90293079Y-110121613D01*
X90303044Y-110100543D01*
X90315026Y-110080552D01*
X90328910Y-110061832D01*
X90344562Y-110044562D01*
X90361832Y-110028910D01*
X90380552Y-110015026D01*
X90400543Y-110003044D01*
X90421613Y-109993079D01*
X90443557Y-109985227D01*
X90466166Y-109979563D01*
X90489221Y-109976144D01*
X90512500Y-109975000D01*
X90987500Y-109975000D01*
X91010779Y-109976144D01*
G37*
G36*
X99560779Y-143526144D02*
G01*
X99583834Y-143529563D01*
X99606443Y-143535227D01*
X99628387Y-143543079D01*
X99649457Y-143553044D01*
X99669448Y-143565026D01*
X99688168Y-143578910D01*
X99705438Y-143594562D01*
X99721090Y-143611832D01*
X99734974Y-143630552D01*
X99746956Y-143650543D01*
X99756921Y-143671613D01*
X99764773Y-143693557D01*
X99770437Y-143716166D01*
X99773856Y-143739221D01*
X99775000Y-143762500D01*
X99775000Y-144237500D01*
X99773856Y-144260779D01*
X99770437Y-144283834D01*
X99764773Y-144306443D01*
X99756921Y-144328387D01*
X99746956Y-144349457D01*
X99734974Y-144369448D01*
X99721090Y-144388168D01*
X99705438Y-144405438D01*
X99688168Y-144421090D01*
X99669448Y-144434974D01*
X99649457Y-144446956D01*
X99628387Y-144456921D01*
X99606443Y-144464773D01*
X99583834Y-144470437D01*
X99560779Y-144473856D01*
X99537500Y-144475000D01*
X98962500Y-144475000D01*
X98939221Y-144473856D01*
X98916166Y-144470437D01*
X98893557Y-144464773D01*
X98871613Y-144456921D01*
X98850543Y-144446956D01*
X98830552Y-144434974D01*
X98811832Y-144421090D01*
X98794562Y-144405438D01*
X98778910Y-144388168D01*
X98765026Y-144369448D01*
X98753044Y-144349457D01*
X98743079Y-144328387D01*
X98735227Y-144306443D01*
X98729563Y-144283834D01*
X98726144Y-144260779D01*
X98725000Y-144237500D01*
X98725000Y-143762500D01*
X98726144Y-143739221D01*
X98729563Y-143716166D01*
X98735227Y-143693557D01*
X98743079Y-143671613D01*
X98753044Y-143650543D01*
X98765026Y-143630552D01*
X98778910Y-143611832D01*
X98794562Y-143594562D01*
X98811832Y-143578910D01*
X98830552Y-143565026D01*
X98850543Y-143553044D01*
X98871613Y-143543079D01*
X98893557Y-143535227D01*
X98916166Y-143529563D01*
X98939221Y-143526144D01*
X98962500Y-143525000D01*
X99537500Y-143525000D01*
X99560779Y-143526144D01*
G37*
G36*
X97810779Y-143526144D02*
G01*
X97833834Y-143529563D01*
X97856443Y-143535227D01*
X97878387Y-143543079D01*
X97899457Y-143553044D01*
X97919448Y-143565026D01*
X97938168Y-143578910D01*
X97955438Y-143594562D01*
X97971090Y-143611832D01*
X97984974Y-143630552D01*
X97996956Y-143650543D01*
X98006921Y-143671613D01*
X98014773Y-143693557D01*
X98020437Y-143716166D01*
X98023856Y-143739221D01*
X98025000Y-143762500D01*
X98025000Y-144237500D01*
X98023856Y-144260779D01*
X98020437Y-144283834D01*
X98014773Y-144306443D01*
X98006921Y-144328387D01*
X97996956Y-144349457D01*
X97984974Y-144369448D01*
X97971090Y-144388168D01*
X97955438Y-144405438D01*
X97938168Y-144421090D01*
X97919448Y-144434974D01*
X97899457Y-144446956D01*
X97878387Y-144456921D01*
X97856443Y-144464773D01*
X97833834Y-144470437D01*
X97810779Y-144473856D01*
X97787500Y-144475000D01*
X97212500Y-144475000D01*
X97189221Y-144473856D01*
X97166166Y-144470437D01*
X97143557Y-144464773D01*
X97121613Y-144456921D01*
X97100543Y-144446956D01*
X97080552Y-144434974D01*
X97061832Y-144421090D01*
X97044562Y-144405438D01*
X97028910Y-144388168D01*
X97015026Y-144369448D01*
X97003044Y-144349457D01*
X96993079Y-144328387D01*
X96985227Y-144306443D01*
X96979563Y-144283834D01*
X96976144Y-144260779D01*
X96975000Y-144237500D01*
X96975000Y-143762500D01*
X96976144Y-143739221D01*
X96979563Y-143716166D01*
X96985227Y-143693557D01*
X96993079Y-143671613D01*
X97003044Y-143650543D01*
X97015026Y-143630552D01*
X97028910Y-143611832D01*
X97044562Y-143594562D01*
X97061832Y-143578910D01*
X97080552Y-143565026D01*
X97100543Y-143553044D01*
X97121613Y-143543079D01*
X97143557Y-143535227D01*
X97166166Y-143529563D01*
X97189221Y-143526144D01*
X97212500Y-143525000D01*
X97787500Y-143525000D01*
X97810779Y-143526144D01*
G37*
G36*
X94685779Y-146526144D02*
G01*
X94708834Y-146529563D01*
X94731443Y-146535227D01*
X94753387Y-146543079D01*
X94774457Y-146553044D01*
X94794448Y-146565026D01*
X94813168Y-146578910D01*
X94830438Y-146594562D01*
X94846090Y-146611832D01*
X94859974Y-146630552D01*
X94871956Y-146650543D01*
X94881921Y-146671613D01*
X94889773Y-146693557D01*
X94895437Y-146716166D01*
X94898856Y-146739221D01*
X94900000Y-146762500D01*
X94900000Y-147237500D01*
X94898856Y-147260779D01*
X94895437Y-147283834D01*
X94889773Y-147306443D01*
X94881921Y-147328387D01*
X94871956Y-147349457D01*
X94859974Y-147369448D01*
X94846090Y-147388168D01*
X94830438Y-147405438D01*
X94813168Y-147421090D01*
X94794448Y-147434974D01*
X94774457Y-147446956D01*
X94753387Y-147456921D01*
X94731443Y-147464773D01*
X94708834Y-147470437D01*
X94685779Y-147473856D01*
X94662500Y-147475000D01*
X94087500Y-147475000D01*
X94064221Y-147473856D01*
X94041166Y-147470437D01*
X94018557Y-147464773D01*
X93996613Y-147456921D01*
X93975543Y-147446956D01*
X93955552Y-147434974D01*
X93936832Y-147421090D01*
X93919562Y-147405438D01*
X93903910Y-147388168D01*
X93890026Y-147369448D01*
X93878044Y-147349457D01*
X93868079Y-147328387D01*
X93860227Y-147306443D01*
X93854563Y-147283834D01*
X93851144Y-147260779D01*
X93850000Y-147237500D01*
X93850000Y-146762500D01*
X93851144Y-146739221D01*
X93854563Y-146716166D01*
X93860227Y-146693557D01*
X93868079Y-146671613D01*
X93878044Y-146650543D01*
X93890026Y-146630552D01*
X93903910Y-146611832D01*
X93919562Y-146594562D01*
X93936832Y-146578910D01*
X93955552Y-146565026D01*
X93975543Y-146553044D01*
X93996613Y-146543079D01*
X94018557Y-146535227D01*
X94041166Y-146529563D01*
X94064221Y-146526144D01*
X94087500Y-146525000D01*
X94662500Y-146525000D01*
X94685779Y-146526144D01*
G37*
G36*
X92935779Y-146526144D02*
G01*
X92958834Y-146529563D01*
X92981443Y-146535227D01*
X93003387Y-146543079D01*
X93024457Y-146553044D01*
X93044448Y-146565026D01*
X93063168Y-146578910D01*
X93080438Y-146594562D01*
X93096090Y-146611832D01*
X93109974Y-146630552D01*
X93121956Y-146650543D01*
X93131921Y-146671613D01*
X93139773Y-146693557D01*
X93145437Y-146716166D01*
X93148856Y-146739221D01*
X93150000Y-146762500D01*
X93150000Y-147237500D01*
X93148856Y-147260779D01*
X93145437Y-147283834D01*
X93139773Y-147306443D01*
X93131921Y-147328387D01*
X93121956Y-147349457D01*
X93109974Y-147369448D01*
X93096090Y-147388168D01*
X93080438Y-147405438D01*
X93063168Y-147421090D01*
X93044448Y-147434974D01*
X93024457Y-147446956D01*
X93003387Y-147456921D01*
X92981443Y-147464773D01*
X92958834Y-147470437D01*
X92935779Y-147473856D01*
X92912500Y-147475000D01*
X92337500Y-147475000D01*
X92314221Y-147473856D01*
X92291166Y-147470437D01*
X92268557Y-147464773D01*
X92246613Y-147456921D01*
X92225543Y-147446956D01*
X92205552Y-147434974D01*
X92186832Y-147421090D01*
X92169562Y-147405438D01*
X92153910Y-147388168D01*
X92140026Y-147369448D01*
X92128044Y-147349457D01*
X92118079Y-147328387D01*
X92110227Y-147306443D01*
X92104563Y-147283834D01*
X92101144Y-147260779D01*
X92100000Y-147237500D01*
X92100000Y-146762500D01*
X92101144Y-146739221D01*
X92104563Y-146716166D01*
X92110227Y-146693557D01*
X92118079Y-146671613D01*
X92128044Y-146650543D01*
X92140026Y-146630552D01*
X92153910Y-146611832D01*
X92169562Y-146594562D01*
X92186832Y-146578910D01*
X92205552Y-146565026D01*
X92225543Y-146553044D01*
X92246613Y-146543079D01*
X92268557Y-146535227D01*
X92291166Y-146529563D01*
X92314221Y-146526144D01*
X92337500Y-146525000D01*
X92912500Y-146525000D01*
X92935779Y-146526144D01*
G37*
G36*
X96760779Y-130226144D02*
G01*
X96783834Y-130229563D01*
X96806443Y-130235227D01*
X96828387Y-130243079D01*
X96849457Y-130253044D01*
X96869448Y-130265026D01*
X96888168Y-130278910D01*
X96905438Y-130294562D01*
X96921090Y-130311832D01*
X96934974Y-130330552D01*
X96946956Y-130350543D01*
X96956921Y-130371613D01*
X96964773Y-130393557D01*
X96970437Y-130416166D01*
X96973856Y-130439221D01*
X96975000Y-130462500D01*
X96975000Y-131037500D01*
X96973856Y-131060779D01*
X96970437Y-131083834D01*
X96964773Y-131106443D01*
X96956921Y-131128387D01*
X96946956Y-131149457D01*
X96934974Y-131169448D01*
X96921090Y-131188168D01*
X96905438Y-131205438D01*
X96888168Y-131221090D01*
X96869448Y-131234974D01*
X96849457Y-131246956D01*
X96828387Y-131256921D01*
X96806443Y-131264773D01*
X96783834Y-131270437D01*
X96760779Y-131273856D01*
X96737500Y-131275000D01*
X96262500Y-131275000D01*
X96239221Y-131273856D01*
X96216166Y-131270437D01*
X96193557Y-131264773D01*
X96171613Y-131256921D01*
X96150543Y-131246956D01*
X96130552Y-131234974D01*
X96111832Y-131221090D01*
X96094562Y-131205438D01*
X96078910Y-131188168D01*
X96065026Y-131169448D01*
X96053044Y-131149457D01*
X96043079Y-131128387D01*
X96035227Y-131106443D01*
X96029563Y-131083834D01*
X96026144Y-131060779D01*
X96025000Y-131037500D01*
X96025000Y-130462500D01*
X96026144Y-130439221D01*
X96029563Y-130416166D01*
X96035227Y-130393557D01*
X96043079Y-130371613D01*
X96053044Y-130350543D01*
X96065026Y-130330552D01*
X96078910Y-130311832D01*
X96094562Y-130294562D01*
X96111832Y-130278910D01*
X96130552Y-130265026D01*
X96150543Y-130253044D01*
X96171613Y-130243079D01*
X96193557Y-130235227D01*
X96216166Y-130229563D01*
X96239221Y-130226144D01*
X96262500Y-130225000D01*
X96737500Y-130225000D01*
X96760779Y-130226144D01*
G37*
G36*
X96760779Y-131976144D02*
G01*
X96783834Y-131979563D01*
X96806443Y-131985227D01*
X96828387Y-131993079D01*
X96849457Y-132003044D01*
X96869448Y-132015026D01*
X96888168Y-132028910D01*
X96905438Y-132044562D01*
X96921090Y-132061832D01*
X96934974Y-132080552D01*
X96946956Y-132100543D01*
X96956921Y-132121613D01*
X96964773Y-132143557D01*
X96970437Y-132166166D01*
X96973856Y-132189221D01*
X96975000Y-132212500D01*
X96975000Y-132787500D01*
X96973856Y-132810779D01*
X96970437Y-132833834D01*
X96964773Y-132856443D01*
X96956921Y-132878387D01*
X96946956Y-132899457D01*
X96934974Y-132919448D01*
X96921090Y-132938168D01*
X96905438Y-132955438D01*
X96888168Y-132971090D01*
X96869448Y-132984974D01*
X96849457Y-132996956D01*
X96828387Y-133006921D01*
X96806443Y-133014773D01*
X96783834Y-133020437D01*
X96760779Y-133023856D01*
X96737500Y-133025000D01*
X96262500Y-133025000D01*
X96239221Y-133023856D01*
X96216166Y-133020437D01*
X96193557Y-133014773D01*
X96171613Y-133006921D01*
X96150543Y-132996956D01*
X96130552Y-132984974D01*
X96111832Y-132971090D01*
X96094562Y-132955438D01*
X96078910Y-132938168D01*
X96065026Y-132919448D01*
X96053044Y-132899457D01*
X96043079Y-132878387D01*
X96035227Y-132856443D01*
X96029563Y-132833834D01*
X96026144Y-132810779D01*
X96025000Y-132787500D01*
X96025000Y-132212500D01*
X96026144Y-132189221D01*
X96029563Y-132166166D01*
X96035227Y-132143557D01*
X96043079Y-132121613D01*
X96053044Y-132100543D01*
X96065026Y-132080552D01*
X96078910Y-132061832D01*
X96094562Y-132044562D01*
X96111832Y-132028910D01*
X96130552Y-132015026D01*
X96150543Y-132003044D01*
X96171613Y-131993079D01*
X96193557Y-131985227D01*
X96216166Y-131979563D01*
X96239221Y-131976144D01*
X96262500Y-131975000D01*
X96737500Y-131975000D01*
X96760779Y-131976144D01*
G37*
G36*
X92760779Y-131976144D02*
G01*
X92783834Y-131979563D01*
X92806443Y-131985227D01*
X92828387Y-131993079D01*
X92849457Y-132003044D01*
X92869448Y-132015026D01*
X92888168Y-132028910D01*
X92905438Y-132044562D01*
X92921090Y-132061832D01*
X92934974Y-132080552D01*
X92946956Y-132100543D01*
X92956921Y-132121613D01*
X92964773Y-132143557D01*
X92970437Y-132166166D01*
X92973856Y-132189221D01*
X92975000Y-132212500D01*
X92975000Y-132787500D01*
X92973856Y-132810779D01*
X92970437Y-132833834D01*
X92964773Y-132856443D01*
X92956921Y-132878387D01*
X92946956Y-132899457D01*
X92934974Y-132919448D01*
X92921090Y-132938168D01*
X92905438Y-132955438D01*
X92888168Y-132971090D01*
X92869448Y-132984974D01*
X92849457Y-132996956D01*
X92828387Y-133006921D01*
X92806443Y-133014773D01*
X92783834Y-133020437D01*
X92760779Y-133023856D01*
X92737500Y-133025000D01*
X92262500Y-133025000D01*
X92239221Y-133023856D01*
X92216166Y-133020437D01*
X92193557Y-133014773D01*
X92171613Y-133006921D01*
X92150543Y-132996956D01*
X92130552Y-132984974D01*
X92111832Y-132971090D01*
X92094562Y-132955438D01*
X92078910Y-132938168D01*
X92065026Y-132919448D01*
X92053044Y-132899457D01*
X92043079Y-132878387D01*
X92035227Y-132856443D01*
X92029563Y-132833834D01*
X92026144Y-132810779D01*
X92025000Y-132787500D01*
X92025000Y-132212500D01*
X92026144Y-132189221D01*
X92029563Y-132166166D01*
X92035227Y-132143557D01*
X92043079Y-132121613D01*
X92053044Y-132100543D01*
X92065026Y-132080552D01*
X92078910Y-132061832D01*
X92094562Y-132044562D01*
X92111832Y-132028910D01*
X92130552Y-132015026D01*
X92150543Y-132003044D01*
X92171613Y-131993079D01*
X92193557Y-131985227D01*
X92216166Y-131979563D01*
X92239221Y-131976144D01*
X92262500Y-131975000D01*
X92737500Y-131975000D01*
X92760779Y-131976144D01*
G37*
G36*
X92760779Y-130226144D02*
G01*
X92783834Y-130229563D01*
X92806443Y-130235227D01*
X92828387Y-130243079D01*
X92849457Y-130253044D01*
X92869448Y-130265026D01*
X92888168Y-130278910D01*
X92905438Y-130294562D01*
X92921090Y-130311832D01*
X92934974Y-130330552D01*
X92946956Y-130350543D01*
X92956921Y-130371613D01*
X92964773Y-130393557D01*
X92970437Y-130416166D01*
X92973856Y-130439221D01*
X92975000Y-130462500D01*
X92975000Y-131037500D01*
X92973856Y-131060779D01*
X92970437Y-131083834D01*
X92964773Y-131106443D01*
X92956921Y-131128387D01*
X92946956Y-131149457D01*
X92934974Y-131169448D01*
X92921090Y-131188168D01*
X92905438Y-131205438D01*
X92888168Y-131221090D01*
X92869448Y-131234974D01*
X92849457Y-131246956D01*
X92828387Y-131256921D01*
X92806443Y-131264773D01*
X92783834Y-131270437D01*
X92760779Y-131273856D01*
X92737500Y-131275000D01*
X92262500Y-131275000D01*
X92239221Y-131273856D01*
X92216166Y-131270437D01*
X92193557Y-131264773D01*
X92171613Y-131256921D01*
X92150543Y-131246956D01*
X92130552Y-131234974D01*
X92111832Y-131221090D01*
X92094562Y-131205438D01*
X92078910Y-131188168D01*
X92065026Y-131169448D01*
X92053044Y-131149457D01*
X92043079Y-131128387D01*
X92035227Y-131106443D01*
X92029563Y-131083834D01*
X92026144Y-131060779D01*
X92025000Y-131037500D01*
X92025000Y-130462500D01*
X92026144Y-130439221D01*
X92029563Y-130416166D01*
X92035227Y-130393557D01*
X92043079Y-130371613D01*
X92053044Y-130350543D01*
X92065026Y-130330552D01*
X92078910Y-130311832D01*
X92094562Y-130294562D01*
X92111832Y-130278910D01*
X92130552Y-130265026D01*
X92150543Y-130253044D01*
X92171613Y-130243079D01*
X92193557Y-130235227D01*
X92216166Y-130229563D01*
X92239221Y-130226144D01*
X92262500Y-130225000D01*
X92737500Y-130225000D01*
X92760779Y-130226144D01*
G37*
G36*
X101685779Y-92776144D02*
G01*
X101708834Y-92779563D01*
X101731443Y-92785227D01*
X101753387Y-92793079D01*
X101774457Y-92803044D01*
X101794448Y-92815026D01*
X101813168Y-92828910D01*
X101830438Y-92844562D01*
X101846090Y-92861832D01*
X101859974Y-92880552D01*
X101871956Y-92900543D01*
X101881921Y-92921613D01*
X101889773Y-92943557D01*
X101895437Y-92966166D01*
X101898856Y-92989221D01*
X101900000Y-93012500D01*
X101900000Y-93487500D01*
X101898856Y-93510779D01*
X101895437Y-93533834D01*
X101889773Y-93556443D01*
X101881921Y-93578387D01*
X101871956Y-93599457D01*
X101859974Y-93619448D01*
X101846090Y-93638168D01*
X101830438Y-93655438D01*
X101813168Y-93671090D01*
X101794448Y-93684974D01*
X101774457Y-93696956D01*
X101753387Y-93706921D01*
X101731443Y-93714773D01*
X101708834Y-93720437D01*
X101685779Y-93723856D01*
X101662500Y-93725000D01*
X101087500Y-93725000D01*
X101064221Y-93723856D01*
X101041166Y-93720437D01*
X101018557Y-93714773D01*
X100996613Y-93706921D01*
X100975543Y-93696956D01*
X100955552Y-93684974D01*
X100936832Y-93671090D01*
X100919562Y-93655438D01*
X100903910Y-93638168D01*
X100890026Y-93619448D01*
X100878044Y-93599457D01*
X100868079Y-93578387D01*
X100860227Y-93556443D01*
X100854563Y-93533834D01*
X100851144Y-93510779D01*
X100850000Y-93487500D01*
X100850000Y-93012500D01*
X100851144Y-92989221D01*
X100854563Y-92966166D01*
X100860227Y-92943557D01*
X100868079Y-92921613D01*
X100878044Y-92900543D01*
X100890026Y-92880552D01*
X100903910Y-92861832D01*
X100919562Y-92844562D01*
X100936832Y-92828910D01*
X100955552Y-92815026D01*
X100975543Y-92803044D01*
X100996613Y-92793079D01*
X101018557Y-92785227D01*
X101041166Y-92779563D01*
X101064221Y-92776144D01*
X101087500Y-92775000D01*
X101662500Y-92775000D01*
X101685779Y-92776144D01*
G37*
G36*
X103435779Y-92776144D02*
G01*
X103458834Y-92779563D01*
X103481443Y-92785227D01*
X103503387Y-92793079D01*
X103524457Y-92803044D01*
X103544448Y-92815026D01*
X103563168Y-92828910D01*
X103580438Y-92844562D01*
X103596090Y-92861832D01*
X103609974Y-92880552D01*
X103621956Y-92900543D01*
X103631921Y-92921613D01*
X103639773Y-92943557D01*
X103645437Y-92966166D01*
X103648856Y-92989221D01*
X103650000Y-93012500D01*
X103650000Y-93487500D01*
X103648856Y-93510779D01*
X103645437Y-93533834D01*
X103639773Y-93556443D01*
X103631921Y-93578387D01*
X103621956Y-93599457D01*
X103609974Y-93619448D01*
X103596090Y-93638168D01*
X103580438Y-93655438D01*
X103563168Y-93671090D01*
X103544448Y-93684974D01*
X103524457Y-93696956D01*
X103503387Y-93706921D01*
X103481443Y-93714773D01*
X103458834Y-93720437D01*
X103435779Y-93723856D01*
X103412500Y-93725000D01*
X102837500Y-93725000D01*
X102814221Y-93723856D01*
X102791166Y-93720437D01*
X102768557Y-93714773D01*
X102746613Y-93706921D01*
X102725543Y-93696956D01*
X102705552Y-93684974D01*
X102686832Y-93671090D01*
X102669562Y-93655438D01*
X102653910Y-93638168D01*
X102640026Y-93619448D01*
X102628044Y-93599457D01*
X102618079Y-93578387D01*
X102610227Y-93556443D01*
X102604563Y-93533834D01*
X102601144Y-93510779D01*
X102600000Y-93487500D01*
X102600000Y-93012500D01*
X102601144Y-92989221D01*
X102604563Y-92966166D01*
X102610227Y-92943557D01*
X102618079Y-92921613D01*
X102628044Y-92900543D01*
X102640026Y-92880552D01*
X102653910Y-92861832D01*
X102669562Y-92844562D01*
X102686832Y-92828910D01*
X102705552Y-92815026D01*
X102725543Y-92803044D01*
X102746613Y-92793079D01*
X102768557Y-92785227D01*
X102791166Y-92779563D01*
X102814221Y-92776144D01*
X102837500Y-92775000D01*
X103412500Y-92775000D01*
X103435779Y-92776144D01*
G37*
G36*
X97760779Y-89976144D02*
G01*
X97783834Y-89979563D01*
X97806443Y-89985227D01*
X97828387Y-89993079D01*
X97849457Y-90003044D01*
X97869448Y-90015026D01*
X97888168Y-90028910D01*
X97905438Y-90044562D01*
X97921090Y-90061832D01*
X97934974Y-90080552D01*
X97946956Y-90100543D01*
X97956921Y-90121613D01*
X97964773Y-90143557D01*
X97970437Y-90166166D01*
X97973856Y-90189221D01*
X97975000Y-90212500D01*
X97975000Y-90787500D01*
X97973856Y-90810779D01*
X97970437Y-90833834D01*
X97964773Y-90856443D01*
X97956921Y-90878387D01*
X97946956Y-90899457D01*
X97934974Y-90919448D01*
X97921090Y-90938168D01*
X97905438Y-90955438D01*
X97888168Y-90971090D01*
X97869448Y-90984974D01*
X97849457Y-90996956D01*
X97828387Y-91006921D01*
X97806443Y-91014773D01*
X97783834Y-91020437D01*
X97760779Y-91023856D01*
X97737500Y-91025000D01*
X97262500Y-91025000D01*
X97239221Y-91023856D01*
X97216166Y-91020437D01*
X97193557Y-91014773D01*
X97171613Y-91006921D01*
X97150543Y-90996956D01*
X97130552Y-90984974D01*
X97111832Y-90971090D01*
X97094562Y-90955438D01*
X97078910Y-90938168D01*
X97065026Y-90919448D01*
X97053044Y-90899457D01*
X97043079Y-90878387D01*
X97035227Y-90856443D01*
X97029563Y-90833834D01*
X97026144Y-90810779D01*
X97025000Y-90787500D01*
X97025000Y-90212500D01*
X97026144Y-90189221D01*
X97029563Y-90166166D01*
X97035227Y-90143557D01*
X97043079Y-90121613D01*
X97053044Y-90100543D01*
X97065026Y-90080552D01*
X97078910Y-90061832D01*
X97094562Y-90044562D01*
X97111832Y-90028910D01*
X97130552Y-90015026D01*
X97150543Y-90003044D01*
X97171613Y-89993079D01*
X97193557Y-89985227D01*
X97216166Y-89979563D01*
X97239221Y-89976144D01*
X97262500Y-89975000D01*
X97737500Y-89975000D01*
X97760779Y-89976144D01*
G37*
G36*
X97760779Y-91726144D02*
G01*
X97783834Y-91729563D01*
X97806443Y-91735227D01*
X97828387Y-91743079D01*
X97849457Y-91753044D01*
X97869448Y-91765026D01*
X97888168Y-91778910D01*
X97905438Y-91794562D01*
X97921090Y-91811832D01*
X97934974Y-91830552D01*
X97946956Y-91850543D01*
X97956921Y-91871613D01*
X97964773Y-91893557D01*
X97970437Y-91916166D01*
X97973856Y-91939221D01*
X97975000Y-91962500D01*
X97975000Y-92537500D01*
X97973856Y-92560779D01*
X97970437Y-92583834D01*
X97964773Y-92606443D01*
X97956921Y-92628387D01*
X97946956Y-92649457D01*
X97934974Y-92669448D01*
X97921090Y-92688168D01*
X97905438Y-92705438D01*
X97888168Y-92721090D01*
X97869448Y-92734974D01*
X97849457Y-92746956D01*
X97828387Y-92756921D01*
X97806443Y-92764773D01*
X97783834Y-92770437D01*
X97760779Y-92773856D01*
X97737500Y-92775000D01*
X97262500Y-92775000D01*
X97239221Y-92773856D01*
X97216166Y-92770437D01*
X97193557Y-92764773D01*
X97171613Y-92756921D01*
X97150543Y-92746956D01*
X97130552Y-92734974D01*
X97111832Y-92721090D01*
X97094562Y-92705438D01*
X97078910Y-92688168D01*
X97065026Y-92669448D01*
X97053044Y-92649457D01*
X97043079Y-92628387D01*
X97035227Y-92606443D01*
X97029563Y-92583834D01*
X97026144Y-92560779D01*
X97025000Y-92537500D01*
X97025000Y-91962500D01*
X97026144Y-91939221D01*
X97029563Y-91916166D01*
X97035227Y-91893557D01*
X97043079Y-91871613D01*
X97053044Y-91850543D01*
X97065026Y-91830552D01*
X97078910Y-91811832D01*
X97094562Y-91794562D01*
X97111832Y-91778910D01*
X97130552Y-91765026D01*
X97150543Y-91753044D01*
X97171613Y-91743079D01*
X97193557Y-91735227D01*
X97216166Y-91729563D01*
X97239221Y-91726144D01*
X97262500Y-91725000D01*
X97737500Y-91725000D01*
X97760779Y-91726144D01*
G37*
G36*
X94260779Y-89976144D02*
G01*
X94283834Y-89979563D01*
X94306443Y-89985227D01*
X94328387Y-89993079D01*
X94349457Y-90003044D01*
X94369448Y-90015026D01*
X94388168Y-90028910D01*
X94405438Y-90044562D01*
X94421090Y-90061832D01*
X94434974Y-90080552D01*
X94446956Y-90100543D01*
X94456921Y-90121613D01*
X94464773Y-90143557D01*
X94470437Y-90166166D01*
X94473856Y-90189221D01*
X94475000Y-90212500D01*
X94475000Y-90787500D01*
X94473856Y-90810779D01*
X94470437Y-90833834D01*
X94464773Y-90856443D01*
X94456921Y-90878387D01*
X94446956Y-90899457D01*
X94434974Y-90919448D01*
X94421090Y-90938168D01*
X94405438Y-90955438D01*
X94388168Y-90971090D01*
X94369448Y-90984974D01*
X94349457Y-90996956D01*
X94328387Y-91006921D01*
X94306443Y-91014773D01*
X94283834Y-91020437D01*
X94260779Y-91023856D01*
X94237500Y-91025000D01*
X93762500Y-91025000D01*
X93739221Y-91023856D01*
X93716166Y-91020437D01*
X93693557Y-91014773D01*
X93671613Y-91006921D01*
X93650543Y-90996956D01*
X93630552Y-90984974D01*
X93611832Y-90971090D01*
X93594562Y-90955438D01*
X93578910Y-90938168D01*
X93565026Y-90919448D01*
X93553044Y-90899457D01*
X93543079Y-90878387D01*
X93535227Y-90856443D01*
X93529563Y-90833834D01*
X93526144Y-90810779D01*
X93525000Y-90787500D01*
X93525000Y-90212500D01*
X93526144Y-90189221D01*
X93529563Y-90166166D01*
X93535227Y-90143557D01*
X93543079Y-90121613D01*
X93553044Y-90100543D01*
X93565026Y-90080552D01*
X93578910Y-90061832D01*
X93594562Y-90044562D01*
X93611832Y-90028910D01*
X93630552Y-90015026D01*
X93650543Y-90003044D01*
X93671613Y-89993079D01*
X93693557Y-89985227D01*
X93716166Y-89979563D01*
X93739221Y-89976144D01*
X93762500Y-89975000D01*
X94237500Y-89975000D01*
X94260779Y-89976144D01*
G37*
G36*
X94260779Y-91726144D02*
G01*
X94283834Y-91729563D01*
X94306443Y-91735227D01*
X94328387Y-91743079D01*
X94349457Y-91753044D01*
X94369448Y-91765026D01*
X94388168Y-91778910D01*
X94405438Y-91794562D01*
X94421090Y-91811832D01*
X94434974Y-91830552D01*
X94446956Y-91850543D01*
X94456921Y-91871613D01*
X94464773Y-91893557D01*
X94470437Y-91916166D01*
X94473856Y-91939221D01*
X94475000Y-91962500D01*
X94475000Y-92537500D01*
X94473856Y-92560779D01*
X94470437Y-92583834D01*
X94464773Y-92606443D01*
X94456921Y-92628387D01*
X94446956Y-92649457D01*
X94434974Y-92669448D01*
X94421090Y-92688168D01*
X94405438Y-92705438D01*
X94388168Y-92721090D01*
X94369448Y-92734974D01*
X94349457Y-92746956D01*
X94328387Y-92756921D01*
X94306443Y-92764773D01*
X94283834Y-92770437D01*
X94260779Y-92773856D01*
X94237500Y-92775000D01*
X93762500Y-92775000D01*
X93739221Y-92773856D01*
X93716166Y-92770437D01*
X93693557Y-92764773D01*
X93671613Y-92756921D01*
X93650543Y-92746956D01*
X93630552Y-92734974D01*
X93611832Y-92721090D01*
X93594562Y-92705438D01*
X93578910Y-92688168D01*
X93565026Y-92669448D01*
X93553044Y-92649457D01*
X93543079Y-92628387D01*
X93535227Y-92606443D01*
X93529563Y-92583834D01*
X93526144Y-92560779D01*
X93525000Y-92537500D01*
X93525000Y-91962500D01*
X93526144Y-91939221D01*
X93529563Y-91916166D01*
X93535227Y-91893557D01*
X93543079Y-91871613D01*
X93553044Y-91850543D01*
X93565026Y-91830552D01*
X93578910Y-91811832D01*
X93594562Y-91794562D01*
X93611832Y-91778910D01*
X93630552Y-91765026D01*
X93650543Y-91753044D01*
X93671613Y-91743079D01*
X93693557Y-91735227D01*
X93716166Y-91729563D01*
X93739221Y-91726144D01*
X93762500Y-91725000D01*
X94237500Y-91725000D01*
X94260779Y-91726144D01*
G37*
G36*
X101185779Y-113026144D02*
G01*
X101208834Y-113029563D01*
X101231443Y-113035227D01*
X101253387Y-113043079D01*
X101274457Y-113053044D01*
X101294448Y-113065026D01*
X101313168Y-113078910D01*
X101330438Y-113094562D01*
X101346090Y-113111832D01*
X101359974Y-113130552D01*
X101371956Y-113150543D01*
X101381921Y-113171613D01*
X101389773Y-113193557D01*
X101395437Y-113216166D01*
X101398856Y-113239221D01*
X101400000Y-113262500D01*
X101400000Y-113737500D01*
X101398856Y-113760779D01*
X101395437Y-113783834D01*
X101389773Y-113806443D01*
X101381921Y-113828387D01*
X101371956Y-113849457D01*
X101359974Y-113869448D01*
X101346090Y-113888168D01*
X101330438Y-113905438D01*
X101313168Y-113921090D01*
X101294448Y-113934974D01*
X101274457Y-113946956D01*
X101253387Y-113956921D01*
X101231443Y-113964773D01*
X101208834Y-113970437D01*
X101185779Y-113973856D01*
X101162500Y-113975000D01*
X100587500Y-113975000D01*
X100564221Y-113973856D01*
X100541166Y-113970437D01*
X100518557Y-113964773D01*
X100496613Y-113956921D01*
X100475543Y-113946956D01*
X100455552Y-113934974D01*
X100436832Y-113921090D01*
X100419562Y-113905438D01*
X100403910Y-113888168D01*
X100390026Y-113869448D01*
X100378044Y-113849457D01*
X100368079Y-113828387D01*
X100360227Y-113806443D01*
X100354563Y-113783834D01*
X100351144Y-113760779D01*
X100350000Y-113737500D01*
X100350000Y-113262500D01*
X100351144Y-113239221D01*
X100354563Y-113216166D01*
X100360227Y-113193557D01*
X100368079Y-113171613D01*
X100378044Y-113150543D01*
X100390026Y-113130552D01*
X100403910Y-113111832D01*
X100419562Y-113094562D01*
X100436832Y-113078910D01*
X100455552Y-113065026D01*
X100475543Y-113053044D01*
X100496613Y-113043079D01*
X100518557Y-113035227D01*
X100541166Y-113029563D01*
X100564221Y-113026144D01*
X100587500Y-113025000D01*
X101162500Y-113025000D01*
X101185779Y-113026144D01*
G37*
G36*
X102935779Y-113026144D02*
G01*
X102958834Y-113029563D01*
X102981443Y-113035227D01*
X103003387Y-113043079D01*
X103024457Y-113053044D01*
X103044448Y-113065026D01*
X103063168Y-113078910D01*
X103080438Y-113094562D01*
X103096090Y-113111832D01*
X103109974Y-113130552D01*
X103121956Y-113150543D01*
X103131921Y-113171613D01*
X103139773Y-113193557D01*
X103145437Y-113216166D01*
X103148856Y-113239221D01*
X103150000Y-113262500D01*
X103150000Y-113737500D01*
X103148856Y-113760779D01*
X103145437Y-113783834D01*
X103139773Y-113806443D01*
X103131921Y-113828387D01*
X103121956Y-113849457D01*
X103109974Y-113869448D01*
X103096090Y-113888168D01*
X103080438Y-113905438D01*
X103063168Y-113921090D01*
X103044448Y-113934974D01*
X103024457Y-113946956D01*
X103003387Y-113956921D01*
X102981443Y-113964773D01*
X102958834Y-113970437D01*
X102935779Y-113973856D01*
X102912500Y-113975000D01*
X102337500Y-113975000D01*
X102314221Y-113973856D01*
X102291166Y-113970437D01*
X102268557Y-113964773D01*
X102246613Y-113956921D01*
X102225543Y-113946956D01*
X102205552Y-113934974D01*
X102186832Y-113921090D01*
X102169562Y-113905438D01*
X102153910Y-113888168D01*
X102140026Y-113869448D01*
X102128044Y-113849457D01*
X102118079Y-113828387D01*
X102110227Y-113806443D01*
X102104563Y-113783834D01*
X102101144Y-113760779D01*
X102100000Y-113737500D01*
X102100000Y-113262500D01*
X102101144Y-113239221D01*
X102104563Y-113216166D01*
X102110227Y-113193557D01*
X102118079Y-113171613D01*
X102128044Y-113150543D01*
X102140026Y-113130552D01*
X102153910Y-113111832D01*
X102169562Y-113094562D01*
X102186832Y-113078910D01*
X102205552Y-113065026D01*
X102225543Y-113053044D01*
X102246613Y-113043079D01*
X102268557Y-113035227D01*
X102291166Y-113029563D01*
X102314221Y-113026144D01*
X102337500Y-113025000D01*
X102912500Y-113025000D01*
X102935779Y-113026144D01*
G37*
G36*
X96260779Y-109976144D02*
G01*
X96283834Y-109979563D01*
X96306443Y-109985227D01*
X96328387Y-109993079D01*
X96349457Y-110003044D01*
X96369448Y-110015026D01*
X96388168Y-110028910D01*
X96405438Y-110044562D01*
X96421090Y-110061832D01*
X96434974Y-110080552D01*
X96446956Y-110100543D01*
X96456921Y-110121613D01*
X96464773Y-110143557D01*
X96470437Y-110166166D01*
X96473856Y-110189221D01*
X96475000Y-110212500D01*
X96475000Y-110787500D01*
X96473856Y-110810779D01*
X96470437Y-110833834D01*
X96464773Y-110856443D01*
X96456921Y-110878387D01*
X96446956Y-110899457D01*
X96434974Y-110919448D01*
X96421090Y-110938168D01*
X96405438Y-110955438D01*
X96388168Y-110971090D01*
X96369448Y-110984974D01*
X96349457Y-110996956D01*
X96328387Y-111006921D01*
X96306443Y-111014773D01*
X96283834Y-111020437D01*
X96260779Y-111023856D01*
X96237500Y-111025000D01*
X95762500Y-111025000D01*
X95739221Y-111023856D01*
X95716166Y-111020437D01*
X95693557Y-111014773D01*
X95671613Y-111006921D01*
X95650543Y-110996956D01*
X95630552Y-110984974D01*
X95611832Y-110971090D01*
X95594562Y-110955438D01*
X95578910Y-110938168D01*
X95565026Y-110919448D01*
X95553044Y-110899457D01*
X95543079Y-110878387D01*
X95535227Y-110856443D01*
X95529563Y-110833834D01*
X95526144Y-110810779D01*
X95525000Y-110787500D01*
X95525000Y-110212500D01*
X95526144Y-110189221D01*
X95529563Y-110166166D01*
X95535227Y-110143557D01*
X95543079Y-110121613D01*
X95553044Y-110100543D01*
X95565026Y-110080552D01*
X95578910Y-110061832D01*
X95594562Y-110044562D01*
X95611832Y-110028910D01*
X95630552Y-110015026D01*
X95650543Y-110003044D01*
X95671613Y-109993079D01*
X95693557Y-109985227D01*
X95716166Y-109979563D01*
X95739221Y-109976144D01*
X95762500Y-109975000D01*
X96237500Y-109975000D01*
X96260779Y-109976144D01*
G37*
G36*
X96260779Y-111726144D02*
G01*
X96283834Y-111729563D01*
X96306443Y-111735227D01*
X96328387Y-111743079D01*
X96349457Y-111753044D01*
X96369448Y-111765026D01*
X96388168Y-111778910D01*
X96405438Y-111794562D01*
X96421090Y-111811832D01*
X96434974Y-111830552D01*
X96446956Y-111850543D01*
X96456921Y-111871613D01*
X96464773Y-111893557D01*
X96470437Y-111916166D01*
X96473856Y-111939221D01*
X96475000Y-111962500D01*
X96475000Y-112537500D01*
X96473856Y-112560779D01*
X96470437Y-112583834D01*
X96464773Y-112606443D01*
X96456921Y-112628387D01*
X96446956Y-112649457D01*
X96434974Y-112669448D01*
X96421090Y-112688168D01*
X96405438Y-112705438D01*
X96388168Y-112721090D01*
X96369448Y-112734974D01*
X96349457Y-112746956D01*
X96328387Y-112756921D01*
X96306443Y-112764773D01*
X96283834Y-112770437D01*
X96260779Y-112773856D01*
X96237500Y-112775000D01*
X95762500Y-112775000D01*
X95739221Y-112773856D01*
X95716166Y-112770437D01*
X95693557Y-112764773D01*
X95671613Y-112756921D01*
X95650543Y-112746956D01*
X95630552Y-112734974D01*
X95611832Y-112721090D01*
X95594562Y-112705438D01*
X95578910Y-112688168D01*
X95565026Y-112669448D01*
X95553044Y-112649457D01*
X95543079Y-112628387D01*
X95535227Y-112606443D01*
X95529563Y-112583834D01*
X95526144Y-112560779D01*
X95525000Y-112537500D01*
X95525000Y-111962500D01*
X95526144Y-111939221D01*
X95529563Y-111916166D01*
X95535227Y-111893557D01*
X95543079Y-111871613D01*
X95553044Y-111850543D01*
X95565026Y-111830552D01*
X95578910Y-111811832D01*
X95594562Y-111794562D01*
X95611832Y-111778910D01*
X95630552Y-111765026D01*
X95650543Y-111753044D01*
X95671613Y-111743079D01*
X95693557Y-111735227D01*
X95716166Y-111729563D01*
X95739221Y-111726144D01*
X95762500Y-111725000D01*
X96237500Y-111725000D01*
X96260779Y-111726144D01*
G37*
G36*
X92760779Y-109976144D02*
G01*
X92783834Y-109979563D01*
X92806443Y-109985227D01*
X92828387Y-109993079D01*
X92849457Y-110003044D01*
X92869448Y-110015026D01*
X92888168Y-110028910D01*
X92905438Y-110044562D01*
X92921090Y-110061832D01*
X92934974Y-110080552D01*
X92946956Y-110100543D01*
X92956921Y-110121613D01*
X92964773Y-110143557D01*
X92970437Y-110166166D01*
X92973856Y-110189221D01*
X92975000Y-110212500D01*
X92975000Y-110787500D01*
X92973856Y-110810779D01*
X92970437Y-110833834D01*
X92964773Y-110856443D01*
X92956921Y-110878387D01*
X92946956Y-110899457D01*
X92934974Y-110919448D01*
X92921090Y-110938168D01*
X92905438Y-110955438D01*
X92888168Y-110971090D01*
X92869448Y-110984974D01*
X92849457Y-110996956D01*
X92828387Y-111006921D01*
X92806443Y-111014773D01*
X92783834Y-111020437D01*
X92760779Y-111023856D01*
X92737500Y-111025000D01*
X92262500Y-111025000D01*
X92239221Y-111023856D01*
X92216166Y-111020437D01*
X92193557Y-111014773D01*
X92171613Y-111006921D01*
X92150543Y-110996956D01*
X92130552Y-110984974D01*
X92111832Y-110971090D01*
X92094562Y-110955438D01*
X92078910Y-110938168D01*
X92065026Y-110919448D01*
X92053044Y-110899457D01*
X92043079Y-110878387D01*
X92035227Y-110856443D01*
X92029563Y-110833834D01*
X92026144Y-110810779D01*
X92025000Y-110787500D01*
X92025000Y-110212500D01*
X92026144Y-110189221D01*
X92029563Y-110166166D01*
X92035227Y-110143557D01*
X92043079Y-110121613D01*
X92053044Y-110100543D01*
X92065026Y-110080552D01*
X92078910Y-110061832D01*
X92094562Y-110044562D01*
X92111832Y-110028910D01*
X92130552Y-110015026D01*
X92150543Y-110003044D01*
X92171613Y-109993079D01*
X92193557Y-109985227D01*
X92216166Y-109979563D01*
X92239221Y-109976144D01*
X92262500Y-109975000D01*
X92737500Y-109975000D01*
X92760779Y-109976144D01*
G37*
G36*
X92760779Y-111726144D02*
G01*
X92783834Y-111729563D01*
X92806443Y-111735227D01*
X92828387Y-111743079D01*
X92849457Y-111753044D01*
X92869448Y-111765026D01*
X92888168Y-111778910D01*
X92905438Y-111794562D01*
X92921090Y-111811832D01*
X92934974Y-111830552D01*
X92946956Y-111850543D01*
X92956921Y-111871613D01*
X92964773Y-111893557D01*
X92970437Y-111916166D01*
X92973856Y-111939221D01*
X92975000Y-111962500D01*
X92975000Y-112537500D01*
X92973856Y-112560779D01*
X92970437Y-112583834D01*
X92964773Y-112606443D01*
X92956921Y-112628387D01*
X92946956Y-112649457D01*
X92934974Y-112669448D01*
X92921090Y-112688168D01*
X92905438Y-112705438D01*
X92888168Y-112721090D01*
X92869448Y-112734974D01*
X92849457Y-112746956D01*
X92828387Y-112756921D01*
X92806443Y-112764773D01*
X92783834Y-112770437D01*
X92760779Y-112773856D01*
X92737500Y-112775000D01*
X92262500Y-112775000D01*
X92239221Y-112773856D01*
X92216166Y-112770437D01*
X92193557Y-112764773D01*
X92171613Y-112756921D01*
X92150543Y-112746956D01*
X92130552Y-112734974D01*
X92111832Y-112721090D01*
X92094562Y-112705438D01*
X92078910Y-112688168D01*
X92065026Y-112669448D01*
X92053044Y-112649457D01*
X92043079Y-112628387D01*
X92035227Y-112606443D01*
X92029563Y-112583834D01*
X92026144Y-112560779D01*
X92025000Y-112537500D01*
X92025000Y-111962500D01*
X92026144Y-111939221D01*
X92029563Y-111916166D01*
X92035227Y-111893557D01*
X92043079Y-111871613D01*
X92053044Y-111850543D01*
X92065026Y-111830552D01*
X92078910Y-111811832D01*
X92094562Y-111794562D01*
X92111832Y-111778910D01*
X92130552Y-111765026D01*
X92150543Y-111753044D01*
X92171613Y-111743079D01*
X92193557Y-111735227D01*
X92216166Y-111729563D01*
X92239221Y-111726144D01*
X92262500Y-111725000D01*
X92737500Y-111725000D01*
X92760779Y-111726144D01*
G37*
G36*
X101810779Y-132526144D02*
G01*
X101833834Y-132529563D01*
X101856443Y-132535227D01*
X101878387Y-132543079D01*
X101899457Y-132553044D01*
X101919448Y-132565026D01*
X101938168Y-132578910D01*
X101955438Y-132594562D01*
X101971090Y-132611832D01*
X101984974Y-132630552D01*
X101996956Y-132650543D01*
X102006921Y-132671613D01*
X102014773Y-132693557D01*
X102020437Y-132716166D01*
X102023856Y-132739221D01*
X102025000Y-132762500D01*
X102025000Y-133237500D01*
X102023856Y-133260779D01*
X102020437Y-133283834D01*
X102014773Y-133306443D01*
X102006921Y-133328387D01*
X101996956Y-133349457D01*
X101984974Y-133369448D01*
X101971090Y-133388168D01*
X101955438Y-133405438D01*
X101938168Y-133421090D01*
X101919448Y-133434974D01*
X101899457Y-133446956D01*
X101878387Y-133456921D01*
X101856443Y-133464773D01*
X101833834Y-133470437D01*
X101810779Y-133473856D01*
X101787500Y-133475000D01*
X101212500Y-133475000D01*
X101189221Y-133473856D01*
X101166166Y-133470437D01*
X101143557Y-133464773D01*
X101121613Y-133456921D01*
X101100543Y-133446956D01*
X101080552Y-133434974D01*
X101061832Y-133421090D01*
X101044562Y-133405438D01*
X101028910Y-133388168D01*
X101015026Y-133369448D01*
X101003044Y-133349457D01*
X100993079Y-133328387D01*
X100985227Y-133306443D01*
X100979563Y-133283834D01*
X100976144Y-133260779D01*
X100975000Y-133237500D01*
X100975000Y-132762500D01*
X100976144Y-132739221D01*
X100979563Y-132716166D01*
X100985227Y-132693557D01*
X100993079Y-132671613D01*
X101003044Y-132650543D01*
X101015026Y-132630552D01*
X101028910Y-132611832D01*
X101044562Y-132594562D01*
X101061832Y-132578910D01*
X101080552Y-132565026D01*
X101100543Y-132553044D01*
X101121613Y-132543079D01*
X101143557Y-132535227D01*
X101166166Y-132529563D01*
X101189221Y-132526144D01*
X101212500Y-132525000D01*
X101787500Y-132525000D01*
X101810779Y-132526144D01*
G37*
G36*
X103560779Y-132526144D02*
G01*
X103583834Y-132529563D01*
X103606443Y-132535227D01*
X103628387Y-132543079D01*
X103649457Y-132553044D01*
X103669448Y-132565026D01*
X103688168Y-132578910D01*
X103705438Y-132594562D01*
X103721090Y-132611832D01*
X103734974Y-132630552D01*
X103746956Y-132650543D01*
X103756921Y-132671613D01*
X103764773Y-132693557D01*
X103770437Y-132716166D01*
X103773856Y-132739221D01*
X103775000Y-132762500D01*
X103775000Y-133237500D01*
X103773856Y-133260779D01*
X103770437Y-133283834D01*
X103764773Y-133306443D01*
X103756921Y-133328387D01*
X103746956Y-133349457D01*
X103734974Y-133369448D01*
X103721090Y-133388168D01*
X103705438Y-133405438D01*
X103688168Y-133421090D01*
X103669448Y-133434974D01*
X103649457Y-133446956D01*
X103628387Y-133456921D01*
X103606443Y-133464773D01*
X103583834Y-133470437D01*
X103560779Y-133473856D01*
X103537500Y-133475000D01*
X102962500Y-133475000D01*
X102939221Y-133473856D01*
X102916166Y-133470437D01*
X102893557Y-133464773D01*
X102871613Y-133456921D01*
X102850543Y-133446956D01*
X102830552Y-133434974D01*
X102811832Y-133421090D01*
X102794562Y-133405438D01*
X102778910Y-133388168D01*
X102765026Y-133369448D01*
X102753044Y-133349457D01*
X102743079Y-133328387D01*
X102735227Y-133306443D01*
X102729563Y-133283834D01*
X102726144Y-133260779D01*
X102725000Y-133237500D01*
X102725000Y-132762500D01*
X102726144Y-132739221D01*
X102729563Y-132716166D01*
X102735227Y-132693557D01*
X102743079Y-132671613D01*
X102753044Y-132650543D01*
X102765026Y-132630552D01*
X102778910Y-132611832D01*
X102794562Y-132594562D01*
X102811832Y-132578910D01*
X102830552Y-132565026D01*
X102850543Y-132553044D01*
X102871613Y-132543079D01*
X102893557Y-132535227D01*
X102916166Y-132529563D01*
X102939221Y-132526144D01*
X102962500Y-132525000D01*
X103537500Y-132525000D01*
X103560779Y-132526144D01*
G37*
G36*
X98760779Y-130226144D02*
G01*
X98783834Y-130229563D01*
X98806443Y-130235227D01*
X98828387Y-130243079D01*
X98849457Y-130253044D01*
X98869448Y-130265026D01*
X98888168Y-130278910D01*
X98905438Y-130294562D01*
X98921090Y-130311832D01*
X98934974Y-130330552D01*
X98946956Y-130350543D01*
X98956921Y-130371613D01*
X98964773Y-130393557D01*
X98970437Y-130416166D01*
X98973856Y-130439221D01*
X98975000Y-130462500D01*
X98975000Y-131037500D01*
X98973856Y-131060779D01*
X98970437Y-131083834D01*
X98964773Y-131106443D01*
X98956921Y-131128387D01*
X98946956Y-131149457D01*
X98934974Y-131169448D01*
X98921090Y-131188168D01*
X98905438Y-131205438D01*
X98888168Y-131221090D01*
X98869448Y-131234974D01*
X98849457Y-131246956D01*
X98828387Y-131256921D01*
X98806443Y-131264773D01*
X98783834Y-131270437D01*
X98760779Y-131273856D01*
X98737500Y-131275000D01*
X98262500Y-131275000D01*
X98239221Y-131273856D01*
X98216166Y-131270437D01*
X98193557Y-131264773D01*
X98171613Y-131256921D01*
X98150543Y-131246956D01*
X98130552Y-131234974D01*
X98111832Y-131221090D01*
X98094562Y-131205438D01*
X98078910Y-131188168D01*
X98065026Y-131169448D01*
X98053044Y-131149457D01*
X98043079Y-131128387D01*
X98035227Y-131106443D01*
X98029563Y-131083834D01*
X98026144Y-131060779D01*
X98025000Y-131037500D01*
X98025000Y-130462500D01*
X98026144Y-130439221D01*
X98029563Y-130416166D01*
X98035227Y-130393557D01*
X98043079Y-130371613D01*
X98053044Y-130350543D01*
X98065026Y-130330552D01*
X98078910Y-130311832D01*
X98094562Y-130294562D01*
X98111832Y-130278910D01*
X98130552Y-130265026D01*
X98150543Y-130253044D01*
X98171613Y-130243079D01*
X98193557Y-130235227D01*
X98216166Y-130229563D01*
X98239221Y-130226144D01*
X98262500Y-130225000D01*
X98737500Y-130225000D01*
X98760779Y-130226144D01*
G37*
G36*
X98760779Y-131976144D02*
G01*
X98783834Y-131979563D01*
X98806443Y-131985227D01*
X98828387Y-131993079D01*
X98849457Y-132003044D01*
X98869448Y-132015026D01*
X98888168Y-132028910D01*
X98905438Y-132044562D01*
X98921090Y-132061832D01*
X98934974Y-132080552D01*
X98946956Y-132100543D01*
X98956921Y-132121613D01*
X98964773Y-132143557D01*
X98970437Y-132166166D01*
X98973856Y-132189221D01*
X98975000Y-132212500D01*
X98975000Y-132787500D01*
X98973856Y-132810779D01*
X98970437Y-132833834D01*
X98964773Y-132856443D01*
X98956921Y-132878387D01*
X98946956Y-132899457D01*
X98934974Y-132919448D01*
X98921090Y-132938168D01*
X98905438Y-132955438D01*
X98888168Y-132971090D01*
X98869448Y-132984974D01*
X98849457Y-132996956D01*
X98828387Y-133006921D01*
X98806443Y-133014773D01*
X98783834Y-133020437D01*
X98760779Y-133023856D01*
X98737500Y-133025000D01*
X98262500Y-133025000D01*
X98239221Y-133023856D01*
X98216166Y-133020437D01*
X98193557Y-133014773D01*
X98171613Y-133006921D01*
X98150543Y-132996956D01*
X98130552Y-132984974D01*
X98111832Y-132971090D01*
X98094562Y-132955438D01*
X98078910Y-132938168D01*
X98065026Y-132919448D01*
X98053044Y-132899457D01*
X98043079Y-132878387D01*
X98035227Y-132856443D01*
X98029563Y-132833834D01*
X98026144Y-132810779D01*
X98025000Y-132787500D01*
X98025000Y-132212500D01*
X98026144Y-132189221D01*
X98029563Y-132166166D01*
X98035227Y-132143557D01*
X98043079Y-132121613D01*
X98053044Y-132100543D01*
X98065026Y-132080552D01*
X98078910Y-132061832D01*
X98094562Y-132044562D01*
X98111832Y-132028910D01*
X98130552Y-132015026D01*
X98150543Y-132003044D01*
X98171613Y-131993079D01*
X98193557Y-131985227D01*
X98216166Y-131979563D01*
X98239221Y-131976144D01*
X98262500Y-131975000D01*
X98737500Y-131975000D01*
X98760779Y-131976144D01*
G37*
G36*
X94760779Y-130226144D02*
G01*
X94783834Y-130229563D01*
X94806443Y-130235227D01*
X94828387Y-130243079D01*
X94849457Y-130253044D01*
X94869448Y-130265026D01*
X94888168Y-130278910D01*
X94905438Y-130294562D01*
X94921090Y-130311832D01*
X94934974Y-130330552D01*
X94946956Y-130350543D01*
X94956921Y-130371613D01*
X94964773Y-130393557D01*
X94970437Y-130416166D01*
X94973856Y-130439221D01*
X94975000Y-130462500D01*
X94975000Y-131037500D01*
X94973856Y-131060779D01*
X94970437Y-131083834D01*
X94964773Y-131106443D01*
X94956921Y-131128387D01*
X94946956Y-131149457D01*
X94934974Y-131169448D01*
X94921090Y-131188168D01*
X94905438Y-131205438D01*
X94888168Y-131221090D01*
X94869448Y-131234974D01*
X94849457Y-131246956D01*
X94828387Y-131256921D01*
X94806443Y-131264773D01*
X94783834Y-131270437D01*
X94760779Y-131273856D01*
X94737500Y-131275000D01*
X94262500Y-131275000D01*
X94239221Y-131273856D01*
X94216166Y-131270437D01*
X94193557Y-131264773D01*
X94171613Y-131256921D01*
X94150543Y-131246956D01*
X94130552Y-131234974D01*
X94111832Y-131221090D01*
X94094562Y-131205438D01*
X94078910Y-131188168D01*
X94065026Y-131169448D01*
X94053044Y-131149457D01*
X94043079Y-131128387D01*
X94035227Y-131106443D01*
X94029563Y-131083834D01*
X94026144Y-131060779D01*
X94025000Y-131037500D01*
X94025000Y-130462500D01*
X94026144Y-130439221D01*
X94029563Y-130416166D01*
X94035227Y-130393557D01*
X94043079Y-130371613D01*
X94053044Y-130350543D01*
X94065026Y-130330552D01*
X94078910Y-130311832D01*
X94094562Y-130294562D01*
X94111832Y-130278910D01*
X94130552Y-130265026D01*
X94150543Y-130253044D01*
X94171613Y-130243079D01*
X94193557Y-130235227D01*
X94216166Y-130229563D01*
X94239221Y-130226144D01*
X94262500Y-130225000D01*
X94737500Y-130225000D01*
X94760779Y-130226144D01*
G37*
G36*
X94760779Y-131976144D02*
G01*
X94783834Y-131979563D01*
X94806443Y-131985227D01*
X94828387Y-131993079D01*
X94849457Y-132003044D01*
X94869448Y-132015026D01*
X94888168Y-132028910D01*
X94905438Y-132044562D01*
X94921090Y-132061832D01*
X94934974Y-132080552D01*
X94946956Y-132100543D01*
X94956921Y-132121613D01*
X94964773Y-132143557D01*
X94970437Y-132166166D01*
X94973856Y-132189221D01*
X94975000Y-132212500D01*
X94975000Y-132787500D01*
X94973856Y-132810779D01*
X94970437Y-132833834D01*
X94964773Y-132856443D01*
X94956921Y-132878387D01*
X94946956Y-132899457D01*
X94934974Y-132919448D01*
X94921090Y-132938168D01*
X94905438Y-132955438D01*
X94888168Y-132971090D01*
X94869448Y-132984974D01*
X94849457Y-132996956D01*
X94828387Y-133006921D01*
X94806443Y-133014773D01*
X94783834Y-133020437D01*
X94760779Y-133023856D01*
X94737500Y-133025000D01*
X94262500Y-133025000D01*
X94239221Y-133023856D01*
X94216166Y-133020437D01*
X94193557Y-133014773D01*
X94171613Y-133006921D01*
X94150543Y-132996956D01*
X94130552Y-132984974D01*
X94111832Y-132971090D01*
X94094562Y-132955438D01*
X94078910Y-132938168D01*
X94065026Y-132919448D01*
X94053044Y-132899457D01*
X94043079Y-132878387D01*
X94035227Y-132856443D01*
X94029563Y-132833834D01*
X94026144Y-132810779D01*
X94025000Y-132787500D01*
X94025000Y-132212500D01*
X94026144Y-132189221D01*
X94029563Y-132166166D01*
X94035227Y-132143557D01*
X94043079Y-132121613D01*
X94053044Y-132100543D01*
X94065026Y-132080552D01*
X94078910Y-132061832D01*
X94094562Y-132044562D01*
X94111832Y-132028910D01*
X94130552Y-132015026D01*
X94150543Y-132003044D01*
X94171613Y-131993079D01*
X94193557Y-131985227D01*
X94216166Y-131979563D01*
X94239221Y-131976144D01*
X94262500Y-131975000D01*
X94737500Y-131975000D01*
X94760779Y-131976144D01*
G37*
M02*
