%TF.GenerationSoftware,KiCad,Pcbnew,5.1.5+dfsg1-2build2*%
%TF.CreationDate,2020-12-26T23:47:44-08:00*%
%TF.ProjectId,motorcontroller,6d6f746f-7263-46f6-9e74-726f6c6c6572,rev?*%
%TF.SameCoordinates,Original*%
%TF.FileFunction,Legend,Bot*%
%TF.FilePolarity,Positive*%
%FSLAX46Y46*%
G04 Gerber Fmt 4.6, Leading zero omitted, Abs format (unit mm)*
G04 Created by KiCad (PCBNEW 5.1.5+dfsg1-2build2) date 2020-12-26 23:47:44*
%MOMM*%
%LPD*%
G04 APERTURE LIST*
%ADD10C,0.152400*%
%ADD11C,0.120000*%
%ADD12C,0.150000*%
G04 APERTURE END LIST*
D10*
X104128900Y-96629100D02*
X104128900Y-100870900D01*
X98871100Y-100870900D02*
X98871100Y-96629100D01*
X103628900Y-116629100D02*
X103628900Y-120870900D01*
X98371100Y-120870900D02*
X98371100Y-116629100D01*
X103628900Y-136379100D02*
X103628900Y-140620900D01*
X98371100Y-140620900D02*
X98371100Y-136379100D01*
D11*
X98328733Y-103990000D02*
X98671267Y-103990000D01*
X98328733Y-105010000D02*
X98671267Y-105010000D01*
X93328733Y-106240000D02*
X93671267Y-106240000D01*
X93328733Y-107260000D02*
X93671267Y-107260000D01*
X95240000Y-91546267D02*
X95240000Y-91203733D01*
X96260000Y-91546267D02*
X96260000Y-91203733D01*
X92760000Y-91203733D02*
X92760000Y-91546267D01*
X91740000Y-91203733D02*
X91740000Y-91546267D01*
X98578733Y-123740000D02*
X98921267Y-123740000D01*
X98578733Y-124760000D02*
X98921267Y-124760000D01*
X93953733Y-126240000D02*
X94296267Y-126240000D01*
X93953733Y-127260000D02*
X94296267Y-127260000D01*
X93740000Y-111546267D02*
X93740000Y-111203733D01*
X94760000Y-111546267D02*
X94760000Y-111203733D01*
X91260000Y-111203733D02*
X91260000Y-111546267D01*
X90240000Y-111203733D02*
X90240000Y-111546267D01*
X98203733Y-143490000D02*
X98546267Y-143490000D01*
X98203733Y-144510000D02*
X98546267Y-144510000D01*
X93328733Y-146490000D02*
X93671267Y-146490000D01*
X93328733Y-147510000D02*
X93671267Y-147510000D01*
X95990000Y-131796267D02*
X95990000Y-131453733D01*
X97010000Y-131796267D02*
X97010000Y-131453733D01*
X93010000Y-131453733D02*
X93010000Y-131796267D01*
X91990000Y-131453733D02*
X91990000Y-131796267D01*
X102421267Y-93760000D02*
X102078733Y-93760000D01*
X102421267Y-92740000D02*
X102078733Y-92740000D01*
X96990000Y-91546267D02*
X96990000Y-91203733D01*
X98010000Y-91546267D02*
X98010000Y-91203733D01*
X93490000Y-91546267D02*
X93490000Y-91203733D01*
X94510000Y-91546267D02*
X94510000Y-91203733D01*
X101921267Y-114010000D02*
X101578733Y-114010000D01*
X101921267Y-112990000D02*
X101578733Y-112990000D01*
X95490000Y-111546267D02*
X95490000Y-111203733D01*
X96510000Y-111546267D02*
X96510000Y-111203733D01*
X91990000Y-111546267D02*
X91990000Y-111203733D01*
X93010000Y-111546267D02*
X93010000Y-111203733D01*
X102546267Y-133510000D02*
X102203733Y-133510000D01*
X102546267Y-132490000D02*
X102203733Y-132490000D01*
X97990000Y-131796267D02*
X97990000Y-131453733D01*
X99010000Y-131796267D02*
X99010000Y-131453733D01*
X93990000Y-131796267D02*
X93990000Y-131453733D01*
X95010000Y-131796267D02*
X95010000Y-131453733D01*
D12*
X104738095Y-103202380D02*
X104738095Y-104011904D01*
X104690476Y-104107142D01*
X104642857Y-104154761D01*
X104547619Y-104202380D01*
X104357142Y-104202380D01*
X104261904Y-104154761D01*
X104214285Y-104107142D01*
X104166666Y-104011904D01*
X104166666Y-103202380D01*
X103166666Y-104202380D02*
X103738095Y-104202380D01*
X103452380Y-104202380D02*
X103452380Y-103202380D01*
X103547619Y-103345238D01*
X103642857Y-103440476D01*
X103738095Y-103488095D01*
X102785714Y-103297619D02*
X102738095Y-103250000D01*
X102642857Y-103202380D01*
X102404761Y-103202380D01*
X102309523Y-103250000D01*
X102261904Y-103297619D01*
X102214285Y-103392857D01*
X102214285Y-103488095D01*
X102261904Y-103630952D01*
X102833333Y-104202380D01*
X102214285Y-104202380D01*
X103511904Y-122952380D02*
X103511904Y-123761904D01*
X103464285Y-123857142D01*
X103416666Y-123904761D01*
X103321428Y-123952380D01*
X103130952Y-123952380D01*
X103035714Y-123904761D01*
X102988095Y-123857142D01*
X102940476Y-123761904D01*
X102940476Y-122952380D01*
X102321428Y-123380952D02*
X102416666Y-123333333D01*
X102464285Y-123285714D01*
X102511904Y-123190476D01*
X102511904Y-123142857D01*
X102464285Y-123047619D01*
X102416666Y-123000000D01*
X102321428Y-122952380D01*
X102130952Y-122952380D01*
X102035714Y-123000000D01*
X101988095Y-123047619D01*
X101940476Y-123142857D01*
X101940476Y-123190476D01*
X101988095Y-123285714D01*
X102035714Y-123333333D01*
X102130952Y-123380952D01*
X102321428Y-123380952D01*
X102416666Y-123428571D01*
X102464285Y-123476190D01*
X102511904Y-123571428D01*
X102511904Y-123761904D01*
X102464285Y-123857142D01*
X102416666Y-123904761D01*
X102321428Y-123952380D01*
X102130952Y-123952380D01*
X102035714Y-123904761D01*
X101988095Y-123857142D01*
X101940476Y-123761904D01*
X101940476Y-123571428D01*
X101988095Y-123476190D01*
X102035714Y-123428571D01*
X102130952Y-123380952D01*
X104511904Y-143202380D02*
X104511904Y-144011904D01*
X104464285Y-144107142D01*
X104416666Y-144154761D01*
X104321428Y-144202380D01*
X104130952Y-144202380D01*
X104035714Y-144154761D01*
X103988095Y-144107142D01*
X103940476Y-144011904D01*
X103940476Y-143202380D01*
X103559523Y-143202380D02*
X102940476Y-143202380D01*
X103273809Y-143583333D01*
X103130952Y-143583333D01*
X103035714Y-143630952D01*
X102988095Y-143678571D01*
X102940476Y-143773809D01*
X102940476Y-144011904D01*
X102988095Y-144107142D01*
X103035714Y-144154761D01*
X103130952Y-144202380D01*
X103416666Y-144202380D01*
X103511904Y-144154761D01*
X103559523Y-144107142D01*
X102392857Y-106202380D02*
X102726190Y-105726190D01*
X102964285Y-106202380D02*
X102964285Y-105202380D01*
X102583333Y-105202380D01*
X102488095Y-105250000D01*
X102440476Y-105297619D01*
X102392857Y-105392857D01*
X102392857Y-105535714D01*
X102440476Y-105630952D01*
X102488095Y-105678571D01*
X102583333Y-105726190D01*
X102964285Y-105726190D01*
X101440476Y-106202380D02*
X102011904Y-106202380D01*
X101726190Y-106202380D02*
X101726190Y-105202380D01*
X101821428Y-105345238D01*
X101916666Y-105440476D01*
X102011904Y-105488095D01*
X100583333Y-105535714D02*
X100583333Y-106202380D01*
X100821428Y-105154761D02*
X101059523Y-105869047D01*
X100440476Y-105869047D01*
X97392857Y-107202380D02*
X97726190Y-106726190D01*
X97964285Y-107202380D02*
X97964285Y-106202380D01*
X97583333Y-106202380D01*
X97488095Y-106250000D01*
X97440476Y-106297619D01*
X97392857Y-106392857D01*
X97392857Y-106535714D01*
X97440476Y-106630952D01*
X97488095Y-106678571D01*
X97583333Y-106726190D01*
X97964285Y-106726190D01*
X96440476Y-107202380D02*
X97011904Y-107202380D01*
X96726190Y-107202380D02*
X96726190Y-106202380D01*
X96821428Y-106345238D01*
X96916666Y-106440476D01*
X97011904Y-106488095D01*
X96107142Y-106202380D02*
X95488095Y-106202380D01*
X95821428Y-106583333D01*
X95678571Y-106583333D01*
X95583333Y-106630952D01*
X95535714Y-106678571D01*
X95488095Y-106773809D01*
X95488095Y-107011904D01*
X95535714Y-107107142D01*
X95583333Y-107154761D01*
X95678571Y-107202380D01*
X95964285Y-107202380D01*
X96059523Y-107154761D01*
X96107142Y-107107142D01*
X96202380Y-87107142D02*
X95726190Y-86773809D01*
X96202380Y-86535714D02*
X95202380Y-86535714D01*
X95202380Y-86916666D01*
X95250000Y-87011904D01*
X95297619Y-87059523D01*
X95392857Y-87107142D01*
X95535714Y-87107142D01*
X95630952Y-87059523D01*
X95678571Y-87011904D01*
X95726190Y-86916666D01*
X95726190Y-86535714D01*
X96202380Y-88059523D02*
X96202380Y-87488095D01*
X96202380Y-87773809D02*
X95202380Y-87773809D01*
X95345238Y-87678571D01*
X95440476Y-87583333D01*
X95488095Y-87488095D01*
X95297619Y-88440476D02*
X95250000Y-88488095D01*
X95202380Y-88583333D01*
X95202380Y-88821428D01*
X95250000Y-88916666D01*
X95297619Y-88964285D01*
X95392857Y-89011904D01*
X95488095Y-89011904D01*
X95630952Y-88964285D01*
X96202380Y-88392857D01*
X96202380Y-89011904D01*
X92452380Y-87107142D02*
X91976190Y-86773809D01*
X92452380Y-86535714D02*
X91452380Y-86535714D01*
X91452380Y-86916666D01*
X91500000Y-87011904D01*
X91547619Y-87059523D01*
X91642857Y-87107142D01*
X91785714Y-87107142D01*
X91880952Y-87059523D01*
X91928571Y-87011904D01*
X91976190Y-86916666D01*
X91976190Y-86535714D01*
X92452380Y-88059523D02*
X92452380Y-87488095D01*
X92452380Y-87773809D02*
X91452380Y-87773809D01*
X91595238Y-87678571D01*
X91690476Y-87583333D01*
X91738095Y-87488095D01*
X92452380Y-89011904D02*
X92452380Y-88440476D01*
X92452380Y-88726190D02*
X91452380Y-88726190D01*
X91595238Y-88630952D01*
X91690476Y-88535714D01*
X91738095Y-88440476D01*
X102166666Y-125952380D02*
X102500000Y-125476190D01*
X102738095Y-125952380D02*
X102738095Y-124952380D01*
X102357142Y-124952380D01*
X102261904Y-125000000D01*
X102214285Y-125047619D01*
X102166666Y-125142857D01*
X102166666Y-125285714D01*
X102214285Y-125380952D01*
X102261904Y-125428571D01*
X102357142Y-125476190D01*
X102738095Y-125476190D01*
X101690476Y-125952380D02*
X101500000Y-125952380D01*
X101404761Y-125904761D01*
X101357142Y-125857142D01*
X101261904Y-125714285D01*
X101214285Y-125523809D01*
X101214285Y-125142857D01*
X101261904Y-125047619D01*
X101309523Y-125000000D01*
X101404761Y-124952380D01*
X101595238Y-124952380D01*
X101690476Y-125000000D01*
X101738095Y-125047619D01*
X101785714Y-125142857D01*
X101785714Y-125380952D01*
X101738095Y-125476190D01*
X101690476Y-125523809D01*
X101595238Y-125571428D01*
X101404761Y-125571428D01*
X101309523Y-125523809D01*
X101261904Y-125476190D01*
X101214285Y-125380952D01*
X97166666Y-127452380D02*
X97500000Y-126976190D01*
X97738095Y-127452380D02*
X97738095Y-126452380D01*
X97357142Y-126452380D01*
X97261904Y-126500000D01*
X97214285Y-126547619D01*
X97166666Y-126642857D01*
X97166666Y-126785714D01*
X97214285Y-126880952D01*
X97261904Y-126928571D01*
X97357142Y-126976190D01*
X97738095Y-126976190D01*
X96595238Y-126880952D02*
X96690476Y-126833333D01*
X96738095Y-126785714D01*
X96785714Y-126690476D01*
X96785714Y-126642857D01*
X96738095Y-126547619D01*
X96690476Y-126500000D01*
X96595238Y-126452380D01*
X96404761Y-126452380D01*
X96309523Y-126500000D01*
X96261904Y-126547619D01*
X96214285Y-126642857D01*
X96214285Y-126690476D01*
X96261904Y-126785714D01*
X96309523Y-126833333D01*
X96404761Y-126880952D01*
X96595238Y-126880952D01*
X96690476Y-126928571D01*
X96738095Y-126976190D01*
X96785714Y-127071428D01*
X96785714Y-127261904D01*
X96738095Y-127357142D01*
X96690476Y-127404761D01*
X96595238Y-127452380D01*
X96404761Y-127452380D01*
X96309523Y-127404761D01*
X96261904Y-127357142D01*
X96214285Y-127261904D01*
X96214285Y-127071428D01*
X96261904Y-126976190D01*
X96309523Y-126928571D01*
X96404761Y-126880952D01*
X87952380Y-111208333D02*
X87476190Y-110875000D01*
X87952380Y-110636904D02*
X86952380Y-110636904D01*
X86952380Y-111017857D01*
X87000000Y-111113095D01*
X87047619Y-111160714D01*
X87142857Y-111208333D01*
X87285714Y-111208333D01*
X87380952Y-111160714D01*
X87428571Y-111113095D01*
X87476190Y-111017857D01*
X87476190Y-110636904D01*
X86952380Y-111541666D02*
X86952380Y-112208333D01*
X87952380Y-111779761D01*
X84952380Y-111333333D02*
X84476190Y-111000000D01*
X84952380Y-110761904D02*
X83952380Y-110761904D01*
X83952380Y-111142857D01*
X84000000Y-111238095D01*
X84047619Y-111285714D01*
X84142857Y-111333333D01*
X84285714Y-111333333D01*
X84380952Y-111285714D01*
X84428571Y-111238095D01*
X84476190Y-111142857D01*
X84476190Y-110761904D01*
X83952380Y-112190476D02*
X83952380Y-112000000D01*
X84000000Y-111904761D01*
X84047619Y-111857142D01*
X84190476Y-111761904D01*
X84380952Y-111714285D01*
X84761904Y-111714285D01*
X84857142Y-111761904D01*
X84904761Y-111809523D01*
X84952380Y-111904761D01*
X84952380Y-112095238D01*
X84904761Y-112190476D01*
X84857142Y-112238095D01*
X84761904Y-112285714D01*
X84523809Y-112285714D01*
X84428571Y-112238095D01*
X84380952Y-112190476D01*
X84333333Y-112095238D01*
X84333333Y-111904761D01*
X84380952Y-111809523D01*
X84428571Y-111761904D01*
X84523809Y-111714285D01*
X101916666Y-145702380D02*
X102250000Y-145226190D01*
X102488095Y-145702380D02*
X102488095Y-144702380D01*
X102107142Y-144702380D01*
X102011904Y-144750000D01*
X101964285Y-144797619D01*
X101916666Y-144892857D01*
X101916666Y-145035714D01*
X101964285Y-145130952D01*
X102011904Y-145178571D01*
X102107142Y-145226190D01*
X102488095Y-145226190D01*
X101059523Y-145035714D02*
X101059523Y-145702380D01*
X101297619Y-144654761D02*
X101535714Y-145369047D01*
X100916666Y-145369047D01*
X96666666Y-147702380D02*
X97000000Y-147226190D01*
X97238095Y-147702380D02*
X97238095Y-146702380D01*
X96857142Y-146702380D01*
X96761904Y-146750000D01*
X96714285Y-146797619D01*
X96666666Y-146892857D01*
X96666666Y-147035714D01*
X96714285Y-147130952D01*
X96761904Y-147178571D01*
X96857142Y-147226190D01*
X97238095Y-147226190D01*
X96333333Y-146702380D02*
X95714285Y-146702380D01*
X96047619Y-147083333D01*
X95904761Y-147083333D01*
X95809523Y-147130952D01*
X95761904Y-147178571D01*
X95714285Y-147273809D01*
X95714285Y-147511904D01*
X95761904Y-147607142D01*
X95809523Y-147654761D01*
X95904761Y-147702380D01*
X96190476Y-147702380D01*
X96285714Y-147654761D01*
X96333333Y-147607142D01*
X89452380Y-131333333D02*
X88976190Y-131000000D01*
X89452380Y-130761904D02*
X88452380Y-130761904D01*
X88452380Y-131142857D01*
X88500000Y-131238095D01*
X88547619Y-131285714D01*
X88642857Y-131333333D01*
X88785714Y-131333333D01*
X88880952Y-131285714D01*
X88928571Y-131238095D01*
X88976190Y-131142857D01*
X88976190Y-130761904D01*
X88547619Y-131714285D02*
X88500000Y-131761904D01*
X88452380Y-131857142D01*
X88452380Y-132095238D01*
X88500000Y-132190476D01*
X88547619Y-132238095D01*
X88642857Y-132285714D01*
X88738095Y-132285714D01*
X88880952Y-132238095D01*
X89452380Y-131666666D01*
X89452380Y-132285714D01*
X86452380Y-131333333D02*
X85976190Y-131000000D01*
X86452380Y-130761904D02*
X85452380Y-130761904D01*
X85452380Y-131142857D01*
X85500000Y-131238095D01*
X85547619Y-131285714D01*
X85642857Y-131333333D01*
X85785714Y-131333333D01*
X85880952Y-131285714D01*
X85928571Y-131238095D01*
X85976190Y-131142857D01*
X85976190Y-130761904D01*
X86452380Y-132285714D02*
X86452380Y-131714285D01*
X86452380Y-132000000D02*
X85452380Y-132000000D01*
X85595238Y-131904761D01*
X85690476Y-131809523D01*
X85738095Y-131714285D01*
X102642857Y-91357142D02*
X102690476Y-91404761D01*
X102833333Y-91452380D01*
X102928571Y-91452380D01*
X103071428Y-91404761D01*
X103166666Y-91309523D01*
X103214285Y-91214285D01*
X103261904Y-91023809D01*
X103261904Y-90880952D01*
X103214285Y-90690476D01*
X103166666Y-90595238D01*
X103071428Y-90500000D01*
X102928571Y-90452380D01*
X102833333Y-90452380D01*
X102690476Y-90500000D01*
X102642857Y-90547619D01*
X101690476Y-91452380D02*
X102261904Y-91452380D01*
X101976190Y-91452380D02*
X101976190Y-90452380D01*
X102071428Y-90595238D01*
X102166666Y-90690476D01*
X102261904Y-90738095D01*
X101214285Y-91452380D02*
X101023809Y-91452380D01*
X100928571Y-91404761D01*
X100880952Y-91357142D01*
X100785714Y-91214285D01*
X100738095Y-91023809D01*
X100738095Y-90642857D01*
X100785714Y-90547619D01*
X100833333Y-90500000D01*
X100928571Y-90452380D01*
X101119047Y-90452380D01*
X101214285Y-90500000D01*
X101261904Y-90547619D01*
X101309523Y-90642857D01*
X101309523Y-90880952D01*
X101261904Y-90976190D01*
X101214285Y-91023809D01*
X101119047Y-91071428D01*
X100928571Y-91071428D01*
X100833333Y-91023809D01*
X100785714Y-90976190D01*
X100738095Y-90880952D01*
X97857142Y-87107142D02*
X97904761Y-87059523D01*
X97952380Y-86916666D01*
X97952380Y-86821428D01*
X97904761Y-86678571D01*
X97809523Y-86583333D01*
X97714285Y-86535714D01*
X97523809Y-86488095D01*
X97380952Y-86488095D01*
X97190476Y-86535714D01*
X97095238Y-86583333D01*
X97000000Y-86678571D01*
X96952380Y-86821428D01*
X96952380Y-86916666D01*
X97000000Y-87059523D01*
X97047619Y-87107142D01*
X97952380Y-88059523D02*
X97952380Y-87488095D01*
X97952380Y-87773809D02*
X96952380Y-87773809D01*
X97095238Y-87678571D01*
X97190476Y-87583333D01*
X97238095Y-87488095D01*
X96952380Y-88392857D02*
X96952380Y-89059523D01*
X97952380Y-88630952D01*
X94107142Y-86357142D02*
X94154761Y-86309523D01*
X94202380Y-86166666D01*
X94202380Y-86071428D01*
X94154761Y-85928571D01*
X94059523Y-85833333D01*
X93964285Y-85785714D01*
X93773809Y-85738095D01*
X93630952Y-85738095D01*
X93440476Y-85785714D01*
X93345238Y-85833333D01*
X93250000Y-85928571D01*
X93202380Y-86071428D01*
X93202380Y-86166666D01*
X93250000Y-86309523D01*
X93297619Y-86357142D01*
X94202380Y-87309523D02*
X94202380Y-86738095D01*
X94202380Y-87023809D02*
X93202380Y-87023809D01*
X93345238Y-86928571D01*
X93440476Y-86833333D01*
X93488095Y-86738095D01*
X93202380Y-88166666D02*
X93202380Y-87976190D01*
X93250000Y-87880952D01*
X93297619Y-87833333D01*
X93440476Y-87738095D01*
X93630952Y-87690476D01*
X94011904Y-87690476D01*
X94107142Y-87738095D01*
X94154761Y-87785714D01*
X94202380Y-87880952D01*
X94202380Y-88071428D01*
X94154761Y-88166666D01*
X94107142Y-88214285D01*
X94011904Y-88261904D01*
X93773809Y-88261904D01*
X93678571Y-88214285D01*
X93630952Y-88166666D01*
X93583333Y-88071428D01*
X93583333Y-87880952D01*
X93630952Y-87785714D01*
X93678571Y-87738095D01*
X93773809Y-87690476D01*
X102392857Y-111857142D02*
X102440476Y-111904761D01*
X102583333Y-111952380D01*
X102678571Y-111952380D01*
X102821428Y-111904761D01*
X102916666Y-111809523D01*
X102964285Y-111714285D01*
X103011904Y-111523809D01*
X103011904Y-111380952D01*
X102964285Y-111190476D01*
X102916666Y-111095238D01*
X102821428Y-111000000D01*
X102678571Y-110952380D01*
X102583333Y-110952380D01*
X102440476Y-111000000D01*
X102392857Y-111047619D01*
X101440476Y-111952380D02*
X102011904Y-111952380D01*
X101726190Y-111952380D02*
X101726190Y-110952380D01*
X101821428Y-111095238D01*
X101916666Y-111190476D01*
X102011904Y-111238095D01*
X100535714Y-110952380D02*
X101011904Y-110952380D01*
X101059523Y-111428571D01*
X101011904Y-111380952D01*
X100916666Y-111333333D01*
X100678571Y-111333333D01*
X100583333Y-111380952D01*
X100535714Y-111428571D01*
X100488095Y-111523809D01*
X100488095Y-111761904D01*
X100535714Y-111857142D01*
X100583333Y-111904761D01*
X100678571Y-111952380D01*
X100916666Y-111952380D01*
X101011904Y-111904761D01*
X101059523Y-111857142D01*
X89357142Y-110357142D02*
X89404761Y-110309523D01*
X89452380Y-110166666D01*
X89452380Y-110071428D01*
X89404761Y-109928571D01*
X89309523Y-109833333D01*
X89214285Y-109785714D01*
X89023809Y-109738095D01*
X88880952Y-109738095D01*
X88690476Y-109785714D01*
X88595238Y-109833333D01*
X88500000Y-109928571D01*
X88452380Y-110071428D01*
X88452380Y-110166666D01*
X88500000Y-110309523D01*
X88547619Y-110357142D01*
X89452380Y-111309523D02*
X89452380Y-110738095D01*
X89452380Y-111023809D02*
X88452380Y-111023809D01*
X88595238Y-110928571D01*
X88690476Y-110833333D01*
X88738095Y-110738095D01*
X88452380Y-111642857D02*
X88452380Y-112261904D01*
X88833333Y-111928571D01*
X88833333Y-112071428D01*
X88880952Y-112166666D01*
X88928571Y-112214285D01*
X89023809Y-112261904D01*
X89261904Y-112261904D01*
X89357142Y-112214285D01*
X89404761Y-112166666D01*
X89452380Y-112071428D01*
X89452380Y-111785714D01*
X89404761Y-111690476D01*
X89357142Y-111642857D01*
X86357142Y-110357142D02*
X86404761Y-110309523D01*
X86452380Y-110166666D01*
X86452380Y-110071428D01*
X86404761Y-109928571D01*
X86309523Y-109833333D01*
X86214285Y-109785714D01*
X86023809Y-109738095D01*
X85880952Y-109738095D01*
X85690476Y-109785714D01*
X85595238Y-109833333D01*
X85500000Y-109928571D01*
X85452380Y-110071428D01*
X85452380Y-110166666D01*
X85500000Y-110309523D01*
X85547619Y-110357142D01*
X86452380Y-111309523D02*
X86452380Y-110738095D01*
X86452380Y-111023809D02*
X85452380Y-111023809D01*
X85595238Y-110928571D01*
X85690476Y-110833333D01*
X85738095Y-110738095D01*
X85547619Y-111690476D02*
X85500000Y-111738095D01*
X85452380Y-111833333D01*
X85452380Y-112071428D01*
X85500000Y-112166666D01*
X85547619Y-112214285D01*
X85642857Y-112261904D01*
X85738095Y-112261904D01*
X85880952Y-112214285D01*
X86452380Y-111642857D01*
X86452380Y-112261904D01*
X103416666Y-131607142D02*
X103464285Y-131654761D01*
X103607142Y-131702380D01*
X103702380Y-131702380D01*
X103845238Y-131654761D01*
X103940476Y-131559523D01*
X103988095Y-131464285D01*
X104035714Y-131273809D01*
X104035714Y-131130952D01*
X103988095Y-130940476D01*
X103940476Y-130845238D01*
X103845238Y-130750000D01*
X103702380Y-130702380D01*
X103607142Y-130702380D01*
X103464285Y-130750000D01*
X103416666Y-130797619D01*
X102559523Y-131035714D02*
X102559523Y-131702380D01*
X102797619Y-130654761D02*
X103035714Y-131369047D01*
X102416666Y-131369047D01*
X90857142Y-131333333D02*
X90904761Y-131285714D01*
X90952380Y-131142857D01*
X90952380Y-131047619D01*
X90904761Y-130904761D01*
X90809523Y-130809523D01*
X90714285Y-130761904D01*
X90523809Y-130714285D01*
X90380952Y-130714285D01*
X90190476Y-130761904D01*
X90095238Y-130809523D01*
X90000000Y-130904761D01*
X89952380Y-131047619D01*
X89952380Y-131142857D01*
X90000000Y-131285714D01*
X90047619Y-131333333D01*
X90047619Y-131714285D02*
X90000000Y-131761904D01*
X89952380Y-131857142D01*
X89952380Y-132095238D01*
X90000000Y-132190476D01*
X90047619Y-132238095D01*
X90142857Y-132285714D01*
X90238095Y-132285714D01*
X90380952Y-132238095D01*
X90952380Y-131666666D01*
X90952380Y-132285714D01*
X87857142Y-131333333D02*
X87904761Y-131285714D01*
X87952380Y-131142857D01*
X87952380Y-131047619D01*
X87904761Y-130904761D01*
X87809523Y-130809523D01*
X87714285Y-130761904D01*
X87523809Y-130714285D01*
X87380952Y-130714285D01*
X87190476Y-130761904D01*
X87095238Y-130809523D01*
X87000000Y-130904761D01*
X86952380Y-131047619D01*
X86952380Y-131142857D01*
X87000000Y-131285714D01*
X87047619Y-131333333D01*
X87952380Y-132285714D02*
X87952380Y-131714285D01*
X87952380Y-132000000D02*
X86952380Y-132000000D01*
X87095238Y-131904761D01*
X87190476Y-131809523D01*
X87238095Y-131714285D01*
M02*
