M48
; DRILL file {KiCad 5.1.5+dfsg1-2build2} date Sat 26 Dec 2020 11:47:49 PM PST
; FORMAT={-:-/ absolute / inch / decimal}
; #@! TF.CreationDate,2020-12-26T23:47:49-08:00
; #@! TF.GenerationSoftware,Kicad,Pcbnew,5.1.5+dfsg1-2build2
FMAT,2
INCH
T1C0.0157
T2C0.0197
T3C0.0450
T4C0.2402
%
G90
G05
T1
X2.0276Y-3.8386
X2.0276Y-3.937
X2.0276Y-4.0354
X2.0276Y-4.1339
X2.0276Y-4.2323
X2.0276Y-4.3307
X2.0276Y-4.4291
X2.0276Y-4.5276
X2.0276Y-4.626
X2.0276Y-4.7244
X2.0276Y-4.8228
X2.0276Y-4.9213
X2.0276Y-5.0197
X2.0276Y-5.1181
X2.0276Y-5.2165
X2.0276Y-5.315
X2.0276Y-5.4134
X2.0276Y-5.5118
X2.0276Y-5.6102
X2.9528Y-3.3858
X3.0709Y-3.2972
X3.0906Y-3.3858
X3.4055Y-3.1594
X3.4547Y-3.2776
X3.4843Y-3.0315
X3.4941Y-3.2677
X3.5335Y-3.0315
X3.563Y-2.8937
X3.622Y-2.9035
X3.6417Y-3.248
X3.6516Y-4.2913
X3.6713Y-3.2185
X3.6811Y-2.8937
X3.6811Y-3.3366
X3.7008Y-3.5039
X3.7008Y-5.0984
X3.75Y-5.0984
X3.7598Y-3.2677
X3.7992Y-3.2972
X3.8386Y-4.5079
X3.8484Y-5.3051
X3.8583Y-3.7992
X3.8681Y-3.3169
X3.8976Y-3.4744
X3.9075Y-3.5728
X3.937Y-4.626
X3.937Y-5.4134
X3.9469Y-3.3366
X3.9469Y-3.8386
X3.9961Y-5.128
X4.0157Y-4.311
X4.0354Y-3.4744
X4.0748Y-3.1201
X4.1929Y-3.2283
X4.2717Y-3.7402
X4.2717Y-4.1339
X4.3307Y-4.4291
X4.3307Y-5.2165
X4.4291Y-4.4291
X4.4291Y-5.2165
X4.8524Y-4.2323
X4.8524Y-4.3799
T3
X2.6575Y-3.5236
X2.6575Y-3.6236
X2.6575Y-3.7236
X3.7008Y-5.4118
X3.7008Y-5.5118
X3.7008Y-5.6118
X3.7008Y-4.6244
X3.7008Y-4.7244
X3.7008Y-4.8244
X3.4646Y-4.7244
X3.4646Y-4.8244
X3.4646Y-4.9244
X3.4646Y-5.5118
X3.4646Y-5.6118
X3.4646Y-5.7118
X3.4646Y-3.937
X3.4646Y-4.037
X3.4646Y-4.137
X3.7008Y-3.837
X3.7008Y-3.937
X3.7008Y-4.037
X2.9331Y-3.5205
X2.9331Y-3.6205
X2.9331Y-3.7205
T4
X4.5276Y-4.7244
X4.5276Y-3.937
X2.3622Y-4.3307
X4.5276Y-5.5118
X2.3622Y-5.1181
T2
G00X2.0148Y-3.2165
M15
G01X2.0148Y-3.2598
M16
G05
G00X2.0994Y-3.1142
M15
G01X2.0994Y-3.1417
M16
G05
G00X2.0994Y-3.3346
M15
G01X2.0994Y-3.3622
M16
G05
T0
M30
